<svg width="24" height="25" viewBox="0 0 24 25" fill="none" xmlns="http://www.w3.org/2000/svg">
<path d="M20 11.539H22C22 6.40904 18.127 2.54004 12.99 2.54004V4.54004C17.052 4.54004 20 7.48304 20 11.539Z" fill="white"/>
<path d="M13 8.54028C15.103 8.54028 16 9.43728 16 11.5403H18C18 8.31528 16.225 6.54028 13 6.54028V8.54028ZM16.422 13.9833C16.2298 13.8086 15.9773 13.7155 15.7178 13.7235C15.4582 13.7315 15.212 13.8401 15.031 14.0263L12.638 16.4873C12.062 16.3773 10.904 16.0163 9.71198 14.8273C8.51998 13.6343 8.15898 12.4733 8.05198 11.9013L10.511 9.50728C10.6974 9.32641 10.8061 9.0801 10.8141 8.82048C10.8222 8.56087 10.7289 8.30832 10.554 8.11628L6.85898 4.05328C6.68402 3.86063 6.44086 3.74378 6.18113 3.72754C5.9214 3.71129 5.66557 3.79694 5.46798 3.96628L3.29798 5.82728C3.12509 6.00079 3.0219 6.23173 3.00798 6.47628C2.99298 6.72628 2.70698 12.6483 7.29898 17.2423C11.305 21.2473 16.323 21.5403 17.705 21.5403C17.907 21.5403 18.031 21.5343 18.064 21.5323C18.3085 21.5186 18.5393 21.4149 18.712 21.2413L20.572 19.0703C20.7414 18.8728 20.8273 18.6171 20.8112 18.3573C20.7951 18.0976 20.6785 17.8544 20.486 17.6793L16.422 13.9833Z" fill="white"/>
</svg>
