<svg width="24" height="25" viewBox="0 0 24 25" fill="none" xmlns="http://www.w3.org/2000/svg">
<path d="M12 2.04004C9.81276 2.04262 7.71584 2.91264 6.16923 4.45926C4.62261 6.00587 3.75259 8.1028 3.75001 10.29C3.74739 12.0775 4.33124 13.8164 5.41201 15.24C5.41201 15.24 5.63701 15.5363 5.67376 15.579L12 23.04L18.3293 15.5753C18.3623 15.5355 18.588 15.24 18.588 15.24L18.5888 15.2378C19.669 13.8147 20.2526 12.0766 20.25 10.29C20.2474 8.1028 19.3774 6.00587 17.8308 4.45926C16.2842 2.91264 14.1873 2.04262 12 2.04004ZM12 13.29C11.4067 13.29 10.8266 13.1141 10.3333 12.7844C9.83995 12.4548 9.45543 11.9863 9.22837 11.4381C9.00131 10.8899 8.9419 10.2867 9.05765 9.70477C9.17341 9.12283 9.45913 8.58828 9.87869 8.16872C10.2982 7.74916 10.8328 7.46344 11.4147 7.34768C11.9967 7.23193 12.5999 7.29134 13.1481 7.5184C13.6962 7.74546 14.1648 8.12998 14.4944 8.62333C14.8241 9.11668 15 9.6967 15 10.29C14.999 11.0854 14.6826 11.8479 14.1202 12.4103C13.5578 12.9727 12.7954 13.289 12 13.29Z" fill="white"/>
</svg>
