<svg width="44" height="44" viewBox="0 0 44 44" fill="none" xmlns="http://www.w3.org/2000/svg">
<g clip-path="url(#clip0_2446_951)">
<path d="M32.0839 20.166C29.7268 20.1657 27.4225 20.8643 25.4624 22.1736C23.5024 23.4828 21.9746 25.3439 21.0722 27.5215C20.1699 29.6991 19.9335 32.0953 20.393 34.4072C20.8526 36.7191 21.9873 38.8428 23.6538 40.5098C25.3203 42.1768 27.4437 43.3121 29.7555 43.7723C32.0672 44.2325 34.4635 43.9968 36.6413 43.0951C38.8192 42.1934 40.6807 40.6661 41.9905 38.7064C43.3004 36.7468 43.9997 34.4427 44 32.0855C43.9964 28.926 42.7399 25.8969 40.506 23.6624C38.2722 21.4279 35.2434 20.1706 32.0839 20.166ZM38.5017 29.6191L32.0856 36.953C31.9202 37.142 31.7176 37.295 31.4905 37.4023C31.2634 37.5096 31.0167 37.5691 30.7656 37.577H30.7055C30.2201 37.5765 29.7547 37.3837 29.4112 37.0407L25.7452 33.3746C25.5749 33.2043 25.4398 33.0021 25.3476 32.7796C25.2554 32.5571 25.208 32.3186 25.208 32.0778C25.208 31.837 25.2554 31.5985 25.3476 31.376C25.4398 31.1535 25.5749 30.9513 25.7452 30.781C26.0891 30.4371 26.5556 30.2439 27.042 30.2439C27.2828 30.2439 27.5213 30.2913 27.7438 30.3835C27.9663 30.4756 28.1685 30.6107 28.3387 30.781L30.6178 33.0618L35.75 27.2077C35.904 27.0114 36.0964 26.8486 36.3155 26.7293C36.5346 26.6099 36.7757 26.5365 37.0241 26.5136C37.2726 26.4906 37.5231 26.5186 37.7603 26.5958C37.9976 26.673 38.2166 26.7978 38.4039 26.9625C38.5913 27.1273 38.743 27.3285 38.8499 27.5539C38.9568 27.7794 39.0166 28.0242 39.0256 28.2736C39.0346 28.5229 38.9926 28.7714 38.9022 29.004C38.8119 29.2365 38.675 29.4482 38.5 29.626L38.5017 29.6191Z" fill="#53BED1"/>
<path d="M30.58 5.55491L15.9122 0.0549075C15.6984 -0.0189535 15.466 -0.0189535 15.2522 0.0549075L0.58266 5.55491C0.410408 5.62298 0.262674 5.74139 0.158736 5.89469C0.054797 6.048 -0.00051964 6.22907 3.67907e-06 6.41428V18.2032C3.67907e-06 34.9232 15.235 38.4432 15.3828 38.4844C15.5157 38.5096 15.6521 38.5096 15.785 38.4844C16.4162 38.3369 17.035 38.1409 17.6361 37.8983C16.8838 36.0528 16.4979 34.0785 16.5 32.0855C16.5025 28.111 18.0217 24.2872 20.7475 21.3946C23.4734 18.502 27.2004 16.7587 31.1678 16.5205V6.41944C31.1675 6.23373 31.1112 6.05244 31.0064 5.89916C30.9015 5.74588 30.7529 5.62772 30.58 5.56006V5.55491Z" fill="#1F85B7"/>
</g>
<defs>
<clipPath id="clip0_2446_951">
<rect width="44" height="44" fill="white"/>
</clipPath>
</defs>
</svg>
