<svg width="44" height="44" viewBox="0 0 44 44" fill="none" xmlns="http://www.w3.org/2000/svg">
<g clip-path="url(#clip0_2446_957)">
<path d="M28.1497 3.28635C27.4783 2.27081 26.5645 1.43857 25.4908 0.864806C24.4171 0.291046 23.2174 -0.00614234 22 9.62299e-05C18.8134 9.62299e-05 16.0239 2.02994 15.1009 4.87103C12.7634 5.32822 11 7.33228 11 9.71619C11 12.4473 13.3066 14.6662 16.1425 14.6662H27.0222C30.3188 14.6662 33 12.0881 33 8.92041C33 6.1326 30.9237 3.7865 28.1497 3.28635Z" fill="#1F85B7"/>
<path d="M38.5 28.875C38.1353 28.875 37.7856 28.7301 37.5277 28.4723C37.2699 28.2144 37.125 27.8647 37.125 27.5V24.75H6.875V27.5C6.875 27.8647 6.73013 28.2144 6.47227 28.4723C6.21441 28.7301 5.86467 28.875 5.5 28.875C5.13533 28.875 4.78559 28.7301 4.52773 28.4723C4.26987 28.2144 4.125 27.8647 4.125 27.5V23.375C4.125 23.0103 4.26987 22.6606 4.52773 22.4027C4.78559 22.1449 5.13533 22 5.5 22H38.5C38.8647 22 39.2144 22.1449 39.4723 22.4027C39.7301 22.6606 39.875 23.0103 39.875 23.375V27.5C39.875 27.8647 39.7301 28.2144 39.4723 28.4723C39.2144 28.7301 38.8647 28.875 38.5 28.875Z" fill="#53BED1"/>
<path d="M22 29.334C21.6353 29.334 21.2856 29.1891 21.0277 28.9313C20.7699 28.6734 20.625 28.3237 20.625 27.959V19.709C20.625 19.3443 20.7699 18.9946 21.0277 18.7367C21.2856 18.4789 21.6353 18.334 22 18.334C22.3647 18.334 22.7144 18.4789 22.9723 18.7367C23.2301 18.9946 23.375 19.3443 23.375 19.709V27.959C23.375 28.3237 23.2301 28.6734 22.9723 28.9313C22.7144 29.1891 22.3647 29.334 22 29.334Z" fill="#53BED1"/>
<path d="M5.5 36.666C7.01878 36.666 8.25 35.4348 8.25 33.916C8.25 32.3972 7.01878 31.166 5.5 31.166C3.98122 31.166 2.75 32.3972 2.75 33.916C2.75 35.4348 3.98122 36.666 5.5 36.666Z" fill="#1F85B7"/>
<path d="M6.875 38.5H4.125C3.03098 38.5 1.98177 38.9346 1.20818 39.7082C0.434597 40.4818 0 41.531 0 42.625C0 42.9897 0.144866 43.3394 0.402728 43.5973C0.660591 43.8551 1.01033 44 1.375 44H9.625C9.98967 44 10.3394 43.8551 10.5973 43.5973C10.8551 43.3394 11 42.9897 11 42.625C11 41.531 10.5654 40.4818 9.79182 39.7082C9.01823 38.9346 7.96902 38.5 6.875 38.5Z" fill="#1F85B7"/>
<path d="M22 36.666C23.5188 36.666 24.75 35.4348 24.75 33.916C24.75 32.3972 23.5188 31.166 22 31.166C20.4812 31.166 19.25 32.3972 19.25 33.916C19.25 35.4348 20.4812 36.666 22 36.666Z" fill="#1F85B7"/>
<path d="M23.375 38.5H20.625C19.531 38.5 18.4818 38.9346 17.7082 39.7082C16.9346 40.4818 16.5 41.531 16.5 42.625C16.5 42.9897 16.6449 43.3394 16.9027 43.5973C17.1606 43.8551 17.5103 44 17.875 44H26.125C26.4897 44 26.8394 43.8551 27.0973 43.5973C27.3551 43.3394 27.5 42.9897 27.5 42.625C27.5 41.531 27.0654 40.4818 26.2918 39.7082C25.5182 38.9346 24.469 38.5 23.375 38.5Z" fill="#1F85B7"/>
<path d="M38.5 36.666C40.0188 36.666 41.25 35.4348 41.25 33.916C41.25 32.3972 40.0188 31.166 38.5 31.166C36.9812 31.166 35.75 32.3972 35.75 33.916C35.75 35.4348 36.9812 36.666 38.5 36.666Z" fill="#1F85B7"/>
<path d="M39.875 38.5H37.125C36.031 38.5 34.9818 38.9346 34.2082 39.7082C33.4346 40.4818 33 41.531 33 42.625C33 42.9897 33.1449 43.3394 33.4027 43.5973C33.6606 43.8551 34.0103 44 34.375 44H42.625C42.9897 44 43.3394 43.8551 43.5973 43.5973C43.8551 43.3394 44 42.9897 44 42.625C44 41.531 43.5654 40.4818 42.7918 39.7082C42.0182 38.9346 40.969 38.5 39.875 38.5Z" fill="#1F85B7"/>
</g>
<defs>
<clipPath id="clip0_2446_957">
<rect width="44" height="44" fill="white"/>
</clipPath>
</defs>
</svg>
