<svg width="22" height="25" viewBox="0 0 22 25" fill="none" xmlns="http://www.w3.org/2000/svg">
<path d="M19.5611 13.261C19.58 13.041 19.5972 12.821 19.5972 12.5735C19.5972 12.326 19.5766 12.1146 19.5611 11.886L21.0822 10.7654C21.5257 10.4363 21.8338 9.95658 21.9487 9.41637C22.0636 8.87616 21.9773 8.31259 21.7061 7.83148L20.35 5.42867C20.0824 4.93751 19.6373 4.56715 19.1056 4.39335C18.574 4.21954 17.996 4.25543 17.49 4.49367L15.8125 5.28258C15.4789 5.0508 15.1298 4.84234 14.7675 4.65867L14.575 2.70102C14.5253 2.14629 14.2702 1.63012 13.8598 1.25367C13.4493 0.877228 12.913 0.66765 12.3561 0.666016L9.64219 0.666016C9.08495 0.667222 8.54826 0.876608 8.13744 1.25309C7.72661 1.62958 7.47129 2.14599 7.42157 2.70102L7.23766 4.66211C6.87361 4.84557 6.52272 5.05403 6.1875 5.28602L4.50141 4.49711C3.99472 4.26307 3.41825 4.22939 2.88775 4.40282C2.35725 4.57626 1.912 4.94396 1.64141 5.43211L0.292189 7.85211C0.0183288 8.33257 -0.0694284 8.89691 0.0456026 9.43784C0.160634 9.97877 0.470432 10.4586 0.916096 10.786L2.43719 11.9049C2.41656 12.1249 2.4011 12.3449 2.4011 12.5924C2.4011 12.8399 2.42 13.053 2.43719 13.2799L0.916096 14.3988C0.473767 14.7261 0.166356 15.2038 0.0517578 15.742C-0.0628402 16.2801 0.0232827 16.8416 0.293908 17.3207L1.65 19.7407C1.92 20.2294 2.36523 20.5977 2.89595 20.7712C3.42667 20.9447 4.00344 20.9106 4.51 20.6757L6.1961 19.8868C6.52965 20.1186 6.87882 20.327 7.2411 20.5107L7.425 22.4718C7.4747 23.0265 7.72977 23.5427 8.14024 23.9191C8.5507 24.2956 9.08696 24.5052 9.64391 24.5068H12.3578C12.9151 24.5056 13.4517 24.2962 13.8626 23.9197C14.2734 23.5432 14.5287 23.0268 14.5784 22.4718L14.7623 20.5107C15.1246 20.327 15.4738 20.1186 15.8073 19.8868L17.4934 20.6757C17.9995 20.9139 18.5774 20.9498 19.1091 20.776C19.6407 20.6022 20.0858 20.2319 20.3534 19.7407L21.7078 17.3207C21.9817 16.8402 22.0694 16.2759 21.9544 15.735C21.8394 15.194 21.5296 14.7142 21.0839 14.3868L19.5611 13.261ZM15.5839 12.5838C15.5839 13.4904 15.3151 14.3767 14.8114 15.1305C14.3077 15.8843 13.5918 16.4719 12.7542 16.8188C11.9166 17.1658 10.9949 17.2565 10.1057 17.0797C9.21654 16.9028 8.39976 16.4662 7.75869 15.8251C7.11762 15.1841 6.68105 14.3673 6.50417 13.4781C6.3273 12.5889 6.41808 11.6672 6.76502 10.8296C7.11197 9.99204 7.6995 9.27614 8.45332 8.77245C9.20714 8.26876 10.0934 7.99992 11 7.99992C12.2155 8.00083 13.3809 8.48407 14.2403 9.34352C15.0998 10.203 15.583 11.3684 15.5839 12.5838Z" fill="#53BED1"/>
</svg>
