<svg width="44" height="44" viewBox="0 0 44 44" fill="none" xmlns="http://www.w3.org/2000/svg">
<g clip-path="url(#clip0_2446_970)">
<path d="M43.0684 21.6804L33.4434 18.4148C33.1559 18.3168 32.8441 18.3168 32.5566 18.4148L22.9316 21.6804C22.6599 21.7729 22.4241 21.9482 22.257 22.1815C22.09 22.4148 22.0001 22.6945 22 22.9815V30.3498C22 39.3423 32.0341 43.7079 32.4638 43.8935C32.6338 43.9638 32.816 44 33 44.0001C33.1844 44.0005 33.3669 43.963 33.5362 43.8901C33.9659 43.7079 44 39.3388 44 30.3498V22.9815C43.9999 22.6945 43.91 22.4148 43.743 22.1815C43.5759 21.9482 43.3401 21.7729 43.0684 21.6804ZM39.0259 28.6327L33.9848 35.0488C33.832 35.2434 33.6414 35.4049 33.4244 35.5238C33.2075 35.6427 32.9687 35.7164 32.7225 35.7405C32.4763 35.7646 32.2277 35.7386 31.9919 35.664C31.756 35.5894 31.5376 35.4679 31.35 35.3067L28.1411 32.5567C27.7779 32.2389 27.5547 31.7906 27.5201 31.3092C27.4855 30.8278 27.6422 30.3522 27.9561 29.9857C28.2701 29.6192 28.7161 29.3914 29.197 29.3518C29.678 29.3121 30.1552 29.4638 30.525 29.774L32.2816 31.2813L36.1436 26.3709C36.444 25.9886 36.8839 25.7414 37.3666 25.6836C37.8493 25.6257 38.3352 25.762 38.7174 26.0624C39.0996 26.3628 39.3469 26.8027 39.4047 27.2854C39.4626 27.7681 39.3263 28.254 39.0259 28.6362V28.6327Z" fill="#53BED1"/>
<path d="M34.8339 0H5.5C4.04131 0 2.64236 0.579463 1.61091 1.61091C0.579463 2.64236 0 4.04131 0 5.5C0 6.95869 0.579463 8.35764 1.61091 9.38909C2.64236 10.4205 4.04131 11 5.5 11H34.8339C36.2926 11 37.6915 10.4205 38.723 9.38909C39.7544 8.35764 40.3339 6.95869 40.3339 5.5C40.3339 4.04131 39.7544 2.64236 38.723 1.61091C37.6915 0.579463 36.2926 0 34.8339 0ZM5.5 7.33391C5.13729 7.33391 4.78272 7.22635 4.48114 7.02484C4.17955 6.82333 3.9445 6.53691 3.80569 6.20181C3.66689 5.8667 3.63057 5.49797 3.70133 5.14222C3.77209 4.78648 3.94676 4.45971 4.20323 4.20323C4.45971 3.94676 4.78648 3.77209 5.14222 3.70133C5.49797 3.63057 5.8667 3.66689 6.20181 3.80569C6.53691 3.9445 6.82333 4.17955 7.02484 4.48114C7.22635 4.78272 7.33391 5.13729 7.33391 5.5C7.33391 5.98638 7.14069 6.45284 6.79677 6.79677C6.45284 7.14069 5.98638 7.33391 5.5 7.33391ZM12.8339 7.33391C12.4712 7.33391 12.1166 7.22635 11.815 7.02484C11.5135 6.82333 11.2784 6.53691 11.1396 6.20181C11.0008 5.8667 10.9645 5.49797 11.0352 5.14222C11.106 4.78648 11.2807 4.45971 11.5371 4.20323C11.7936 3.94676 12.1204 3.77209 12.4761 3.70133C12.8319 3.63057 13.2006 3.66689 13.5357 3.80569C13.8708 3.9445 14.1572 4.17955 14.3587 4.48114C14.5603 4.78272 14.6678 5.13729 14.6678 5.5C14.6678 5.98638 14.4746 6.45284 14.1307 6.79677C13.7867 7.14069 13.3203 7.33391 12.8339 7.33391ZM5.5 14.6661C4.04131 14.6661 2.64236 15.2456 1.61091 16.277C0.579463 17.3085 1.15904e-07 18.7074 1.15904e-07 20.1661C1.15904e-07 21.6248 0.579463 23.0237 1.61091 24.0552C2.64236 25.0866 4.04131 25.6661 5.5 25.6661H18.3339V22.99C18.334 21.933 18.6658 20.9027 19.2825 20.0442C19.8992 19.1858 20.7697 18.5425 21.7714 18.205L31.3775 14.9394C31.9021 14.7575 32.4534 14.6646 33.0086 14.6644L5.5 14.6661ZM5.5 22C5.13729 22 4.78272 21.8924 4.48114 21.6909C4.17955 21.4894 3.9445 21.203 3.80569 20.8679C3.66689 20.5328 3.63057 20.1641 3.70133 19.8083C3.77209 19.4526 3.94676 19.1258 4.20323 18.8693C4.45971 18.6129 4.78648 18.4382 5.14222 18.3674C5.49797 18.2967 5.8667 18.333 6.20181 18.4718C6.53691 18.6106 6.82333 18.8456 7.02484 19.1472C7.22635 19.4488 7.33391 19.8034 7.33391 20.1661C7.33255 20.6521 7.13889 21.1177 6.79526 21.4614C6.45163 21.805 5.98596 21.9986 5.5 22ZM12.8339 22C12.4712 22 12.1166 21.8924 11.815 21.6909C11.5135 21.4894 11.2784 21.203 11.1396 20.8679C11.0008 20.5328 10.9645 20.1641 11.0352 19.8083C11.106 19.4526 11.2807 19.1258 11.5371 18.8693C11.7936 18.6129 12.1204 18.4382 12.4761 18.3674C12.8319 18.2967 13.2006 18.333 13.5357 18.4718C13.8708 18.6106 14.1572 18.8456 14.3587 19.1472C14.5603 19.4488 14.6678 19.8034 14.6678 20.1661C14.6665 20.6521 14.4728 21.1177 14.1292 21.4614C13.7855 21.805 13.3199 21.9986 12.8339 22ZM18.3339 30.3411V29.3322H5.5C4.04131 29.3322 2.64236 29.9116 1.61091 30.9431C0.579463 31.9746 0 33.3735 0 34.8322C0 36.2909 0.579463 37.6898 1.61091 38.7213C2.64236 39.7527 4.04131 40.3322 5.5 40.3322H21.945C19.8361 37.6561 18.3339 34.3011 18.3339 30.3411ZM5.5 36.6661C5.13721 36.6661 4.78258 36.5585 4.48096 36.3569C4.17934 36.1553 3.94428 35.8688 3.80553 35.5336C3.66677 35.1984 3.63056 34.8296 3.70146 34.4738C3.77236 34.118 3.94719 33.7912 4.20384 33.5348C4.46049 33.2784 4.78742 33.1039 5.14328 33.0333C5.49913 32.9627 5.86792 32.9993 6.203 33.1384C6.53807 33.2774 6.82437 33.5128 7.02567 33.8146C7.22698 34.1164 7.33425 34.4711 7.33391 34.8339C7.33209 35.3196 7.13824 35.7848 6.79466 36.1281C6.45108 36.4713 5.98567 36.6647 5.5 36.6661ZM12.8339 36.6661C12.4711 36.6661 12.1165 36.5585 11.8149 36.3569C11.5132 36.1553 11.2782 35.8688 11.1394 35.5336C11.0007 35.1984 10.9645 34.8296 11.0354 34.4738C11.1063 34.118 11.2811 33.7912 11.5377 33.5348C11.7944 33.2784 12.1213 33.1039 12.4772 33.0333C12.833 32.9627 13.2018 32.9993 13.5369 33.1384C13.872 33.2774 14.1583 33.5128 14.3596 33.8146C14.5609 34.1164 14.6682 34.4711 14.6678 34.8339C14.666 35.3196 14.4721 35.7848 14.1286 36.1281C13.785 36.4713 13.3196 36.6647 12.8339 36.6661Z" fill="#1F85B7"/>
</g>
<defs>
<clipPath id="clip0_2446_970">
<rect width="44" height="44" fill="white"/>
</clipPath>
</defs>
</svg>
