<svg width="232" height="205" viewBox="0 0 232 205" fill="none" xmlns="http://www.w3.org/2000/svg">
<g clip-path="url(#clip0_2414_389)">
<path d="M31.4387 175.867C31.3805 175.867 31.3246 175.844 31.2833 175.803C30.9736 175.495 30.4686 169.848 29.1086 153.035C28.5522 146.156 28.0265 139.658 27.6429 135.709C27.6156 135.427 27.5055 135.394 27.4694 135.384C26.9444 135.226 25.3475 136.477 24.456 137.573C24.4193 137.618 24.3661 137.647 24.3081 137.653C24.2501 137.659 24.192 137.642 24.1467 137.605C24.1013 137.569 24.0724 137.516 24.0662 137.458C24.0601 137.401 24.0772 137.343 24.1139 137.298C24.7035 136.574 26.625 134.675 27.5958 134.965C27.7917 135.024 28.0355 135.193 28.0808 135.667C28.4647 139.619 28.9903 146.119 29.547 153C30.3734 163.217 31.3097 174.792 31.6173 175.521C31.6408 175.554 31.6549 175.592 31.6579 175.632C31.6609 175.672 31.6527 175.712 31.6343 175.748C31.6158 175.784 31.5878 175.814 31.5533 175.835C31.5188 175.856 31.4792 175.867 31.4387 175.867Z" fill="#494949"/>
<path d="M27.0787 142.956C30.7268 140.05 31.9359 135.528 29.7794 132.854C27.6228 130.181 22.9172 130.369 19.2691 133.275C15.6211 136.181 14.4119 140.703 16.5685 143.377C18.725 146.05 23.4306 145.861 27.0787 142.956Z" fill="#0CBC8B"/>
<path opacity="0.2" d="M27.0787 142.956C30.7268 140.05 31.9359 135.528 29.7794 132.854C27.6228 130.181 22.9172 130.369 19.2691 133.275C15.6211 136.181 14.4119 140.703 16.5685 143.377C18.725 146.05 23.4306 145.861 27.0787 142.956Z" fill="white"/>
<path d="M17.5907 144.056C17.5698 144.056 17.5494 144.05 17.5318 144.039C17.5142 144.028 17.5002 144.012 17.4914 143.993C17.4825 143.974 17.4792 143.953 17.4818 143.933C17.4845 143.912 17.4929 143.893 17.5062 143.877L27.903 131.419C27.9218 131.398 27.9484 131.384 27.9771 131.382C28.0058 131.379 28.0344 131.388 28.0565 131.407C28.0787 131.425 28.0927 131.451 28.0956 131.48C28.0985 131.508 28.0901 131.537 28.0721 131.559L17.6753 144.017C17.665 144.029 17.652 144.039 17.6374 144.046C17.6228 144.052 17.6068 144.056 17.5907 144.056Z" fill="white"/>
<path d="M33.7065 173.196C33.6714 173.196 33.6368 173.188 33.6056 173.172C33.5744 173.156 33.5475 173.133 33.5272 173.104C33.5069 173.076 33.4937 173.043 33.4887 173.009C33.4838 172.974 33.4872 172.939 33.4988 172.906L37.4041 161.746C37.5191 161.418 37.715 161.124 37.974 160.891C38.2329 160.658 38.5467 160.493 38.8864 160.411C39.2261 160.33 39.5809 160.335 39.9184 160.425C40.2559 160.515 40.5653 160.688 40.8181 160.927L42.8827 162.887C42.9248 162.927 42.9493 162.982 42.9506 163.04C42.9519 163.098 42.93 163.154 42.8897 163.196C42.8494 163.238 42.794 163.262 42.7357 163.264C42.6774 163.265 42.621 163.243 42.5788 163.203L40.5143 161.243C40.3147 161.054 40.0705 160.918 39.8041 160.847C39.5377 160.776 39.2576 160.772 38.9895 160.836C38.7214 160.901 38.4738 161.031 38.2693 161.215C38.0649 161.399 37.9102 161.631 37.8194 161.89L33.914 173.049C33.8991 173.092 33.871 173.129 33.8339 173.156C33.7967 173.182 33.7522 173.196 33.7065 173.196Z" fill="#494949"/>
<path d="M48.6508 169.065C51.3544 166.939 51.1937 162.262 48.2919 158.619C45.3902 154.977 40.8461 153.748 38.1426 155.874C35.439 158 35.5997 162.677 38.5014 166.32C41.4032 169.962 45.9472 171.192 48.6508 169.065Z" fill="#0CBC8B"/>
<path d="M29.6646 175.155C29.6152 175.155 29.5672 175.138 29.5285 175.108C29.4897 175.077 29.4624 175.035 29.4509 174.987L22.8973 147.759C22.8525 147.573 22.757 147.404 22.6215 147.268C22.4859 147.133 22.3154 147.038 22.1288 146.993C21.9421 146.948 21.7466 146.954 21.5636 147.012C21.3807 147.071 21.2174 147.178 21.0917 147.322L19.0715 149.642C19.0526 149.663 19.0296 149.681 19.0038 149.694C18.978 149.707 18.9499 149.715 18.9211 149.717C18.8923 149.719 18.8633 149.715 18.8359 149.706C18.8085 149.697 18.7832 149.683 18.7613 149.664C18.7395 149.645 18.7216 149.622 18.7086 149.597C18.6957 149.571 18.688 149.543 18.6859 149.515C18.6838 149.486 18.6874 149.457 18.6965 149.43C18.7056 149.403 18.72 149.378 18.7389 149.356L20.7591 147.036C20.9377 146.831 21.1699 146.679 21.43 146.596C21.69 146.514 21.968 146.504 22.2332 146.568C22.4985 146.633 22.7407 146.768 22.9333 146.961C23.1259 147.153 23.2614 147.394 23.3249 147.658L29.8785 174.887C29.8921 174.943 29.8825 175.002 29.852 175.052C29.8215 175.101 29.7725 175.136 29.7158 175.15C29.699 175.154 29.6818 175.155 29.6646 175.155Z" fill="#494949"/>
<path d="M27.2464 155.691C28.0431 151.113 25.9346 146.929 22.537 146.345C19.1394 145.761 15.7393 148.999 14.9426 153.576C14.1459 158.154 16.2544 162.339 19.652 162.922C23.0495 163.506 26.4497 160.268 27.2464 155.691Z" fill="#0CBC8B"/>
<path d="M31.4392 175.867C31.4301 175.867 31.421 175.866 31.412 175.865C31.3833 175.862 31.3556 175.852 31.3304 175.838C31.3053 175.824 31.2832 175.805 31.2654 175.783C31.2476 175.76 31.2345 175.734 31.2268 175.706C31.2191 175.679 31.2169 175.65 31.2205 175.621L35.4057 141.859C35.4512 141.491 35.6027 141.144 35.842 140.86C36.0812 140.575 36.398 140.366 36.7542 140.256C37.1104 140.146 37.491 140.141 37.8501 140.241C38.2091 140.342 38.5315 140.543 38.7783 140.82L43.5618 146.204C43.5809 146.225 43.5956 146.25 43.6049 146.277C43.6143 146.304 43.6182 146.333 43.6165 146.362C43.6147 146.39 43.6072 146.418 43.5945 146.444C43.5818 146.47 43.5642 146.493 43.5425 146.512C43.5209 146.531 43.4957 146.546 43.4683 146.555C43.441 146.564 43.4121 146.568 43.3833 146.566C43.3544 146.565 43.3262 146.557 43.3003 146.545C43.2743 146.532 43.2511 146.515 43.232 146.493L38.449 141.11C38.2583 140.895 38.0091 140.74 37.7316 140.662C37.4541 140.585 37.16 140.589 36.8847 140.674C36.6094 140.758 36.3645 140.92 36.1796 141.14C35.9947 141.36 35.8775 141.628 35.8423 141.912L31.6571 175.675C31.6505 175.728 31.6247 175.776 31.5846 175.812C31.5445 175.847 31.4928 175.866 31.4392 175.867Z" fill="#494949"/>
<path d="M48.4677 149.195C50.1367 146.197 48.173 141.944 44.0818 139.695C39.9905 137.447 35.321 138.054 33.652 141.052C31.9831 144.05 33.9467 148.303 38.038 150.552C42.1292 152.801 46.7988 152.193 48.4677 149.195Z" fill="#0CBC8B"/>
<path opacity="0.2" d="M48.6508 169.065C51.3544 166.939 51.1937 162.262 48.2919 158.619C45.3902 154.977 40.8461 153.748 38.1426 155.874C35.439 158 35.5997 162.677 38.5014 166.32C41.4032 169.962 45.9472 171.192 48.6508 169.065Z" fill="white"/>
<path opacity="0.5" d="M27.2464 155.691C28.0431 151.113 25.9346 146.929 22.537 146.345C19.1394 145.761 15.7393 148.999 14.9426 153.576C14.1459 158.154 16.2544 162.339 19.652 162.922C23.0495 163.506 26.4497 160.268 27.2464 155.691Z" fill="white"/>
<path opacity="0.5" d="M48.4677 149.195C50.1367 146.197 48.173 141.944 44.0818 139.695C39.9905 137.447 35.321 138.054 33.652 141.052C31.9831 144.05 33.9467 148.303 38.038 150.552C42.1292 152.801 46.7988 152.193 48.4677 149.195Z" fill="white"/>
<path d="M36.7916 204.514H26.0859L24.3118 170.479H38.5655L36.7916 204.514Z" fill="#292A2E"/>
<path opacity="0.3" d="M36.7916 204.514H26.0859L24.3118 170.479H38.5655L36.7916 204.514Z" fill="white"/>
<path d="M48.6514 169.174C48.6348 169.174 48.6184 169.17 48.6034 169.163C48.5884 169.155 48.5753 169.145 48.565 169.132L38.0564 155.941C38.0474 155.929 38.0407 155.917 38.0368 155.903C38.0328 155.889 38.0317 155.875 38.0333 155.86C38.035 155.846 38.0395 155.832 38.0465 155.82C38.0535 155.807 38.063 155.796 38.0743 155.787C38.0856 155.778 38.0986 155.772 38.1124 155.768C38.1263 155.764 38.1409 155.763 38.1552 155.764C38.1695 155.766 38.1834 155.77 38.196 155.777C38.2086 155.784 38.2197 155.794 38.2287 155.805L48.7374 168.996C48.7502 169.012 48.7583 169.032 48.7605 169.052C48.7628 169.073 48.7593 169.093 48.7503 169.112C48.7413 169.13 48.7273 169.146 48.7098 169.157C48.6923 169.168 48.6721 169.173 48.6514 169.174Z" fill="white"/>
<path d="M47.7689 150.252C47.7455 150.252 47.7228 150.244 47.7041 150.23L34.257 140.474C34.2453 140.465 34.2354 140.455 34.2279 140.443C34.2204 140.43 34.2154 140.417 34.2132 140.402C34.2109 140.388 34.2115 140.374 34.215 140.36C34.2184 140.346 34.2245 140.333 34.233 140.321C34.2415 140.31 34.2523 140.3 34.2646 140.292C34.2769 140.285 34.2906 140.28 34.3049 140.278C34.3192 140.275 34.3337 140.276 34.3478 140.279C34.3618 140.283 34.375 140.289 34.3867 140.297L47.8338 150.054C47.8523 150.068 47.8659 150.087 47.8728 150.109C47.8796 150.131 47.8794 150.154 47.8721 150.176C47.8648 150.198 47.8508 150.217 47.8321 150.23C47.8134 150.243 47.7909 150.251 47.7678 150.251L47.7689 150.252Z" fill="white"/>
<path d="M19.1065 162.78C19.0969 162.78 19.0874 162.779 19.0781 162.776C19.05 162.769 19.0259 162.751 19.0114 162.725C18.9968 162.7 18.9928 162.671 19.0003 162.643L23.2811 146.706C23.2843 146.692 23.2904 146.678 23.299 146.666C23.3076 146.654 23.3186 146.644 23.3313 146.636C23.344 146.628 23.3582 146.623 23.3729 146.621C23.3876 146.619 23.4026 146.62 23.417 146.624C23.4313 146.628 23.4448 146.634 23.4564 146.643C23.4681 146.653 23.4779 146.664 23.485 146.677C23.4921 146.69 23.4965 146.704 23.498 146.719C23.4994 146.734 23.4978 146.748 23.4933 146.762L19.2125 162.699C19.2062 162.722 19.1925 162.743 19.1733 162.757C19.1541 162.772 19.1307 162.78 19.1065 162.78Z" fill="white"/>
<path d="M100.017 173.541H62.8322L57.0062 177.877V154.926C57.0062 154.069 57.349 153.247 57.9592 152.64C58.5694 152.034 59.397 151.693 60.26 151.693H100.017C100.88 151.693 101.708 152.034 102.318 152.64C102.928 153.247 103.271 154.069 103.271 154.926V170.308C103.271 170.732 103.187 171.153 103.024 171.545C102.86 171.937 102.62 172.294 102.318 172.594C102.016 172.894 101.657 173.132 101.263 173.295C100.868 173.457 100.445 173.541 100.017 173.541Z" fill="#F4F4F4"/>
<path d="M99.1596 156.555H61.1187C61.1004 156.556 61.0822 156.553 61.065 156.546C61.0479 156.54 61.0323 156.53 61.0191 156.518C61.0059 156.505 60.9954 156.49 60.9882 156.473C60.9811 156.456 60.9774 156.438 60.9774 156.42C60.9774 156.402 60.9811 156.384 60.9882 156.367C60.9954 156.351 61.0059 156.335 61.0191 156.323C61.0323 156.31 61.0479 156.3 61.065 156.294C61.0822 156.287 61.1004 156.285 61.1187 156.285H99.1596C99.1779 156.285 99.1961 156.287 99.2132 156.294C99.2303 156.3 99.246 156.31 99.2592 156.323C99.2724 156.335 99.2829 156.351 99.29 156.367C99.2972 156.384 99.3009 156.402 99.3009 156.42C99.3009 156.438 99.2972 156.456 99.29 156.473C99.2829 156.49 99.2724 156.505 99.2592 156.518C99.246 156.53 99.2303 156.54 99.2132 156.546C99.1961 156.553 99.1779 156.556 99.1596 156.555Z" fill="white"/>
<path d="M99.1596 160.906H61.1187C61.1004 160.907 61.0822 160.904 61.065 160.897C61.0479 160.891 61.0323 160.881 61.0191 160.869C61.0059 160.856 60.9954 160.841 60.9882 160.824C60.9811 160.807 60.9774 160.789 60.9774 160.771C60.9774 160.753 60.9811 160.735 60.9882 160.718C60.9954 160.702 61.0059 160.686 61.0191 160.674C61.0323 160.661 61.0479 160.651 61.065 160.645C61.0822 160.639 61.1004 160.636 61.1187 160.636H99.1596C99.1779 160.636 99.1961 160.639 99.2132 160.645C99.2303 160.651 99.246 160.661 99.2592 160.674C99.2724 160.686 99.2829 160.702 99.29 160.718C99.2972 160.735 99.3009 160.753 99.3009 160.771C99.3009 160.789 99.2972 160.807 99.29 160.824C99.2829 160.841 99.2724 160.856 99.2592 160.869C99.246 160.881 99.2303 160.891 99.2132 160.897C99.1961 160.904 99.1779 160.907 99.1596 160.906Z" fill="white"/>
<path d="M99.1596 165.257H61.1187C61.0827 165.257 61.0482 165.243 61.0228 165.217C60.9973 165.192 60.983 165.158 60.983 165.122C60.983 165.086 60.9973 165.052 61.0228 165.027C61.0482 165.002 61.0827 164.987 61.1187 164.987H99.1596C99.1955 164.987 99.23 165.002 99.2555 165.027C99.2809 165.052 99.2952 165.086 99.2952 165.122C99.2952 165.158 99.2809 165.192 99.2555 165.217C99.23 165.243 99.1955 165.257 99.1596 165.257Z" fill="white"/>
<path d="M91.0158 169.608H61.1187C61.1004 169.609 61.0822 169.606 61.065 169.6C61.0479 169.593 61.0323 169.583 61.0191 169.571C61.0059 169.558 60.9954 169.543 60.9882 169.526C60.9811 169.51 60.9774 169.492 60.9774 169.473C60.9774 169.455 60.9811 169.437 60.9882 169.42C60.9954 169.404 61.0059 169.389 61.0191 169.376C61.0323 169.363 61.0479 169.354 61.065 169.347C61.0822 169.341 61.1004 169.338 61.1187 169.338H91.0158C91.0341 169.338 91.0523 169.341 91.0695 169.347C91.0866 169.354 91.1022 169.363 91.1154 169.376C91.1286 169.389 91.1391 169.404 91.1463 169.42C91.1534 169.437 91.1571 169.455 91.1571 169.473C91.1571 169.492 91.1534 169.51 91.1463 169.526C91.1391 169.543 91.1286 169.558 91.1154 169.571C91.1022 169.583 91.0866 169.593 91.0695 169.6C91.0523 169.606 91.0341 169.609 91.0158 169.608Z" fill="white"/>
<path d="M65.5143 113.782H8.79174L1.60541 119.13V90.8177C1.60547 89.7597 2.02848 88.7451 2.7814 87.997C3.53432 87.2489 4.55548 86.8286 5.62024 86.8286H65.5143C66.579 86.8286 67.6002 87.2489 68.353 87.997C69.1059 88.7451 69.5289 89.7597 69.5289 90.8177V109.793C69.5288 110.851 69.1059 111.865 68.353 112.613C67.6001 113.361 66.579 113.782 65.5143 113.782Z" fill="#F4F4F4"/>
<path d="M64.4568 92.8271H6.67857C6.63414 92.8271 6.59153 92.8095 6.56011 92.7783C6.5287 92.7471 6.51105 92.7048 6.51105 92.6606C6.51105 92.6165 6.5287 92.5741 6.56011 92.5429C6.59153 92.5117 6.63414 92.4941 6.67857 92.4941H64.4568C64.5013 92.4941 64.5439 92.5117 64.5753 92.5429C64.6067 92.5741 64.6243 92.6165 64.6243 92.6606C64.6243 92.7048 64.6067 92.7471 64.5753 92.7783C64.5439 92.8095 64.5013 92.8271 64.4568 92.8271Z" fill="white"/>
<path d="M64.4568 98.1946H6.6786C6.6561 98.1954 6.63367 98.1917 6.61265 98.1837C6.59162 98.1757 6.57244 98.1636 6.55624 98.1481C6.54003 98.1326 6.52715 98.1139 6.51834 98.0934C6.50954 98.0728 6.505 98.0506 6.505 98.0283C6.505 98.0059 6.50954 97.9838 6.51834 97.9632C6.52715 97.9426 6.54003 97.924 6.55624 97.9085C6.57244 97.8929 6.59162 97.8808 6.61265 97.8728C6.63367 97.8648 6.6561 97.8611 6.6786 97.8619H64.4568C64.5002 97.8635 64.5413 97.8817 64.5714 97.9127C64.6015 97.9437 64.6183 97.9852 64.6183 98.0283C64.6183 98.0714 64.6015 98.1128 64.5714 98.1438C64.5413 98.1749 64.5002 98.1931 64.4568 98.1946Z" fill="white"/>
<path d="M64.4568 103.562H6.6786C6.6561 103.563 6.63367 103.559 6.61265 103.551C6.59162 103.543 6.57244 103.531 6.55624 103.515C6.54003 103.5 6.52715 103.481 6.51834 103.461C6.50954 103.44 6.505 103.418 6.505 103.395C6.505 103.373 6.50954 103.351 6.51834 103.33C6.52715 103.31 6.54003 103.291 6.55624 103.276C6.57244 103.26 6.59162 103.248 6.61265 103.24C6.63367 103.232 6.6561 103.228 6.6786 103.229H64.4568C64.5002 103.231 64.5413 103.249 64.5714 103.28C64.6015 103.311 64.6183 103.352 64.6183 103.395C64.6183 103.439 64.6015 103.48 64.5714 103.511C64.5413 103.542 64.5002 103.56 64.4568 103.562Z" fill="white"/>
<path d="M54.4098 108.93H6.67857C6.63414 108.93 6.59153 108.912 6.56011 108.881C6.5287 108.85 6.51105 108.807 6.51105 108.763C6.51105 108.719 6.5287 108.677 6.56011 108.645C6.59153 108.614 6.63414 108.597 6.67857 108.597H54.4098C54.4543 108.597 54.4969 108.614 54.5283 108.645C54.5597 108.677 54.5774 108.719 54.5774 108.763C54.5774 108.807 54.5597 108.85 54.5283 108.881C54.4969 108.912 54.4543 108.93 54.4098 108.93Z" fill="white"/>
<path d="M101.582 132.009H169.211L177.779 138.388V104.63C177.779 103.369 177.275 102.159 176.377 101.268C175.479 100.376 174.262 99.875 172.993 99.875H101.582C100.313 99.8752 99.0957 100.376 98.1983 101.268C97.3008 102.16 96.7965 103.369 96.7962 104.63V127.253C96.7964 128.514 97.3006 129.724 98.1981 130.616C99.0956 131.507 100.313 132.009 101.582 132.009Z" fill="#F4F4F4"/>
<path d="M102.844 107.026H171.731C171.783 107.024 171.832 107.002 171.868 106.965C171.904 106.928 171.924 106.879 171.924 106.827C171.924 106.776 171.904 106.726 171.868 106.689C171.832 106.652 171.783 106.631 171.731 106.629H102.844C102.792 106.631 102.743 106.652 102.707 106.689C102.671 106.726 102.651 106.776 102.651 106.827C102.651 106.879 102.671 106.928 102.707 106.965C102.743 107.002 102.792 107.024 102.844 107.026Z" fill="white"/>
<path d="M102.844 113.425H171.731C171.783 113.424 171.832 113.402 171.868 113.365C171.904 113.328 171.924 113.278 171.924 113.227C171.924 113.175 171.904 113.126 171.868 113.089C171.832 113.052 171.783 113.03 171.731 113.028H102.844C102.792 113.03 102.743 113.052 102.707 113.089C102.671 113.126 102.651 113.175 102.651 113.227C102.651 113.278 102.671 113.328 102.707 113.365C102.743 113.402 102.792 113.424 102.844 113.425Z" fill="white"/>
<path d="M102.844 119.825H171.731C171.783 119.823 171.832 119.802 171.868 119.765C171.904 119.728 171.924 119.678 171.924 119.627C171.924 119.575 171.904 119.526 171.868 119.489C171.832 119.452 171.783 119.43 171.731 119.428H102.844C102.792 119.43 102.743 119.452 102.707 119.489C102.671 119.526 102.651 119.575 102.651 119.627C102.651 119.678 102.671 119.728 102.707 119.765C102.743 119.802 102.792 119.823 102.844 119.825Z" fill="white"/>
<path d="M114.822 126.225H171.731C171.783 126.223 171.832 126.201 171.868 126.164C171.904 126.127 171.924 126.078 171.924 126.026C171.924 125.975 171.904 125.925 171.868 125.888C171.832 125.851 171.783 125.829 171.731 125.828H114.822C114.77 125.829 114.721 125.851 114.685 125.888C114.649 125.925 114.629 125.975 114.629 126.026C114.629 126.078 114.649 126.127 114.685 126.164C114.721 126.201 114.77 126.223 114.822 126.225Z" fill="white"/>
<path d="M155.75 74.1807H212.472L219.659 79.5294V51.2166C219.659 50.1589 219.236 49.1444 218.483 48.3963C217.731 47.6482 216.71 47.2278 215.645 47.2275H155.75C154.685 47.2277 153.664 47.6481 152.912 48.3961C152.159 49.1442 151.736 50.1588 151.736 51.2166V70.1913C151.736 71.2493 152.159 72.2639 152.912 73.012C153.664 73.7601 154.685 74.1805 155.75 74.1807Z" fill="#F4F4F4"/>
<path d="M156.808 53.226H214.586C214.63 53.226 214.673 53.2084 214.704 53.1772C214.736 53.146 214.753 53.1037 214.753 53.0595C214.753 53.0154 214.736 52.973 214.704 52.9418C214.673 52.9106 214.63 52.8931 214.586 52.8931H156.808C156.764 52.8931 156.721 52.9106 156.69 52.9418C156.658 52.973 156.641 53.0154 156.641 53.0595C156.641 53.1037 156.658 53.146 156.69 53.1772C156.721 53.2084 156.764 53.226 156.808 53.226Z" fill="white"/>
<path d="M156.808 58.5934H214.586C214.629 58.5919 214.67 58.5737 214.7 58.5426C214.73 58.5116 214.747 58.4702 214.747 58.4271C214.747 58.384 214.73 58.3426 214.7 58.3115C214.67 58.2805 214.629 58.2623 214.586 58.2607H156.808C156.765 58.2623 156.724 58.2805 156.694 58.3115C156.663 58.3426 156.647 58.384 156.647 58.4271C156.647 58.4702 156.663 58.5116 156.694 58.5426C156.724 58.5737 156.765 58.5919 156.808 58.5934Z" fill="white"/>
<path d="M156.808 63.9621H214.586C214.629 63.9605 214.67 63.9423 214.7 63.9113C214.73 63.8803 214.747 63.8388 214.747 63.7957C214.747 63.7526 214.73 63.7112 214.7 63.6802C214.67 63.6492 214.629 63.631 214.586 63.6294H156.808C156.765 63.631 156.724 63.6492 156.694 63.6802C156.663 63.7112 156.647 63.7526 156.647 63.7957C156.647 63.8388 156.663 63.8803 156.694 63.9113C156.724 63.9423 156.765 63.9605 156.808 63.9621Z" fill="white"/>
<path d="M166.855 69.3289H214.586C214.629 69.3273 214.67 69.3091 214.7 69.2781C214.73 69.2471 214.747 69.2057 214.747 69.1626C214.747 69.1194 214.73 69.078 214.7 69.047C214.67 69.016 214.629 68.9978 214.586 68.9962H166.855C166.832 68.9954 166.81 68.9991 166.789 69.0071C166.768 69.0151 166.749 69.0272 166.732 69.0427C166.716 69.0583 166.703 69.0769 166.694 69.0975C166.686 69.118 166.681 69.1402 166.681 69.1626C166.681 69.1849 166.686 69.2071 166.694 69.2276C166.703 69.2482 166.716 69.2668 166.732 69.2824C166.749 69.2979 166.768 69.31 166.789 69.318C166.81 69.326 166.832 69.3297 166.855 69.3289Z" fill="white"/>
<path d="M21.1018 105.372L134.447 105.372C137.446 105.372 139.878 102.956 139.878 99.9757V11.1198C139.878 8.13951 137.446 5.72348 134.447 5.72348L21.1018 5.72348C18.1024 5.72348 15.6709 8.13951 15.6709 11.1198L15.6709 99.9757C15.6709 102.956 18.1024 105.372 21.1018 105.372Z" fill="white"/>
<path d="M15.4898 99.976V11.1203C15.4915 9.64187 16.0833 8.22448 17.1354 7.17907C18.1875 6.13367 19.6139 5.54562 21.1018 5.54395H134.447C135.935 5.54568 137.361 6.13374 138.413 7.17914C139.465 8.22453 140.057 9.64189 140.059 11.1203V99.976C140.057 101.454 139.465 102.872 138.413 103.917C137.361 104.963 135.935 105.551 134.447 105.552H21.1018C19.6139 105.551 18.1874 104.963 17.1353 103.917C16.0832 102.872 15.4914 101.454 15.4898 99.976ZM21.1018 5.90373C19.7099 5.90529 18.3755 6.45539 17.3913 7.43335C16.4071 8.41131 15.8535 9.73725 15.8519 11.1203V99.976C15.8535 101.359 16.4071 102.685 17.3913 103.663C18.3755 104.641 19.7099 105.191 21.1018 105.193H134.447C135.839 105.191 137.173 104.641 138.157 103.663C139.141 102.685 139.695 101.359 139.697 99.976V11.1203C139.695 9.73724 139.141 8.41126 138.157 7.43329C137.173 6.45532 135.839 5.90523 134.447 5.90373H21.1018Z" fill="#292A2E"/>
<path d="M15.671 11.1193V16.5497H139.877V11.1193C139.877 9.6883 139.305 8.31588 138.286 7.30399C137.268 6.29211 135.887 5.72363 134.447 5.72363H21.1018C20.3887 5.72355 19.6825 5.86305 19.0236 6.13417C18.3647 6.40529 17.766 6.80272 17.2617 7.30376C16.7574 7.80481 16.3573 8.39965 16.0844 9.05433C15.8114 9.70901 15.671 10.4107 15.671 11.1193Z" fill="#292A2E"/>
<path d="M114.671 34.6694C114.707 34.5349 114.769 34.4089 114.855 34.2991C114.941 34.1894 115.048 34.0982 115.171 34.0311C115.293 33.964 115.429 33.9224 115.568 33.9089C115.707 33.8954 115.848 33.9102 115.981 33.9525C116.236 34.0431 116.447 34.2266 116.571 34.4659C116.695 34.7051 116.724 34.9823 116.65 35.2413L116.298 36.5789L119.354 32.8633C119.687 32.4443 120.365 32.1413 120.813 32.5433C120.995 32.6866 121.124 32.8873 121.177 33.1124C121.23 33.3375 121.204 33.5738 121.105 33.7828C121.11 33.785 121.115 33.7878 121.119 33.7911C121.122 33.794 121.125 33.797 121.127 33.8002L121.64 33.1541C121.734 33.0351 121.854 32.9385 121.991 32.8711C122.128 32.8038 122.278 32.7674 122.43 32.7647C122.583 32.7619 122.734 32.7928 122.873 32.8552C123.012 32.9175 123.135 33.0098 123.234 33.1252C123.388 33.3124 123.472 33.5467 123.472 33.7884C123.472 34.0301 123.388 34.2644 123.234 34.4517L123.016 34.7267C123.021 34.7369 123.025 34.748 123.026 34.7594C123.215 34.6089 123.451 34.5294 123.693 34.5348C123.935 34.5402 124.167 34.6302 124.349 34.7889C124.546 34.9737 124.665 35.2259 124.682 35.4946C124.699 35.7633 124.613 36.0284 124.441 36.2364L123.905 36.9123C123.916 36.9083 123.928 36.9067 123.94 36.9076C123.952 36.9085 123.964 36.9119 123.975 36.9176C123.986 36.9233 123.995 36.9311 124.003 36.9405C124.01 36.95 124.016 36.9609 124.019 36.9726C124.221 36.8866 124.445 36.8672 124.659 36.9171C124.873 36.967 125.066 37.0837 125.208 37.25C125.362 37.4372 125.446 37.6715 125.446 37.9132C125.446 38.1549 125.362 38.3892 125.208 38.5764L120.634 44.3384C119.994 45.1444 119.126 45.7421 118.142 46.055C117.158 46.3679 116.102 46.3818 115.11 46.0948L111.916 45.1701L114.671 34.6694Z" fill="#E98862"/>
<g opacity="0.2">
<path d="M118.099 37.4763C118.119 37.4913 118.144 37.4982 118.168 37.4954C118.193 37.4927 118.216 37.4805 118.231 37.4614L121.133 33.9241C121.149 33.9047 121.157 33.8798 121.154 33.8548C121.152 33.8299 121.139 33.8071 121.12 33.7912C121.1 33.7754 121.075 33.768 121.05 33.7705C121.025 33.773 121.002 33.7854 120.986 33.8048L118.084 37.3421C118.068 37.3616 118.061 37.3864 118.063 37.4113C118.066 37.4362 118.078 37.4591 118.098 37.4749L118.099 37.4763Z" fill="#0C0C0C"/>
</g>
<g opacity="0.2">
<path d="M119.635 38.7916C119.655 38.8067 119.679 38.8136 119.704 38.8108C119.729 38.8081 119.751 38.7958 119.767 38.7767L123.006 34.8291C123.022 34.8097 123.03 34.7848 123.027 34.7598C123.024 34.7349 123.012 34.7119 122.992 34.6961C122.973 34.6812 122.948 34.6743 122.923 34.6768C122.898 34.6793 122.875 34.691 122.859 34.7096L119.62 38.6572C119.604 38.6767 119.596 38.7016 119.599 38.7265C119.601 38.7515 119.614 38.7744 119.633 38.7903L119.635 38.7916Z" fill="#0C0C0C"/>
</g>
<g opacity="0.2">
<path d="M121.289 40.2253C121.308 40.2404 121.333 40.2473 121.358 40.2446C121.383 40.2418 121.405 40.2295 121.421 40.2104L124.005 37.0615C124.019 37.0419 124.026 37.0175 124.023 36.9934C124.02 36.9693 124.007 36.9472 123.988 36.9319C123.969 36.9165 123.945 36.909 123.921 36.9109C123.896 36.9129 123.874 36.9241 123.857 36.9422L121.274 40.0912C121.266 40.1008 121.26 40.1118 121.256 40.1237C121.253 40.1356 121.251 40.148 121.253 40.1604C121.254 40.1727 121.258 40.1847 121.264 40.1956C121.269 40.2065 121.277 40.2161 121.287 40.224L121.289 40.2253Z" fill="#0C0C0C"/>
</g>
<path d="M55.1039 26.9111C55.1039 26.9111 53.9095 32.8918 52.2569 34.9042C47.4994 40.6972 45.4318 47.6398 48.8851 51.8515C52.3385 56.0632 77.4502 59.3626 80.4685 51.0902C83.0095 44.1258 79.6724 42.9101 79.6111 36.886C79.5832 34.1601 79.2769 28.4123 79.2769 28.4123" fill="#0A0A0A"/>
<path d="M75.2973 47.7833C75.2533 47.7776 74.7683 55.7785 65.4154 55.0795C58.9405 54.5976 56.6319 47.7715 56.4835 47.7715C57.1815 47.624 58.357 47.4095 58.6672 47.2452C59.6866 46.7009 60.9483 46.1344 61.277 44.1671C61.4663 43.0331 61.1451 37.232 61.2438 36.0845L71.1828 38.2886C71.0441 40.7117 70.0719 46.3291 73.4789 47.3232C74.0457 47.4884 74.6562 47.6396 75.2973 47.7833Z" fill="#E98862"/>
<path opacity="0.5" d="M71.3222 45.0282C71.1666 44.5296 71.0663 44.0155 71.0232 43.4953C70.9143 42.3082 70.9364 41.1128 71.0892 39.9304C69.0691 39.6594 67.1659 38.8309 65.5959 37.5391C65.4114 38.2163 64.3964 41.1754 64.6774 41.8191C65.2079 43.0359 67.704 45.0282 71.3222 45.0282Z" fill="#0C0C0C"/>
<path d="M69.5953 43.1229C65.66 42.9942 60.8349 40.7997 60.4666 35.5233L60.1344 30.7611C59.7662 25.4847 62.2566 21.015 67.2574 20.6705C72.2572 20.326 76.2931 24.3459 76.6611 29.6223L76.8082 31.7301C76.9487 33.7558 76.6154 43.3525 69.5953 43.1229Z" fill="#E98862"/>
<path d="M69.1901 37.1426C69.7398 37.4135 70.883 37.7761 72.4694 37.2276C72.6424 37.1677 72.7743 37.3637 72.6866 37.5575C72.3502 38.3002 71.5812 39.1574 70.2311 38.8638C69.8845 38.8044 69.5665 38.635 69.3248 38.3811C69.0831 38.1272 68.9306 37.8024 68.89 37.4552C68.8538 37.2567 69.0358 37.0666 69.1901 37.1426Z" fill="white"/>
<path d="M75.4168 32.1389C75.7578 32.1389 76.0342 31.8643 76.0342 31.5255C76.0342 31.1867 75.7578 30.9121 75.4168 30.9121C75.0759 30.9121 74.7995 31.1867 74.7995 31.5255C74.7995 31.8643 75.0759 32.1389 75.4168 32.1389Z" fill="#0C0C0C"/>
<path d="M69.0806 32.1389C69.4216 32.1389 69.698 31.8643 69.698 31.5255C69.698 31.1867 69.4216 30.9121 69.0806 30.9121C68.7397 30.9121 68.4633 31.1867 68.4633 31.5255C68.4633 31.8643 68.7397 32.1389 69.0806 32.1389Z" fill="#0C0C0C"/>
<path opacity="0.5" d="M71.9945 36.1495H72.0042C72.2069 36.1342 72.4086 36.1077 72.6083 36.0702C72.9069 36.0121 73.3015 35.9042 73.2833 35.6405C73.2613 35.3397 72.2071 32.153 72.0869 31.7906C72.0754 31.7602 72.0525 31.7353 72.023 31.7213C71.9935 31.7073 71.9597 31.7051 71.9286 31.7153C71.8975 31.7255 71.8717 31.7473 71.8564 31.776C71.8411 31.8047 71.8376 31.8382 71.8466 31.8695C72.297 33.2267 73.0168 35.4555 73.0309 35.6578C72.9869 35.7452 72.4894 35.864 71.9866 35.8981C71.9542 35.9007 71.9241 35.9156 71.9024 35.9397C71.8808 35.9637 71.8693 35.9952 71.8703 36.0274C71.8713 36.0597 71.8848 36.0904 71.9079 36.113C71.931 36.1357 71.962 36.1487 71.9945 36.1493V36.1495Z" fill="#0C0C0C"/>
<path d="M56.0288 31.9254L60.5077 31.6415C63.9868 30.6969 65.6711 25.1039 65.6711 25.1039C65.6711 25.1039 69.2387 29.4838 79.2762 28.4117C79.2762 28.4117 78.9295 14.6387 64.0226 16.8787C59.2159 17.6009 55.3194 21.8696 54.9936 28.1489C54.7651 32.5491 56.0288 31.9254 56.0288 31.9254Z" fill="#0A0A0A"/>
<path d="M60.8894 37.1094C59.37 37.2141 58.0255 35.6838 57.9201 34.1739C57.8148 32.664 58.9884 31.7467 60.5077 31.6421L61.3614 32.5998L62.1968 37.0194L60.8894 37.1094Z" fill="#E98862"/>
<path d="M73.2934 29.2644C73.7546 29.0385 74.2684 28.9399 74.7811 28.9791C75.034 28.9966 75.2828 29.0519 75.5191 29.1431C75.7537 29.2324 75.9761 29.3507 76.1808 29.4953C76.2049 29.5115 76.2216 29.5365 76.2275 29.5648C76.2333 29.5931 76.2278 29.6226 76.2122 29.6469C76.1966 29.6713 76.172 29.6887 76.1437 29.6954C76.1154 29.702 76.0856 29.6975 76.0606 29.6827L76.0531 29.6783C75.8603 29.5532 75.6525 29.4526 75.4345 29.3788C75.2186 29.3049 74.9928 29.2638 74.7646 29.2567C74.3114 29.2396 73.8618 29.3421 73.4613 29.5536L73.4501 29.5597C73.4111 29.5811 73.3651 29.5863 73.3223 29.574C73.2795 29.5617 73.2434 29.533 73.2218 29.4943C73.2003 29.4555 73.1951 29.4099 73.2074 29.3673C73.2198 29.3248 73.2486 29.2888 73.2877 29.2674L73.2934 29.2644Z" fill="#0C0C0C"/>
<path d="M69.2693 29.8539C68.8439 29.6976 68.3845 29.6558 67.9377 29.7329C67.7125 29.77 67.4943 29.8408 67.2904 29.943C67.0841 30.0449 66.8916 30.1721 66.7173 30.3218L66.7109 30.327C66.6997 30.3365 66.6867 30.3436 66.6727 30.3481C66.6587 30.3525 66.644 30.3542 66.6293 30.353C66.6147 30.3518 66.6004 30.3477 66.5874 30.341C66.5743 30.3344 66.5627 30.3252 66.5532 30.314C66.5437 30.3029 66.5365 30.29 66.532 30.2761C66.5275 30.2622 66.5258 30.2475 66.5271 30.233C66.5283 30.2184 66.5324 30.2042 66.5391 30.1913C66.5458 30.1783 66.555 30.1667 66.5663 30.1573C66.7498 29.9868 66.9543 29.8401 67.1748 29.7204C67.3967 29.5987 67.6358 29.5109 67.884 29.4598C68.3869 29.3532 68.9093 29.3827 69.3968 29.5452C69.4389 29.5597 69.4735 29.5902 69.493 29.6301C69.5125 29.6699 69.5152 29.7158 69.5007 29.7576C69.4861 29.7995 69.4554 29.8339 69.4153 29.8533C69.3752 29.8726 69.329 29.8753 69.2869 29.8609L69.2814 29.8589L69.2693 29.8539Z" fill="#0C0C0C"/>
<path d="M65.6284 24.4937C65.6284 24.4937 66.4275 30.1681 60.5093 31.5255" stroke="#0C0C0C" stroke-width="0.5" stroke-miterlimit="10"/>
<path opacity="0.1" d="M69.1927 35.2211C69.1977 34.7478 68.6753 34.3586 68.0259 34.3518C67.3765 34.3449 66.8459 34.723 66.8409 35.1963C66.8358 35.6696 67.3582 36.0588 68.0076 36.0656C68.657 36.0725 69.1876 35.6944 69.1927 35.2211Z" fill="#0C0C0C"/>
<path opacity="0.1" d="M75.0095 35.0763C75.006 35.549 75.5281 35.9379 76.1775 35.9455C76.2898 35.9468 76.4018 35.9364 76.5119 35.9145C76.6144 35.3633 76.686 34.8297 76.7344 34.3334C76.5626 34.2664 76.3797 34.2319 76.1951 34.2316C75.5446 34.2237 75.0141 34.6027 75.0095 35.0763Z" fill="#0C0C0C"/>
<path d="M44.0164 95.3147L42.3238 105.567H84.536L82.9582 95.2529L44.0164 95.3147Z" fill="#262626"/>
<path d="M65.2008 53.0918C58.7212 52.7883 58.4484 47.3247 58.4484 47.3247C58.4484 47.3247 55.2387 47.5309 53.1037 47.8177C49.6095 48.2876 47.3046 49.4649 45.4702 51.2876C43.7638 52.9832 42.725 54.8175 43.8242 66.5299C44.6203 75.0105 44.0164 95.3158 44.0164 95.3158L82.9582 95.254C82.9582 95.254 86.5916 69.2148 86.9185 65.3968C87.5422 58.1091 86.2128 51.9484 84.6902 50.4354C81.5595 47.3247 76.1702 47.3247 73.478 47.3251C73.4349 47.3241 74.0247 53.5051 65.2008 53.0918Z" fill="#1F85B7"/>
<path d="M111.515 39.502L98.9228 62.4376L83.8963 49.7809L74.6562 60.6122L96.3724 78.9038L96.5276 79.0364C97.3451 79.7165 98.3078 80.2025 99.3427 80.4576C100.377 80.7127 101.457 80.7302 102.5 80.5087C103.542 80.2872 104.521 79.8325 105.36 79.1793C106.199 78.526 106.878 77.6913 107.344 76.7386L122.725 45.2382L111.515 39.502Z" fill="#1F85B7"/>
<path d="M47.7797 85.8582L50.1503 105.192H35.8619L33.4787 84.6524C33.4708 83.7721 33.6274 82.8981 33.9404 82.0747L44.2886 53.0474L57.8729 57.637L47.7797 85.8582Z" fill="#1F85B7"/>
<path d="M50.0413 105.206L47.6674 85.8439L47.6775 85.8181L54.2081 69.3501L54.4127 69.4305L47.8923 85.8725L50.2594 105.179L50.0413 105.206Z" fill="#0C0C0C"/>
<path d="M86.9765 64.5356L86.1884 70.7598L86.3771 70.7834L87.1652 64.5592L86.9765 64.5356Z" fill="#0C0C0C"/>
<path d="M226.303 205H6.36398C6.32316 205 6.28402 204.984 6.25516 204.955C6.2263 204.927 6.21008 204.888 6.21008 204.847C6.21008 204.807 6.2263 204.768 6.25516 204.739C6.28402 204.71 6.32316 204.694 6.36398 204.694H226.303C226.343 204.694 226.383 204.71 226.411 204.739C226.44 204.768 226.456 204.807 226.456 204.847C226.456 204.888 226.44 204.927 226.411 204.955C226.383 204.984 226.343 205 226.303 205Z" fill="#292A2E"/>
<g opacity="0.65">
<path d="M226.303 205H6.36398C6.32316 205 6.28402 204.984 6.25516 204.955C6.2263 204.927 6.21008 204.888 6.21008 204.847C6.21008 204.807 6.2263 204.768 6.25516 204.739C6.28402 204.71 6.32316 204.694 6.36398 204.694H226.303C226.343 204.694 226.383 204.71 226.411 204.739C226.44 204.768 226.456 204.807 226.456 204.847C226.456 204.888 226.44 204.927 226.411 204.955C226.383 204.984 226.343 205 226.303 205Z" fill="#292A2E"/>
</g>
<path opacity="0.49" d="M77.7742 100.33C83.4602 100.33 88.0696 95.7494 88.0696 90.0996C88.0696 84.4497 83.4602 79.8696 77.7742 79.8696C72.0882 79.8696 67.4788 84.4497 67.4788 90.0996C67.4788 95.7494 72.0882 100.33 77.7742 100.33Z" fill="white"/>
<path d="M77.7742 97.6756C81.985 97.6756 85.3985 94.2837 85.3985 90.0997C85.3985 85.9157 81.985 82.5239 77.7742 82.5239C73.5635 82.5239 70.15 85.9157 70.15 90.0997C70.15 94.2837 73.5635 97.6756 77.7742 97.6756Z" fill="white"/>
<path d="M82.9125 92.5928C83.0011 92.6517 83.0635 92.7421 83.0868 92.8454C83.1101 92.9486 83.0926 93.0569 83.0378 93.1477L82.5388 93.9741C82.4065 94.1976 82.1927 94.3619 81.9417 94.4328C81.1122 94.6591 79.2831 94.7046 76.3512 91.7915C73.4193 88.8785 73.4653 87.0604 73.6928 86.2364C73.7643 85.9869 73.9296 85.7743 74.1545 85.6426L74.9864 85.147C75.0778 85.0926 75.1867 85.0752 75.2906 85.0985C75.3946 85.1217 75.4855 85.1838 75.5446 85.2719L76.8707 87.2485C76.9286 87.335 76.9514 87.4401 76.9347 87.5427C76.9179 87.6453 76.8628 87.7378 76.7803 87.8018L76.0355 88.377C75.957 88.4368 75.9028 88.5226 75.8826 88.6188C75.8625 88.7151 75.8777 88.8153 75.9256 88.9012C76.1441 89.2918 76.3514 89.7521 77.3766 90.7725C78.4017 91.7929 78.8669 91.9973 79.26 92.2142C79.3464 92.2617 79.447 92.2768 79.5437 92.2568C79.6403 92.2367 79.7265 92.1829 79.7865 92.105L80.3658 91.3653C80.43 91.2833 80.5231 91.2283 80.6264 91.2116C80.7297 91.195 80.8356 91.2177 80.9227 91.2754L82.9125 92.5928Z" fill="#0CBC8B"/>
<path d="M195.138 113.661C184.191 113.661 175.317 116.628 175.317 120.289V128.179H214.959V120.289C214.959 116.628 206.085 113.661 195.138 113.661Z" fill="#1F85B7"/>
<path opacity="0.49" d="M195.138 113.661C184.191 113.661 175.317 116.628 175.317 120.289V128.179H214.959V120.289C214.959 116.628 206.085 113.661 195.138 113.661Z" fill="white"/>
<path opacity="0.49" d="M209.559 120.289V128.179H175.317V120.289C175.317 116.934 182.77 114.162 192.438 113.724C202.107 114.161 209.559 116.934 209.559 120.289Z" fill="white"/>
<path d="M214.959 204.849L215.618 204.188L214.959 127.479L214.299 128.14L214.77 182.185L191.287 182.582L190.813 128.135L190.154 128.14L190.628 182.593L176.452 182.833L175.976 128.135L175.317 127.485L175.976 204.194L176.636 204.844L176.458 183.488L190.633 183.249L190.813 204.849L191.473 204.844L191.293 183.238L214.775 182.841L214.959 204.849Z" fill="#292A2E"/>
<path d="M154.403 193.263C154.403 193.263 153.224 199.335 147.503 199.673C141.782 200.012 143.023 204.54 143.023 204.54H164.885V193.687L154.403 193.263Z" fill="#1F85B7"/>
<path d="M166.876 175.002C166.876 175.002 168.516 180.967 163.533 183.78C158.549 186.593 161.674 190.112 161.674 190.112L181.292 180.522L176.47 170.784L166.876 175.002Z" fill="#1F85B7"/>
<path d="M164.801 178.944L150.019 123.526C148.898 117.404 150.586 114.75 153.187 112.172C157.757 107.643 176.692 98.0033 176.692 98.0033L199.409 97.9419C205.432 97.9419 211.354 103.844 211.354 109.829C211.354 115.814 205.23 120.89 199.207 120.89L171.233 123.664L178.816 174.407L164.801 178.944Z" fill="#262626"/>
<path d="M178.816 174.406L175.831 154.43L160.707 163.597L164.801 178.944L178.816 174.406Z" fill="#0C0C0C"/>
<path d="M182.244 109.218C182.244 109.218 172.695 111.333 163.237 120.73C157.503 126.428 157.973 136.739 158.833 156.57L168.226 142.784L178.529 124.32L182.244 109.218Z" fill="#0C0C0C"/>
<path d="M215.308 97.9351L199.881 97.8628L199.875 98.0646H195.204C195.204 98.0646 183.503 108.764 174.081 115.506C167.229 120.41 163.048 125.085 162.687 130.181C161.805 142.602 151.86 195.578 151.86 195.578L166.827 197.83L179.961 134.521C179.961 134.521 200.5 125.113 205.251 121.838C209.724 118.755 212.884 117.564 214.365 114.199C216.921 108.387 215.308 97.9351 215.308 97.9351Z" fill="#262626"/>
<path d="M186.165 30.8391C186.165 30.8391 183.742 28.2293 183.929 23.2589C184.074 19.4105 187.114 22.4675 187.114 22.4675C187.114 22.4675 187.246 19.6973 189.179 20.3223C191.113 20.9473 191.707 23.989 191.707 23.989" fill="#0C0C0C"/>
<path d="M199.374 22.4819C199.374 22.4819 209.026 25.2999 203.054 37.9123L202.172 37.8136L200.383 37.6135" fill="#0C0C0C"/>
<path d="M185.697 50.9943C185.741 50.9886 186.229 59.0332 195.635 58.3326C202.147 57.8479 204.469 50.9829 204.618 50.9829C203.916 50.8346 203.048 50.6096 202.704 50.5325C201.952 50.3591 201.271 49.9625 200.752 49.3954C200.233 48.8284 199.9 48.1177 199.797 47.358C199.607 46.2175 199.929 40.3833 199.831 39.2295L189.835 41.4463C189.975 43.8831 190.953 49.5326 187.527 50.5325C186.955 50.6978 186.342 50.8499 185.697 50.9943Z" fill="#E98862"/>
<path opacity="0.52" d="M189.695 48.2238C189.851 47.7224 189.952 47.2054 189.995 46.6822C190.105 45.4883 190.083 44.286 189.929 43.0968C191.961 42.8243 193.875 41.9911 195.454 40.6919C195.639 41.373 196.66 44.349 196.377 44.9953C195.844 46.22 193.334 48.2238 189.695 48.2238Z" fill="#0C0C0C"/>
<path d="M191.326 45.662C195.27 46.0141 200.358 44.4131 201.378 39.1913L202.299 34.4795C203.319 29.2586 201.386 24.4923 196.438 23.5377C191.49 22.583 186.965 26.1025 185.944 31.3243L185.537 33.4102C185.409 34.1289 185.331 34.8553 185.303 35.5845C185.215 37.511 185.089 40.4415 186.021 42.6072C186.901 44.651 188.807 45.4374 191.326 45.662Z" fill="#E98862"/>
<path d="M188.395 40.0505C189.863 40.219 191.346 39.8965 192.609 39.1341C192.653 39.1079 192.703 39.0946 192.754 39.0958C192.805 39.097 192.855 39.1126 192.897 39.1409C192.94 39.1691 192.973 39.2089 192.994 39.2554C193.015 39.3019 193.021 39.3532 193.014 39.4035C192.873 40.2633 192.365 41.8322 190.53 41.9462C189.345 42.0198 188.535 41.0792 188.133 40.4607C188.105 40.4178 188.09 40.3679 188.09 40.3168C188.09 40.2657 188.104 40.2156 188.132 40.1724C188.159 40.1292 188.199 40.0948 188.245 40.0732C188.292 40.0516 188.344 40.0437 188.395 40.0505Z" fill="white"/>
<path d="M187.128 34.726C187.471 34.726 187.749 34.4498 187.749 34.1091C187.749 33.7684 187.471 33.4922 187.128 33.4922C186.786 33.4922 186.508 33.7684 186.508 34.1091C186.508 34.4498 186.786 34.726 187.128 34.726Z" fill="#0C0C0C"/>
<path d="M193.165 35.4272C193.507 35.4272 193.785 35.151 193.785 34.8103C193.785 34.4696 193.507 34.1934 193.165 34.1934C192.822 34.1934 192.544 34.4696 192.544 34.8103C192.544 35.151 192.822 35.4272 193.165 35.4272Z" fill="#0C0C0C"/>
<path d="M200.76 40.7233C202.264 41.0134 203.795 39.6502 204.087 38.1561C204.379 36.6619 203.321 35.6028 201.818 35.3125L200.847 36.1644L199.467 40.4742L200.76 40.7233Z" fill="#E98862"/>
<path d="M199.699 38.0468C199.699 38.0468 200.539 30.5492 198.362 29.6855C196.913 29.1103 192.876 30.5752 189.613 29.3266C188.184 28.7804 186.714 28.8914 186.445 29.5599C186.338 29.8246 186.137 25.7088 188.999 23.1274C191.278 21.0722 197.436 21.4836 200.039 22.7602C207.246 26.2947 202.069 35.6944 202.069 35.6944L201.265 38.1866L199.699 38.0468Z" fill="#0C0C0C"/>
<g opacity="0.52">
<path d="M189.805 38.6435L189.795 38.642C189.311 38.5498 188.507 38.3414 188.576 37.981C188.634 37.6824 190.078 34.6156 190.242 34.2674C190.249 34.252 190.259 34.2381 190.271 34.2265C190.283 34.215 190.298 34.2059 190.313 34.2C190.329 34.1941 190.346 34.1913 190.363 34.192C190.38 34.1926 190.396 34.1966 190.411 34.2037C190.427 34.2109 190.44 34.2209 190.452 34.2334C190.463 34.2459 190.471 34.2605 190.477 34.2763C190.482 34.2921 190.485 34.3089 190.483 34.3256C190.482 34.3423 190.478 34.3586 190.47 34.3735C189.83 35.7314 188.863 37.825 188.824 38.0284C188.855 38.1225 189.34 38.3014 189.842 38.3971C189.874 38.4034 189.902 38.4216 189.921 38.4478C189.939 38.4741 189.947 38.5065 189.942 38.5383C189.937 38.57 189.92 38.5987 189.895 38.6184C189.869 38.6381 189.837 38.6472 189.805 38.644V38.6435Z" fill="#0C0C0C"/>
</g>
<path d="M189.462 31.1292C188.976 30.8982 188.438 30.8015 187.902 30.8493C187.639 30.8713 187.381 30.9324 187.136 31.0304C186.894 31.1262 186.666 31.2519 186.456 31.4046C186.415 31.4307 186.386 31.4718 186.376 31.5189C186.366 31.566 186.375 31.6153 186.401 31.6558C186.427 31.6964 186.468 31.7249 186.516 31.7352C186.563 31.7454 186.613 31.7365 186.654 31.7105L186.666 31.7028C186.857 31.5821 187.062 31.4856 187.276 31.4156C187.488 31.3455 187.708 31.3076 187.931 31.3033C188.369 31.2913 188.803 31.3946 189.189 31.6025L189.205 31.6117C189.237 31.6295 189.271 31.641 189.307 31.6455C189.343 31.65 189.379 31.6475 189.414 31.6381C189.449 31.6286 189.482 31.6124 189.51 31.5904C189.539 31.5685 189.563 31.5411 189.581 31.5099C189.599 31.4788 189.61 31.4444 189.615 31.4088C189.619 31.3732 189.617 31.337 189.607 31.3024C189.598 31.2678 189.581 31.2353 189.559 31.207C189.537 31.1786 189.51 31.1548 189.478 31.137C189.473 31.1351 189.467 31.132 189.462 31.1292Z" fill="#0C0C0C"/>
<path d="M193.021 32.084C193.444 31.9664 193.89 31.9618 194.315 32.0705C194.531 32.124 194.737 32.2096 194.928 32.3245C195.121 32.4402 195.299 32.5797 195.458 32.7396L195.468 32.7492C195.502 32.783 195.549 32.8021 195.597 32.8023C195.645 32.8025 195.691 32.7838 195.726 32.7503C195.76 32.7168 195.78 32.6712 195.78 32.6233C195.781 32.5755 195.763 32.5292 195.73 32.4947C195.559 32.2995 195.364 32.1264 195.15 31.9794C194.934 31.8298 194.696 31.7132 194.444 31.6336C193.933 31.4686 193.386 31.4436 192.861 31.5613C192.79 31.5778 192.729 31.6217 192.69 31.6833C192.652 31.7449 192.639 31.8191 192.656 31.8897C192.673 31.9603 192.717 32.0215 192.779 32.0597C192.841 32.0979 192.915 32.1102 192.987 32.0936C192.992 32.0923 192.998 32.091 193.003 32.0893L193.021 32.084Z" fill="#0C0C0C"/>
<path d="M194.22 24.1022C194.861 22.5324 194.51 20.9094 193.436 20.4771C192.363 20.0449 190.973 20.9671 190.333 22.5369C189.693 24.1068 190.044 25.7298 191.117 26.1621C192.191 26.5943 193.58 25.6721 194.22 24.1022Z" fill="#0C0C0C"/>
<path d="M174.01 68.707C174.307 72.1655 176.407 93.7435 176.692 98.0034H215.292C215.513 94.1611 216.509 77.36 217.35 69.8465C218.153 62.6767 219.278 59.414 218.354 57.1858C216.722 53.2561 211.532 51.5013 208.016 51.0284C205.87 50.7396 202.641 50.5327 202.641 50.5327C202.641 50.5327 202.368 56.0274 195.85 56.333C186.977 56.748 187.57 50.5327 187.526 50.5327C186.088 50.5327 178.264 51.5712 176.308 52.8384C173.544 54.628 172.728 57.067 172.695 59.3076C172.658 61.887 173.674 64.7843 174.01 68.707Z" fill="#1F85B7"/>
<path d="M140.012 50.2077C139.948 50.0838 139.86 49.974 139.753 49.885C139.645 49.7961 139.52 49.7298 139.386 49.6903C139.252 49.6507 139.111 49.6388 138.972 49.6551C138.833 49.6714 138.699 49.7157 138.578 49.7853C138.348 49.9281 138.182 50.1522 138.112 50.4123C138.042 50.6725 138.074 50.9493 138.202 51.1868L138.832 52.4189L135.047 49.4379C134.632 49.0993 133.904 48.9475 133.552 49.4351C133.404 49.6139 133.322 49.8371 133.319 50.0683C133.316 50.2995 133.391 50.525 133.533 50.708C133.529 50.7112 133.525 50.7149 133.521 50.7191C133.519 50.7225 133.517 50.7261 133.516 50.7298L132.875 50.2075C132.758 50.1114 132.62 50.0424 132.472 50.0056C132.324 49.9689 132.169 49.9652 132.02 49.9948C131.87 50.0245 131.729 50.0868 131.607 50.1772C131.484 50.2677 131.383 50.3839 131.312 50.5177C131.202 50.7333 131.17 50.98 131.222 51.2161C131.274 51.4522 131.407 51.6632 131.597 51.8133L131.87 52.0357C131.867 52.0468 131.866 52.0584 131.867 52.0698C131.65 51.9629 131.403 51.9353 131.167 51.9919C130.932 52.0485 130.724 52.1857 130.581 52.3793C130.428 52.6017 130.366 52.8735 130.407 53.1397C130.448 53.4058 130.589 53.6466 130.802 53.8132L131.472 54.3594C131.457 54.3582 131.442 54.3607 131.428 54.3665C131.414 54.3724 131.401 54.3815 131.392 54.393C131.381 54.4073 131.374 54.4245 131.373 54.4424C131.157 54.4014 130.934 54.4301 130.735 54.5245C130.537 54.6188 130.374 54.7738 130.271 54.9667C130.161 55.1823 130.129 55.429 130.181 55.6651C130.234 55.9012 130.366 56.1121 130.557 56.2623L136.264 60.92C137.063 61.5715 138.039 61.9713 139.068 62.0681C140.096 62.1649 141.131 61.9543 142.038 61.4633L144.96 59.882L140.012 50.2077Z" fill="#E98862"/>
<g opacity="0.2">
<path d="M137.265 53.6778C137.249 53.6967 137.227 53.7086 137.202 53.7111C137.177 53.7137 137.153 53.7066 137.133 53.6913L133.537 50.8515C133.528 50.8438 133.519 50.8342 133.513 50.8234C133.507 50.8125 133.503 50.8006 133.502 50.7883C133.501 50.776 133.502 50.7635 133.505 50.7516C133.509 50.7396 133.514 50.7285 133.522 50.7188C133.53 50.7091 133.539 50.701 133.55 50.695C133.561 50.6889 133.573 50.6851 133.586 50.6837C133.598 50.6823 133.611 50.6833 133.623 50.6868C133.635 50.6902 133.646 50.6959 133.656 50.7036L137.252 53.5434C137.261 53.5511 137.27 53.5607 137.276 53.5715C137.282 53.5824 137.286 53.5943 137.287 53.6066C137.288 53.6189 137.287 53.6314 137.284 53.6433C137.281 53.6552 137.275 53.6663 137.267 53.676L137.265 53.6778Z" fill="#0C0C0C"/>
</g>
<g opacity="0.2">
<path d="M136.049 55.2882C136.033 55.307 136.01 55.319 135.986 55.3215C135.961 55.3241 135.936 55.317 135.917 55.3017L131.903 52.1329C131.894 52.1252 131.886 52.1157 131.879 52.1048C131.873 52.094 131.87 52.0821 131.868 52.0697C131.867 52.0574 131.868 52.0449 131.871 52.033C131.875 52.0211 131.881 52.01 131.888 52.0003C131.904 51.9814 131.927 51.9693 131.952 51.9665C131.977 51.9636 132.002 51.9703 132.022 51.985L136.035 55.1538C136.045 55.1615 136.053 55.1711 136.059 55.1819C136.065 55.1928 136.069 55.2047 136.07 55.217C136.072 55.2293 136.071 55.2418 136.067 55.2537C136.064 55.2656 136.058 55.2767 136.05 55.2864L136.049 55.2882Z" fill="#0C0C0C"/>
</g>
<g opacity="0.2">
<path d="M134.742 57.0403C134.726 57.0592 134.703 57.0711 134.678 57.0736C134.654 57.0761 134.629 57.0689 134.61 57.0537L131.408 54.5253C131.388 54.5097 131.376 54.487 131.373 54.4621C131.37 54.4372 131.377 54.4122 131.393 54.3926C131.408 54.373 131.431 54.3604 131.456 54.3575C131.481 54.3547 131.507 54.3619 131.526 54.3774L134.728 56.9049C134.747 56.9205 134.76 56.9433 134.763 56.9682C134.766 56.9931 134.759 57.0181 134.743 57.0377L134.742 57.0403Z" fill="#0C0C0C"/>
</g>
<path d="M194.678 106.03C194.541 106.062 194.413 106.121 194.301 106.204C194.188 106.286 194.094 106.391 194.023 106.511C193.953 106.631 193.908 106.764 193.891 106.902C193.874 107.04 193.885 107.18 193.925 107.314C194.01 107.569 194.189 107.784 194.427 107.913C194.665 108.042 194.943 108.076 195.205 108.01L196.559 107.693L192.747 110.64C192.318 110.96 191.997 111.626 192.39 112.082C192.53 112.267 192.728 112.399 192.954 112.457C193.179 112.515 193.417 112.496 193.63 112.402C193.632 112.407 193.635 112.412 193.638 112.416C193.641 112.419 193.644 112.422 193.647 112.424L192.985 112.918C192.863 113.009 192.762 113.126 192.691 113.26C192.62 113.394 192.58 113.542 192.574 113.694C192.567 113.845 192.595 113.996 192.654 114.136C192.713 114.275 192.803 114.4 192.917 114.501C193.102 114.658 193.335 114.747 193.578 114.753C193.822 114.759 194.059 114.681 194.251 114.533L194.533 114.322C194.543 114.328 194.555 114.331 194.566 114.333C194.41 114.517 194.324 114.75 194.324 114.99C194.323 115.231 194.408 115.464 194.564 115.648C194.745 115.848 194.996 115.973 195.266 115.996C195.536 116.02 195.805 115.94 196.018 115.774L196.711 115.258C196.706 115.272 196.705 115.287 196.707 115.302C196.71 115.317 196.716 115.331 196.725 115.343C196.736 115.357 196.752 115.367 196.769 115.373C196.677 115.571 196.653 115.794 196.698 116.008C196.743 116.222 196.855 116.415 197.019 116.561C197.204 116.718 197.438 116.807 197.681 116.813C197.924 116.819 198.162 116.741 198.354 116.592L204.262 112.188C205.088 111.572 205.711 110.724 206.049 109.754C206.388 108.784 206.427 107.736 206.162 106.744L205.31 103.548L194.678 106.03Z" fill="#E98862"/>
<g opacity="0.2">
<path d="M197.419 109.504C197.433 109.524 197.44 109.549 197.436 109.574C197.433 109.598 197.42 109.62 197.4 109.635L193.77 112.433C193.761 112.44 193.749 112.446 193.737 112.449C193.725 112.452 193.713 112.453 193.7 112.452C193.688 112.45 193.676 112.446 193.665 112.44C193.654 112.434 193.645 112.426 193.637 112.416C193.629 112.406 193.624 112.395 193.621 112.383C193.617 112.371 193.616 112.358 193.618 112.346C193.619 112.334 193.623 112.322 193.63 112.311C193.636 112.3 193.644 112.291 193.654 112.283L197.284 109.487C197.304 109.471 197.329 109.464 197.354 109.468C197.379 109.471 197.402 109.484 197.417 109.503L197.419 109.504Z" fill="#0C0C0C"/>
</g>
<g opacity="0.2">
<path d="M198.704 111.061C198.719 111.081 198.726 111.106 198.722 111.13C198.719 111.155 198.706 111.177 198.686 111.192L194.636 114.314C194.616 114.33 194.591 114.337 194.566 114.334C194.541 114.33 194.518 114.318 194.503 114.298C194.488 114.278 194.482 114.253 194.485 114.228C194.488 114.204 194.501 114.181 194.52 114.165L198.57 111.043C198.59 111.028 198.615 111.021 198.64 111.024C198.665 111.027 198.688 111.04 198.703 111.06L198.704 111.061Z" fill="#0C0C0C"/>
</g>
<g opacity="0.2">
<path d="M200.107 112.738C200.122 112.758 200.128 112.783 200.125 112.807C200.121 112.832 200.109 112.854 200.089 112.869L196.857 115.36C196.837 115.374 196.812 115.38 196.788 115.376C196.764 115.372 196.742 115.36 196.727 115.34C196.712 115.321 196.705 115.297 196.707 115.272C196.71 115.248 196.722 115.226 196.741 115.21L199.972 112.72C199.992 112.704 200.017 112.697 200.042 112.7C200.067 112.704 200.09 112.716 200.106 112.736L200.107 112.738Z" fill="#0C0C0C"/>
</g>
<path d="M231.144 83.6346L231.072 83.4857L218.233 57.1123L205.369 63.2955L216.001 85.1354L197.653 103.427L206.509 112.623L229.579 91.7061C230.679 90.7067 231.425 89.3818 231.707 87.9279C231.989 86.4739 231.791 84.9684 231.144 83.6346Z" fill="#1F85B7"/>
<path d="M203.092 98.1122C203.07 98.1122 203.049 98.1057 203.031 98.0937C203.013 98.0816 202.999 98.0645 202.99 98.0445C202.982 98.0245 202.98 98.0025 202.984 97.9813C202.989 97.9601 202.999 97.9407 203.015 97.9254L216.085 85.113L206.368 65.7479C206.36 65.735 206.356 65.7207 206.354 65.706C206.352 65.6913 206.354 65.6764 206.358 65.6622C206.363 65.648 206.37 65.6349 206.379 65.6236C206.389 65.6122 206.401 65.603 206.414 65.5964C206.428 65.5898 206.442 65.586 206.457 65.5851C206.472 65.5843 206.487 65.5865 206.501 65.5916C206.515 65.5967 206.528 65.6045 206.539 65.6147C206.55 65.6248 206.558 65.6371 206.564 65.6507L216.318 85.0859C216.328 85.1066 216.332 85.1299 216.328 85.1526C216.324 85.1752 216.313 85.1961 216.296 85.2122L203.168 98.0801C203.148 98.1004 203.121 98.112 203.092 98.1122Z" fill="#0C0C0C"/>
<path d="M175.341 53.501L157.381 69.9679L144.161 53.5499L135.346 62.3597L150.109 82.6873C151.437 85.3244 154.296 86.9206 157.234 86.5021C158.371 86.34 159.451 85.8992 160.374 85.2196L160.708 84.9749L184.801 64.9409L175.341 53.501Z" fill="#1F85B7"/>
<path d="M174.529 73.4881C174.502 73.4884 174.476 73.4788 174.456 73.4614C174.436 73.4439 174.423 73.4197 174.419 73.3933L173.584 67.1675C173.58 67.139 173.588 67.1104 173.606 67.0877C173.624 67.065 173.65 67.0502 173.678 67.0464C173.707 67.0426 173.736 67.0501 173.759 67.0673C173.782 67.0845 173.797 67.1101 173.802 67.1385L174.637 73.3643C174.639 73.3785 174.638 73.393 174.634 73.4069C174.631 73.4208 174.624 73.4338 174.615 73.4453C174.607 73.4567 174.596 73.4663 174.583 73.4735C174.571 73.4807 174.557 73.4854 174.542 73.4872C174.538 73.4878 174.534 73.4881 174.529 73.4881Z" fill="#0C0C0C"/>
<path d="M159.598 73.2803C159.579 73.2804 159.559 73.2751 159.542 73.2652C159.525 73.2552 159.511 73.2409 159.502 73.2237L157.285 70.0204C157.271 69.995 157.267 69.9651 157.275 69.9373C157.284 69.9095 157.302 69.886 157.328 69.872C157.354 69.858 157.384 69.8547 157.412 69.8627C157.44 69.8708 157.463 69.8895 157.477 69.9149L159.694 73.1185C159.703 73.1351 159.708 73.1538 159.708 73.1727C159.708 73.1917 159.702 73.2103 159.693 73.2266C159.683 73.2429 159.669 73.2565 159.653 73.2659C159.636 73.2753 159.618 73.2803 159.598 73.2803Z" fill="#0C0C0C"/>
</g>
<defs>
<clipPath id="clip0_2414_389">
<rect width="231" height="205" fill="white" transform="translate(0.833313)"/>
</clipPath>
</defs>
</svg>
