<svg width="322" height="203" viewBox="0 0 322 203" fill="none" xmlns="http://www.w3.org/2000/svg">
<g clip-path="url(#clip0_2404_1272)">
<path d="M229.599 70.583H73.4794V174.234H229.599V70.583Z" fill="#DEE8F5"/>
<path opacity="0.55" d="M231.344 68.9189H70.0733V95.2607H231.344V68.9189Z" fill="#C1D8ED"/>
<path d="M258.744 181.505H44.3345V192.252H258.744V181.505Z" fill="#F3F5FD"/>
<path d="M251.222 170.757H51.8563V181.505H251.222V170.757Z" fill="#F3F5FD"/>
<path d="M251.222 178.629H51.8563V181.505H251.222V178.629Z" fill="#DEE8F5"/>
<path d="M258.744 189.377H44.3345V192.252H258.744V189.377Z" fill="#DEE8F5"/>
<path d="M265.935 192.252H37.4296V203H265.935V192.252Z" fill="#F3F5FD"/>
<path d="M265.935 200.125H37.4296V203H265.935V200.125Z" fill="#DEE8F5"/>
<path d="M84.2893 78.6621H67.0363V165.921H84.2893V78.6621Z" fill="#F3F5FD"/>
<path d="M127.812 78.6621H110.559V165.921H127.812V78.6621Z" fill="#F3F5FD"/>
<path d="M236.041 78.6621H218.788V165.921H236.041V78.6621Z" fill="#F3F5FD"/>
<path d="M61.8411 70.583H89.4854V80.4845C89.4854 80.8163 89.3534 81.1346 89.1185 81.3692C88.8836 81.6039 88.565 81.7357 88.2328 81.7357H63.0936C62.7614 81.7357 62.4429 81.6039 62.208 81.3692C61.9731 81.1346 61.8411 80.8163 61.8411 80.4845V70.583Z" fill="#C1D8ED"/>
<path d="M105.364 70.583H133.008V80.4845C133.008 80.8163 132.876 81.1346 132.641 81.3692C132.406 81.6039 132.088 81.7357 131.755 81.7357H106.616C106.284 81.7357 105.965 81.6039 105.731 81.3692C105.496 81.1346 105.364 80.8163 105.364 80.4845V70.583Z" fill="#C1D8ED"/>
<path d="M213.594 70.583H241.239V80.4845C241.239 80.8163 241.107 81.1346 240.872 81.3692C240.637 81.6039 240.318 81.7357 239.986 81.7357H214.846C214.513 81.7357 214.195 81.6039 213.96 81.3692C213.725 81.1346 213.593 80.8163 213.593 80.4845V70.583H213.594Z" fill="#C1D8ED"/>
<path d="M63.0936 162.934H88.2324C88.5646 162.934 88.8832 163.065 89.1181 163.3C89.353 163.535 89.4849 163.853 89.4849 164.185V170.757H61.8411V164.185C61.8411 163.853 61.9731 163.535 62.208 163.3C62.4429 163.065 62.7614 162.934 63.0936 162.934Z" fill="#C1D8ED"/>
<path d="M106.616 162.934H131.755C132.087 162.934 132.406 163.065 132.641 163.3C132.875 163.535 133.007 163.853 133.007 164.185V170.757H105.364V164.185C105.364 163.853 105.496 163.535 105.731 163.3C105.965 163.065 106.284 162.934 106.616 162.934Z" fill="#C1D8ED"/>
<path d="M214.846 162.934H239.984C240.317 162.934 240.635 163.065 240.87 163.3C241.105 163.535 241.237 163.853 241.237 164.185V170.757H213.594V164.185C213.594 163.853 213.726 163.535 213.961 163.301C214.195 163.066 214.514 162.934 214.846 162.934Z" fill="#C1D8ED"/>
<path d="M73.471 86.5232C73.471 86.0441 73.0823 85.6558 72.6027 85.6558C72.1232 85.6558 71.7344 86.0441 71.7344 86.5232V158.059C71.7344 158.538 72.1232 158.927 72.6027 158.927C73.0823 158.927 73.471 158.538 73.471 158.059V86.5232Z" fill="#C1D8ED"/>
<path d="M79.5917 86.5232C79.5917 86.0441 79.2029 85.6558 78.7234 85.6558C78.2438 85.6558 77.855 86.0441 77.855 86.5232V158.059C77.855 158.538 78.2438 158.927 78.7234 158.927C79.2029 158.927 79.5917 158.538 79.5917 158.059V86.5232Z" fill="#C1D8ED"/>
<path d="M116.994 86.5232C116.994 86.0441 116.605 85.6558 116.125 85.6558C115.646 85.6558 115.257 86.0441 115.257 86.5232V158.059C115.257 158.538 115.646 158.927 116.125 158.927C116.605 158.927 116.994 158.538 116.994 158.059V86.5232Z" fill="#C1D8ED"/>
<path d="M123.115 86.5232C123.115 86.0441 122.726 85.6558 122.246 85.6558C121.767 85.6558 121.378 86.0441 121.378 86.5232V158.059C121.378 158.538 121.767 158.927 122.246 158.927C122.726 158.927 123.115 158.538 123.115 158.059V86.5232Z" fill="#C1D8ED"/>
<path d="M193.862 78.6621H176.609V165.921H193.862V78.6621Z" fill="#F3F5FD"/>
<path d="M171.413 70.583H199.058V80.4845C199.058 80.8163 198.926 81.1346 198.691 81.3692C198.456 81.6039 198.137 81.7357 197.805 81.7357H172.666C172.334 81.7357 172.015 81.6039 171.78 81.3692C171.545 81.1346 171.413 80.8163 171.413 80.4845V70.583Z" fill="#C1D8ED"/>
<path d="M172.666 162.934H197.807C198.139 162.934 198.457 163.065 198.692 163.3C198.927 163.535 199.059 163.853 199.059 164.185V170.757H171.413V164.185C171.413 163.853 171.545 163.535 171.78 163.3C172.015 163.065 172.334 162.934 172.666 162.934Z" fill="#C1D8ED"/>
<path d="M183.043 86.5232C183.043 86.0441 182.654 85.6558 182.175 85.6558C181.695 85.6558 181.307 86.0441 181.307 86.5232V158.059C181.307 158.538 181.695 158.927 182.175 158.927C182.654 158.927 183.043 158.538 183.043 158.059V86.5232Z" fill="#C1D8ED"/>
<path d="M189.164 86.5232C189.164 86.0441 188.775 85.6558 188.295 85.6558C187.816 85.6558 187.427 86.0441 187.427 86.5232V158.059C187.427 158.538 187.816 158.927 188.295 158.927C188.775 158.927 189.164 158.538 189.164 158.059V86.5232Z" fill="#C1D8ED"/>
<path d="M225.223 86.5232C225.223 86.0441 224.834 85.6558 224.355 85.6558C223.875 85.6558 223.486 86.0441 223.486 86.5232V158.059C223.486 158.538 223.875 158.927 224.355 158.927C224.834 158.927 225.223 158.538 225.223 158.059V86.5232Z" fill="#C1D8ED"/>
<path d="M231.344 86.5232C231.344 86.0441 230.955 85.6558 230.475 85.6558C229.996 85.6558 229.607 86.0441 229.607 86.5232V158.059C229.607 158.538 229.996 158.927 230.475 158.927C230.955 158.927 231.344 158.538 231.344 158.059V86.5232Z" fill="#C1D8ED"/>
<path d="M248.78 66.6982V73.0449C248.78 73.3862 248.645 73.7136 248.403 73.955C248.162 74.1964 247.834 74.332 247.492 74.3322H55.1868C54.8451 74.3322 54.5173 74.1965 54.2756 73.9551C54.034 73.7137 53.8982 73.3863 53.8982 73.0449V66.9708C53.8982 66.6712 53.9715 66.3761 54.1118 66.1112C54.2521 65.8463 54.4551 65.6197 54.7031 65.4512L150.503 0.318386C150.808 0.110935 151.169 0 151.538 0C151.907 0 152.267 0.110935 152.573 0.318386L247.974 65.1785C248.222 65.3469 248.425 65.5734 248.566 65.8383C248.707 66.1032 248.78 66.3984 248.78 66.6982Z" fill="#DEE8F5"/>
<path d="M223.103 63.6206H79.9746C79.8687 63.6205 79.7656 63.5866 79.6805 63.5237C79.5953 63.4609 79.5325 63.3725 79.5014 63.2714C79.4702 63.1703 79.4722 63.0619 79.5072 62.9621C79.5422 62.8623 79.6083 62.7762 79.6958 62.7167L151.259 14.0607C151.341 14.0049 151.438 13.9751 151.537 13.9751C151.637 13.9751 151.734 14.0049 151.816 14.0607L223.382 62.7167C223.47 62.7762 223.536 62.8623 223.571 62.9621C223.606 63.0619 223.608 63.1703 223.577 63.2714C223.545 63.3725 223.483 63.4609 223.397 63.5237C223.312 63.5866 223.209 63.6205 223.103 63.6206Z" fill="#F3F5FD"/>
<path d="M90.8462 177.144H115.039C115.364 177.144 115.675 177.273 115.904 177.502C116.134 177.731 116.263 178.042 116.263 178.366V184.541C116.262 184.865 116.134 185.176 115.904 185.405C115.675 185.634 115.364 185.762 115.039 185.762H90.8462V177.144Z" fill="#DC8D83"/>
<path d="M60.7939 177.144H47.9691V185.763H60.7939V177.144Z" fill="#1F85B7"/>
<path d="M15.4979 177.144H47.8523V185.762H15.4979C15.1737 185.762 14.8629 185.633 14.6338 185.404C14.4047 185.175 14.276 184.865 14.276 184.541V178.366C14.276 178.042 14.4047 177.731 14.6338 177.502C14.8629 177.273 15.1737 177.144 15.4979 177.144Z" fill="#DC8D83"/>
<path opacity="0.15" d="M90.8462 177.144H115.039C115.364 177.144 115.675 177.273 115.904 177.502C116.134 177.731 116.263 178.042 116.263 178.366V184.541C116.262 184.865 116.134 185.176 115.904 185.405C115.675 185.634 115.364 185.762 115.039 185.762H90.8462V177.144Z" fill="#0F1011"/>
<path d="M60.7939 177.144H91.0498C91.3742 177.144 91.6853 177.273 91.9147 177.502C92.1441 177.731 92.273 178.042 92.273 178.366V184.541C92.2729 184.865 92.1439 185.176 91.9146 185.405C91.6852 185.634 91.3742 185.762 91.0498 185.762H60.7939V177.144Z" fill="#DC8D83"/>
<path d="M76.571 185.762H100.764C101.089 185.762 101.4 185.891 101.629 186.12C101.859 186.349 101.987 186.66 101.987 186.984V193.159C101.987 193.483 101.859 193.794 101.629 194.023C101.4 194.252 101.089 194.381 100.764 194.381H76.571V185.762Z" fill="#DC8D83"/>
<path d="M46.5192 185.762H33.6943V194.381H46.5192V185.762Z" fill="#1F85B7"/>
<path d="M1.22312 185.762H33.5776V194.381H1.22312C0.898727 194.381 0.587622 194.252 0.358243 194.023C0.128864 193.794 0 193.483 0 193.159L0 186.984C0 186.66 0.128864 186.349 0.358243 186.12C0.587622 185.891 0.898727 185.762 1.22312 185.762Z" fill="#DC8D83"/>
<path opacity="0.15" d="M76.571 185.762H100.764C101.089 185.762 101.4 185.891 101.629 186.12C101.859 186.349 101.987 186.66 101.987 186.984V193.159C101.987 193.483 101.859 193.794 101.629 194.023C101.4 194.252 101.089 194.381 100.764 194.381H76.571V185.762Z" fill="#0F1011"/>
<path d="M46.5188 185.762H76.7747C77.0991 185.762 77.4102 185.891 77.6396 186.12C77.869 186.349 77.9978 186.66 77.9978 186.984V193.159C77.9978 193.483 77.869 193.794 77.6396 194.023C77.4102 194.252 77.0991 194.381 76.7747 194.381H46.5188V185.762Z" fill="#DC8D83"/>
<path d="M81.4026 194.381H105.596C105.921 194.381 106.232 194.51 106.461 194.739C106.69 194.969 106.819 195.279 106.819 195.603V201.778C106.819 202.102 106.69 202.413 106.461 202.642C106.232 202.871 105.921 203 105.596 203H81.4026V194.381Z" fill="#DC8D83"/>
<path opacity="0.15" d="M81.4026 194.381H105.596C105.921 194.381 106.232 194.51 106.461 194.739C106.69 194.969 106.819 195.279 106.819 195.603V201.778C106.819 202.102 106.69 202.413 106.461 202.642C106.232 202.871 105.921 203 105.596 203H81.4026V194.381Z" fill="#0F1011"/>
<path d="M51.3508 194.381H38.5259V203H51.3508V194.381Z" fill="#1F85B7"/>
<path d="M6.05472 194.381H38.4092V203H6.05472C5.73033 203 5.41923 202.871 5.18985 202.642C4.96047 202.413 4.8316 202.102 4.8316 201.778V195.603C4.8316 195.279 4.96047 194.968 5.18985 194.739C5.41923 194.51 5.73033 194.381 6.05472 194.381Z" fill="#DC8D83"/>
<path d="M51.3517 194.381H81.6076C81.932 194.381 82.2431 194.51 82.4725 194.739C82.7018 194.968 82.8307 195.279 82.8307 195.603V201.778C82.8307 202.102 82.7018 202.413 82.4725 202.642C82.2431 202.871 81.932 203 81.6076 203H51.3517V194.381Z" fill="#DC8D83"/>
<path d="M50.6799 128.531C50.3569 128.191 49.9141 127.99 49.4454 127.97H35.9814C35.5128 127.989 35.0701 128.191 34.7474 128.531C29.0773 134.413 23.8982 140.749 19.2621 147.475C13.6517 155.77 14.5494 163.504 21.6189 170.678C27.2294 176.395 34.6353 177.179 42.7143 177.179C50.7932 177.179 58.1991 176.395 63.8096 170.678C70.8791 163.505 71.7769 155.77 66.166 147.475C61.498 140.772 56.3207 134.439 50.6799 128.531Z" fill="#1F85B7"/>
<path d="M62.463 111.156C60.4929 108.952 57.1947 110.894 53.9285 113.217C52.8843 113.958 51.5933 114.267 50.3263 114.078C49.0593 113.889 47.9149 113.217 47.1331 112.203C45.7088 110.366 44.1544 108.802 42.7142 108.802C41.3408 108.802 39.7751 110.363 38.3336 112.2C37.5349 113.209 36.3724 113.866 35.0949 114.03C33.8174 114.193 32.5266 113.851 31.4988 113.076C28.3362 110.693 25.1396 108.674 23.1897 110.934C17.8253 118.568 33.5129 129.887 34.9716 131.121C35.3075 131.345 50.2322 131.345 50.4569 131.121C51.9156 129.998 68.3149 117.847 62.463 111.156Z" fill="#1F85B7"/>
<path d="M52.5886 131.445H32.8399C32.6188 131.445 32.3999 131.402 32.1957 131.317C31.9915 131.233 31.8059 131.109 31.6496 130.953C31.4933 130.796 31.3693 130.611 31.2847 130.407C31.2001 130.203 31.1566 129.984 31.1566 129.764C31.1566 129.543 31.2001 129.324 31.2847 129.12C31.3693 128.916 31.4933 128.731 31.6496 128.575C31.8059 128.418 31.9915 128.295 32.1957 128.21C32.3999 128.126 32.6188 128.082 32.8399 128.082H52.5886C53.0316 128.093 53.4535 128.274 53.7669 128.587C54.0802 128.9 54.2611 129.321 54.2719 129.764C54.2761 129.986 54.2354 130.206 54.1523 130.412C54.0692 130.618 53.9453 130.805 53.7882 130.962C53.631 131.119 53.4438 131.243 53.2377 131.326C53.0316 131.409 52.8108 131.449 52.5886 131.445Z" fill="#262626"/>
<path d="M41.4332 167.562V164.238C40.3754 164.106 39.3402 163.832 38.3555 163.424C37.3336 163.025 36.3924 162.446 35.5775 161.712L37.7055 158.421C38.4452 159.003 39.2558 159.489 40.1177 159.867C40.8593 160.184 41.6571 160.348 42.4636 160.349C43.3952 160.349 44.0772 160.161 44.5097 159.784C44.7382 159.561 44.9148 159.291 45.0269 158.992C45.1391 158.694 45.1839 158.374 45.1584 158.056C45.1622 157.78 45.1062 157.506 44.9942 157.254C44.8823 157.001 44.717 156.776 44.5097 156.594C44.0126 156.149 43.4655 155.764 42.8793 155.447C42.2248 155.081 41.5205 154.716 40.7664 154.35C40.0179 153.988 39.3097 153.548 38.6536 153.037C38.0094 152.539 37.4577 151.931 37.0236 151.243C36.5708 150.479 36.3458 149.603 36.3749 148.716C36.3191 147.241 36.7975 145.796 37.7223 144.645C38.676 143.539 39.9894 142.803 41.4319 142.568V139.144H44.6592V142.5C45.6467 142.628 46.5976 142.956 47.4539 143.464C48.2512 143.951 48.9788 144.544 49.6167 145.226L47.1549 148.018C46.6391 147.524 46.0567 147.105 45.4246 146.772C44.8337 146.487 44.1841 146.344 43.528 146.356C42.8793 146.312 42.2348 146.488 41.6981 146.855C41.4733 147.059 41.2993 147.312 41.1897 147.595C41.0802 147.878 41.0382 148.183 41.0671 148.485C41.0654 148.744 41.123 148.999 41.2354 149.233C41.3479 149.466 41.5122 149.671 41.7158 149.831C42.2171 150.242 42.7642 150.594 43.3462 150.879C44.0004 151.212 44.7046 151.555 45.459 151.91C46.2093 152.262 46.9178 152.697 47.5715 153.206C48.2247 153.715 48.7777 154.341 49.2023 155.052C49.6588 155.868 49.8831 156.793 49.851 157.728C49.8895 159.202 49.4326 160.647 48.5531 161.832C47.6882 162.974 46.3906 163.733 44.6604 164.109V167.565L41.4332 167.562Z" fill="#F1F1F1"/>
<path d="M248.942 144.965C248.942 144.965 239.688 138.111 236.394 140.809C233.413 143.248 236.865 152.985 236.865 152.985C236.865 152.985 244.822 153.7 248.942 144.965Z" fill="#DEE8F5"/>
<path d="M309.976 167.283C309.976 184.554 295.754 198.556 273.386 198.556C251.018 198.556 232.885 184.554 232.885 167.283C232.885 150.011 251.018 136.009 273.386 136.009C295.754 136.009 309.976 150.011 309.976 167.283Z" fill="#C1D8ED"/>
<path d="M256.368 185.231H253.759C253.539 185.263 253.316 185.263 253.096 185.231H250.486C249.81 185.231 249.16 185.5 248.682 185.978C248.203 186.456 247.934 187.104 247.934 187.78V200.574C247.934 200.892 247.997 201.207 248.119 201.501C248.241 201.795 248.42 202.063 248.645 202.288C248.87 202.513 249.138 202.692 249.432 202.813C249.727 202.935 250.042 202.998 250.361 202.998H253.221C253.291 202.998 253.359 202.993 253.427 202.987C253.495 202.993 253.564 202.998 253.633 202.998H256.494C257.137 202.998 257.755 202.743 258.21 202.288C258.665 201.833 258.921 201.217 258.921 200.574V187.78C258.921 187.104 258.652 186.456 258.173 185.978C257.694 185.5 257.045 185.231 256.368 185.231Z" fill="#C1D8ED"/>
<path d="M290.994 185.231H288.385C288.165 185.263 287.942 185.263 287.722 185.231H285.112C284.436 185.231 283.786 185.5 283.308 185.978C282.829 186.456 282.56 187.104 282.56 187.78V200.574C282.56 201.217 282.816 201.833 283.271 202.288C283.726 202.743 284.343 202.998 284.987 202.998H287.847C287.917 202.998 287.985 202.993 288.053 202.987C288.121 202.993 288.19 202.998 288.26 202.998H291.12C291.763 202.998 292.381 202.743 292.836 202.288C293.291 201.833 293.547 201.217 293.547 200.574V187.78C293.547 187.104 293.278 186.456 292.799 185.978C292.32 185.5 291.671 185.231 290.994 185.231Z" fill="#C1D8ED"/>
<path d="M240.334 157.091C241.065 157.091 241.657 156.5 241.657 155.77C241.657 155.04 241.065 154.449 240.334 154.449C239.604 154.449 239.011 155.04 239.011 155.77C239.011 156.5 239.604 157.091 240.334 157.091Z" fill="#111314"/>
<path d="M313.914 172.588C313.604 172.588 313.295 172.561 312.99 172.506C312.156 172.356 311.367 172.019 310.683 171.519C309.998 171.02 309.437 170.372 309.04 169.624C308.657 168.867 308.457 168.032 308.455 167.184C308.453 166.336 308.649 165.5 309.028 164.742C309.44 163.817 310.048 162.993 310.809 162.326C308.944 161.902 307.028 161.737 305.117 161.835C304.721 161.864 304.329 161.735 304.028 161.476C303.726 161.217 303.54 160.849 303.511 160.453C303.481 160.057 303.61 159.665 303.87 159.364C304.129 159.063 304.497 158.878 304.894 158.848C305.166 158.827 310.879 158.432 314.933 160.749C318.049 160.562 321.021 162.026 321.172 162.102C321.348 162.19 321.505 162.312 321.634 162.461C321.763 162.609 321.861 162.782 321.923 162.969C321.985 163.155 322.01 163.352 321.996 163.548C321.982 163.745 321.929 163.936 321.841 164.112C321.752 164.288 321.63 164.444 321.482 164.573C321.333 164.702 321.16 164.8 320.973 164.862C320.596 164.987 320.184 164.957 319.829 164.779C319.313 164.534 318.778 164.331 318.23 164.171C318.655 165.082 318.897 166.066 318.942 167.07C319.012 167.862 318.898 168.66 318.609 169.402C318.32 170.143 317.863 170.808 317.275 171.345C316.343 172.153 315.148 172.595 313.914 172.588ZM314.221 163.866C314.095 163.897 313.969 163.934 313.85 163.977C313.378 164.147 312.948 164.415 312.586 164.763C312.224 165.111 311.94 165.53 311.751 165.995C311.564 166.338 311.462 166.72 311.453 167.111C311.444 167.501 311.528 167.888 311.699 168.239C311.887 168.579 312.147 168.874 312.462 169.102C312.778 169.33 313.139 169.486 313.521 169.558C313.831 169.618 314.151 169.608 314.457 169.528C314.762 169.448 315.046 169.301 315.287 169.097C315.534 168.858 315.722 168.565 315.836 168.241C315.95 167.917 315.988 167.571 315.946 167.23C315.931 166.623 315.788 166.026 315.528 165.478C315.267 164.929 314.895 164.441 314.435 164.044C314.366 163.984 314.295 163.924 314.221 163.866Z" fill="#C1D8ED"/>
<path d="M310.391 166.866C310.139 166.866 309.892 166.802 309.672 166.682C309.451 166.561 309.265 166.387 309.129 166.175C308.994 165.964 308.914 165.721 308.896 165.471C308.879 165.22 308.925 164.97 309.03 164.741C309.385 163.909 309.909 163.159 310.569 162.54C311.23 161.922 312.012 161.447 312.867 161.147C316.593 159.842 320.987 162.007 321.172 162.1C321.348 162.188 321.505 162.31 321.634 162.458C321.763 162.607 321.861 162.78 321.923 162.966C321.985 163.153 322.01 163.35 321.996 163.546C321.982 163.742 321.929 163.934 321.841 164.11C321.752 164.285 321.63 164.442 321.482 164.571C321.333 164.699 321.16 164.798 320.973 164.86C320.596 164.985 320.184 164.955 319.829 164.777C318.877 164.306 315.942 163.239 313.851 163.976C313.379 164.147 312.948 164.415 312.586 164.763C312.225 165.11 311.94 165.53 311.752 165.995C311.632 166.255 311.44 166.475 311.199 166.629C310.957 166.783 310.677 166.866 310.391 166.866Z" fill="#DEE8F5"/>
<path d="M246.975 148.223C246.645 147.905 246.438 147.482 246.39 147.027C246.342 146.572 246.457 146.115 246.713 145.736C248.474 143.151 252.508 137.846 255.284 138.931C257.826 139.924 258.434 146.284 258.582 149.151C258.615 149.559 258.508 149.966 258.279 150.305C258.05 150.644 257.713 150.896 257.322 151.018C255.282 151.572 251.14 151.991 246.975 148.223Z" fill="#DEE8F5"/>
<path d="M225.598 162.05L255.355 162.31V181.933L228.205 181.813" fill="#C1D8ED"/>
<path d="M228.453 181.832C230.903 181.461 232.216 176.729 231.386 171.261C230.557 165.794 227.899 161.663 225.45 162.034C223.001 162.404 221.688 167.137 222.517 172.604C223.347 178.071 226.004 182.203 228.453 181.832Z" fill="#DEE8F5"/>
<path d="M283.151 138.65H263.235C262.437 138.65 261.791 139.296 261.791 140.092V140.092C261.791 140.889 262.437 141.534 263.235 141.534H283.151C283.948 141.534 284.595 140.889 284.595 140.092V140.092C284.595 139.296 283.948 138.65 283.151 138.65Z" fill="#E9EFF4"/>
<path d="M284.47 140.676C284.357 140.932 284.172 141.149 283.938 141.301C283.703 141.454 283.43 141.535 283.15 141.535H263.234C262.954 141.535 262.681 141.454 262.447 141.301C262.212 141.148 262.028 140.931 261.915 140.675C261.986 140.511 262.088 140.363 262.215 140.238C262.348 140.103 262.507 139.996 262.682 139.924C262.857 139.851 263.045 139.814 263.234 139.814H283.151C283.431 139.815 283.705 139.896 283.939 140.049C284.174 140.202 284.358 140.42 284.47 140.676Z" fill="#0F1011"/>
<path d="M274.849 129.311C282.96 129.311 289.535 122.743 289.535 114.641C289.535 106.539 282.96 99.9707 274.849 99.9707C266.739 99.9707 260.164 106.539 260.164 114.641C260.164 122.743 266.739 129.311 274.849 129.311Z" fill="#1F85B7"/>
<g opacity="0.29">
<path d="M274.849 124.151C280.107 124.151 284.369 119.893 284.369 114.641C284.369 109.389 280.107 105.131 274.849 105.131C269.592 105.131 265.329 109.389 265.329 114.641C265.329 119.893 269.592 124.151 274.849 124.151Z" fill="white"/>
</g>
<path d="M271.733 118.038L272.621 116.662C273.168 117.149 273.864 117.436 274.595 117.476C275.38 117.476 275.725 117.151 275.725 116.521C275.725 115.098 272.07 115.123 272.07 112.627C272.07 111.023 273.182 110.001 274.937 110.001C275.435 109.994 275.929 110.095 276.385 110.298C276.84 110.501 277.245 110.8 277.573 111.175L276.554 112.34C276.362 112.129 276.13 111.959 275.871 111.839C275.612 111.719 275.331 111.652 275.046 111.642C274.38 111.642 274.019 111.911 274.019 112.532C274.019 113.851 277.674 113.736 277.674 116.38C277.674 117.969 276.622 119.118 274.595 119.118C273.546 119.094 272.536 118.713 271.733 118.038ZM274.169 108.645H275.519V110.637H274.169V108.645ZM274.169 118.286H275.519V120.472H274.169V118.286Z" fill="white"/>
<path d="M284.595 92.5383C290.958 92.5383 296.116 87.3858 296.116 81.0299C296.116 74.674 290.958 69.5215 284.595 69.5215C278.233 69.5215 273.075 74.674 273.075 81.0299C273.075 87.3858 278.233 92.5383 284.595 92.5383Z" fill="#1F85B7"/>
<g opacity="0.29">
<path d="M284.595 88.49C288.72 88.49 292.063 85.1499 292.063 81.0296C292.063 76.9094 288.72 73.5693 284.595 73.5693C280.471 73.5693 277.127 76.9094 277.127 81.0296C277.127 85.1499 280.471 88.49 284.595 88.49Z" fill="white"/>
</g>
<path d="M282.151 83.695L282.847 82.6158C283.276 82.9974 283.822 83.2224 284.396 83.2538C285.012 83.2538 285.283 82.9988 285.283 82.5051C285.283 81.3885 282.415 81.4086 282.415 79.4502C282.415 78.1919 283.288 77.3899 284.664 77.3899C285.055 77.3842 285.443 77.4635 285.8 77.6225C286.157 77.7814 286.475 78.016 286.732 78.3102L285.935 79.2246C285.784 79.0595 285.601 78.9263 285.398 78.8326C285.195 78.739 284.975 78.6868 284.751 78.6793C284.229 78.6793 283.945 78.889 283.945 79.3772C283.945 80.412 286.813 80.3214 286.813 82.3973C286.813 83.643 285.987 84.5444 284.397 84.5444C283.573 84.5254 282.781 84.2258 282.151 83.695ZM284.061 76.3262H285.121V77.889H284.061V76.3262ZM284.061 83.8897H285.121V85.6048H284.061V83.8897Z" fill="white"/>
</g>
<defs>
<clipPath id="clip0_2404_1272">
<rect width="322" height="203" fill="white"/>
</clipPath>
</defs>
</svg>
