<svg width="320" height="204" viewBox="0 0 320 204" fill="none" xmlns="http://www.w3.org/2000/svg">
<g clip-path="url(#clip0_2404_1439)">
<path d="M299.398 204C309.741 204 318.319 195.298 319.038 184.078C320.681 158.433 306.717 133.905 272.022 127.325C250.482 123.24 226.162 93.9896 214.908 71.74C195.591 33.5481 168.83 14.6587 141.224 14.6587C96.1513 14.6587 89.8122 39.2566 70.1778 69.4652C35.6208 122.633 20.5441 123.36 3.34372 158.859C-0.146461 166.065 -0.0893935 175.751 0.420737 184.081C1.10938 195.302 9.71826 204 20.0604 204H299.398Z" fill="#F3F5FD"/>
<path d="M138.001 24.7334H40.4169V200.235H138.001V24.7334Z" fill="white"/>
<path d="M40.4169 200.235H111.92V36.5838L40.4169 24.7334V200.235Z" fill="#F3F5FD"/>
<path d="M40.4169 24.7336H138.001V200.236H40.4169V24.7336ZM36.6539 20.9692V204.001H141.764V20.9692H36.6539Z" fill="#DEE8F5"/>
<path d="M102.934 116.904C105.373 116.904 107.351 114.925 107.351 112.485C107.351 110.044 105.373 108.065 102.934 108.065C100.494 108.065 98.5161 110.044 98.5161 112.485C98.5161 114.925 100.494 116.904 102.934 116.904Z" fill="white"/>
<path d="M137.31 59.8707C137.31 59.8707 140.109 58.6684 140.109 51.314L145.734 50.7407C145.734 50.7407 144.574 57.2391 147.207 59.5477L137.31 59.8707Z" fill="#E98862"/>
<path d="M137.197 48.223C137.399 50.4711 138.436 52.669 140.332 53.5451C142.392 54.5658 144.672 55.0664 146.971 55.0033C153.077 55.0033 153.008 41.1078 150.348 38.1918C147.688 35.2757 139.097 36.2793 137.702 40.6776C136.98 42.9521 137.005 46.0836 137.197 48.223Z" fill="#E98862"/>
<path d="M150.026 43.8353C151.212 43.8262 152.394 43.7265 153.564 43.537C153.564 43.537 153.206 34.5135 143.627 35.028C142.383 34.9713 141.136 35.0448 139.908 35.2473C137.029 35.6891 132.946 38.634 132.287 46.0037C131.985 49.3848 130.82 52.572 129.931 54.5899C129.826 54.8268 129.782 55.086 129.803 55.3441C129.824 55.6022 129.909 55.8509 130.05 56.0679C130.192 56.2849 130.385 56.4632 130.612 56.5867C130.84 56.7102 131.094 56.7751 131.353 56.7753L151.876 56.6124C152.119 56.6127 152.358 56.5561 152.575 56.4471C152.792 56.3382 152.981 56.18 153.125 55.9851C153.27 55.7902 153.367 55.5642 153.409 55.325C153.451 55.0858 153.436 54.8401 153.366 54.6077C152.249 50.9119 150.207 48.6451 150.026 43.8353Z" fill="#0F1011"/>
<path d="M160.984 200.234L153.728 199.371C154.055 196.623 154.424 193.323 154.449 192.782V192.867H161.756C161.755 193.086 161.755 193.753 160.984 200.234Z" fill="#E98862"/>
<path d="M131.867 201.108L124.56 201.084C124.56 201.084 124.584 193.536 124.584 192.867H131.892C131.892 193.538 131.867 201.108 131.867 201.108Z" fill="#E98862"/>
<path d="M150.807 197.926L163.682 197.706C163.077 182.379 163.04 166.301 162.852 150.937C160.339 134.376 159.017 116.19 155.915 99.7486L128.964 98.3457C128.964 98.3457 128.367 109.262 128.129 113.588C126.756 138.44 124.252 173.444 122.679 197.51L135.508 198.595C137.82 174.999 141.397 140.617 143.597 115.828C146.124 127.896 147.843 140.393 150.04 152.358C150.477 167.335 150.848 182.993 150.807 197.926Z" fill="#262626"/>
<path d="M140.75 203.935C140.938 203.934 141.124 203.896 141.297 203.823C141.47 203.751 141.627 203.645 141.759 203.511C141.892 203.378 141.996 203.22 142.067 203.046C142.138 202.872 142.174 202.686 142.173 202.498C142.173 202.463 142.172 202.429 142.169 202.394C142.148 202.122 142.05 201.862 141.886 201.645C141.722 201.427 141.499 201.261 141.244 201.165L132.738 198.315C132.574 198.261 132.399 198.243 132.227 198.262C132.054 198.281 131.888 198.337 131.739 198.427C130.57 199.238 129.171 199.653 127.748 199.61C126.641 199.532 125.577 199.143 124.679 198.489C124.6 198.424 124.505 198.383 124.403 198.371C124.302 198.358 124.199 198.375 124.107 198.419C124.015 198.462 123.937 198.531 123.883 198.618C123.828 198.704 123.8 198.804 123.8 198.906V203.067C123.8 203.314 123.898 203.551 124.073 203.726C124.248 203.901 124.485 203.999 124.732 203.999H124.735L140.75 203.935Z" fill="#C1D8ED"/>
<path d="M169.888 203.935C170.075 203.934 170.261 203.896 170.434 203.824C170.607 203.751 170.764 203.645 170.896 203.512C171.028 203.379 171.133 203.22 171.204 203.047C171.275 202.873 171.311 202.687 171.31 202.499C171.31 202.464 171.31 202.43 171.306 202.395C171.285 202.123 171.187 201.863 171.023 201.646C170.859 201.428 170.636 201.262 170.381 201.166L161.876 198.316C161.711 198.262 161.536 198.244 161.364 198.263C161.191 198.282 161.025 198.338 160.876 198.428C159.707 199.239 158.308 199.654 156.886 199.611C155.778 199.533 154.714 199.144 153.816 198.49C153.737 198.425 153.642 198.384 153.54 198.371C153.439 198.359 153.336 198.376 153.244 198.419C153.152 198.463 153.074 198.532 153.02 198.619C152.965 198.705 152.937 198.805 152.937 198.907V203.068C152.937 203.315 153.035 203.552 153.21 203.727C153.385 203.902 153.622 204 153.869 204H153.873L169.888 203.935Z" fill="#C1D8ED"/>
<path d="M184.723 84.1654C185.76 84.1654 189.227 83.6175 189.474 84.4986C189.623 85.027 187.038 85.6508 187.038 85.6508" fill="#E98862"/>
<path d="M184.178 88.324C184.178 88.324 191.178 91.2007 195.199 87.9198C195.301 87.8361 195.376 87.7235 195.413 87.5967C195.45 87.4698 195.449 87.3347 195.408 87.2089C195.367 87.0831 195.29 86.9725 195.185 86.8915C195.081 86.8106 194.954 86.763 194.822 86.7551C192.111 86.5953 186.543 86.0485 187.193 84.2603H182.821" fill="#E98862"/>
<path d="M165.794 82.3285C166.826 82.229 170.225 81.3507 170.556 82.2039C170.754 82.7153 168.242 83.5845 168.242 83.5845" fill="#E98862"/>
<path d="M165.652 86.5208C165.652 86.5208 172.894 88.7118 176.582 85.0588C176.676 84.9656 176.739 84.8463 176.764 84.7163C176.789 84.5864 176.774 84.452 176.722 84.3306C176.669 84.2093 176.581 84.1066 176.469 84.0361C176.357 83.9656 176.227 83.9305 176.095 83.9355C173.38 84.0371 167.785 84.0277 168.261 82.1855L163.911 82.6033" fill="#E98862"/>
<path d="M129.439 91.0985C128.433 91.0985 127.469 90.6987 126.757 89.9872C126.046 89.2756 125.646 88.3105 125.646 87.3042C125.646 87.244 125.646 87.1841 125.65 87.1239L126.678 65.3975L134.257 65.756L133.428 83.2822L166.452 81.4582L166.87 89.037L129.648 91.0926C129.578 91.0965 129.509 91.0985 129.439 91.0985Z" fill="#1F85B7"/>
<path d="M165.267 82.6673L156.84 64.4494C156.141 61.2852 154.177 59.1019 149.602 58.9056C148.205 58.8457 141.388 58.8359 136.396 58.8359C133.043 58.8359 130.29 59.8653 128.701 61.4557C123.22 66.9387 129.947 76.2817 129.947 83.595C129.947 90.9083 126.642 94.1839 126.885 97.9368C127.268 103.835 155.916 102.442 157.376 99.0911C158.879 95.6358 155.829 93.5072 155.962 82.205C155.97 81.5363 156.002 80.8506 156.05 80.154L159.593 87.8123C159.881 88.4335 160.337 88.9615 160.909 89.3362C161.482 89.7109 162.148 89.9171 162.833 89.9315L185.169 90.4014L185.324 83.092L165.267 82.6673Z" fill="#1F85B7"/>
<path d="M241.062 200.233L248.319 199.37C247.992 196.623 247.623 193.322 247.598 192.781V192.867H240.291C240.292 193.085 240.292 193.753 241.062 200.233Z" fill="#1F85B7"/>
<path d="M270.18 201.107L277.487 201.084C277.487 201.084 277.463 193.535 277.463 192.867H270.155C270.155 193.537 270.18 201.107 270.18 201.107Z" fill="#1F85B7"/>
<path d="M251.24 197.925L238.365 197.706C238.9 184.143 238.991 168.629 239.135 154.592C239.175 151.112 239.438 147.639 239.921 144.193C241.992 129.321 243.343 114.535 246.132 99.7481L246.225 99.7756L246.497 97.9203L272.97 96.2842L274.348 113.585C274.348 113.585 277.796 173.44 279.369 197.507L266.541 198.595C264.23 174.998 260.652 140.616 258.452 115.828C255.926 127.896 254.207 140.392 252.01 152.357C251.57 167.335 251.199 182.992 251.24 197.925Z" fill="#262626"/>
<path d="M261.296 203.935C261.109 203.934 260.923 203.896 260.75 203.823C260.577 203.751 260.42 203.645 260.288 203.511C260.156 203.378 260.051 203.22 259.98 203.046C259.909 202.872 259.873 202.686 259.874 202.499C259.874 202.464 259.874 202.429 259.878 202.394C259.899 202.123 259.998 201.863 260.161 201.645C260.325 201.427 260.548 201.261 260.803 201.166L269.309 198.316C269.473 198.261 269.648 198.243 269.82 198.262C269.993 198.282 270.159 198.338 270.308 198.427C271.477 199.239 272.876 199.654 274.299 199.611C275.406 199.532 276.47 199.143 277.368 198.489C277.447 198.424 277.542 198.383 277.644 198.371C277.745 198.359 277.848 198.375 277.94 198.419C278.032 198.463 278.11 198.532 278.164 198.618C278.219 198.705 278.248 198.805 278.247 198.907V203.067C278.247 203.315 278.149 203.552 277.974 203.727C277.8 203.901 277.563 204 277.315 204H277.312L261.296 203.935Z" fill="#C1D8ED"/>
<path d="M232.159 203.935C231.971 203.934 231.786 203.896 231.613 203.823C231.44 203.75 231.283 203.644 231.15 203.511C231.018 203.377 230.914 203.219 230.843 203.045C230.772 202.872 230.736 202.685 230.737 202.498C230.737 202.463 230.737 202.428 230.741 202.393C230.762 202.122 230.86 201.862 231.024 201.644C231.188 201.426 231.411 201.26 231.666 201.165L240.171 198.315C240.336 198.26 240.511 198.242 240.683 198.261C240.856 198.281 241.022 198.337 241.171 198.426C242.34 199.238 243.739 199.653 245.161 199.61C246.269 199.531 247.333 199.142 248.231 198.488C248.31 198.423 248.405 198.382 248.507 198.37C248.608 198.358 248.711 198.374 248.803 198.418C248.895 198.462 248.973 198.531 249.027 198.617C249.082 198.704 249.11 198.804 249.11 198.906V203.066C249.11 203.314 249.012 203.551 248.837 203.726C248.662 203.9 248.425 203.999 248.178 203.999H248.174L232.159 203.935Z" fill="#C1D8ED"/>
<path d="M204.332 79.6656C204.332 79.6656 201.476 78.2771 199.33 78.8096C198.358 79.0512 198.037 79.3729 198.118 79.6834C197.645 79.8111 197.327 80.0113 197.313 80.318C197.313 80.318 197.081 84.2515 197.8 84.8583C198.886 85.7759 204.266 85.0574 204.266 85.0574L204.332 79.6656Z" fill="#1F85B7"/>
<path d="M216.663 86.0975H237.36C237.972 86.0976 238.575 85.9434 239.113 85.6492C239.651 85.3551 240.106 84.9303 240.436 84.4141L253.514 63.9917L247.361 60.0474L235.363 78.7874H216.663V86.0975Z" fill="#1F85B7"/>
<path d="M244.61 98.5552C246.068 101.907 274.716 103.3 275.099 97.403C275.343 93.6504 272.037 90.3748 272.037 83.0612C272.037 75.7476 278.763 66.408 273.283 60.9254C271.693 59.3346 268.947 58.3077 265.6 58.3042C265.349 60.257 253.497 60.264 253.407 58.3495C252.954 58.3564 252.603 58.3634 252.383 58.3738C240.838 58.8716 245.911 72.0159 246.022 81.6723C246.158 92.9716 243.106 95.101 244.61 98.5552Z" fill="#1F85B7"/>
<path d="M253.407 58.3495C253.497 60.264 254.537 63.0802 257.749 63.2925C262.029 63.5745 265.349 60.257 265.6 58.3042H265.589C261.375 58.3042 255.863 58.3112 253.407 58.3495Z" fill="#1F85B7"/>
<path d="M240.892 69.29H205.757V98.5191H240.892V69.29Z" fill="#1F85B7"/>
<path opacity="0.26" d="M240.892 69.29H205.757V98.5191H240.892V69.29Z" fill="#0F1011"/>
<path d="M229.756 69.29H198.102V98.5191H229.756V69.29Z" fill="#1F85B7"/>
<path d="M241.01 83.4001H241.002C240.949 83.3903 240.895 83.383 240.84 83.3771C239.982 83.257 236.073 82.7411 235.117 83.1477C234.796 83.2845 234.854 83.5195 235.066 83.7701C233.311 83.9362 231.799 84.3668 231.754 85.6815C231.675 87.9588 237.252 88.5656 239.096 88.3758C240.752 88.2046 243.273 83.8112 241.01 83.4001Z" fill="#1F85B7"/>
<path d="M239.47 89.7752L261.003 89.1183C261.675 89.0978 262.33 88.899 262.9 88.5421C263.47 88.1853 263.935 87.6833 264.247 87.0875L274.878 66.8092L268.159 63.2847L258.557 81.6L239.239 82.1894L239.47 89.7752Z" fill="#1F85B7"/>
<path d="M262.308 53.405C262.304 53.3145 262.304 53.2205 262.304 53.1265C262.301 52.493 262.329 51.8038 262.391 51.0519L261.723 50.9265L261.048 50.8012L256.831 50.0215C256.927 51.2575 256.908 52.4997 256.775 53.7322C256.757 53.8993 256.733 54.0699 256.709 54.2405C256.691 54.3623 256.67 54.4807 256.65 54.6025C256.646 54.6338 256.639 54.6686 256.632 54.7034C256.583 54.975 256.528 55.243 256.458 55.5076C256.447 55.5617 256.434 55.6152 256.416 55.6677C256.416 55.6773 256.413 55.6867 256.41 55.6955C256.382 55.8104 256.347 55.9288 256.309 56.0402C256.27 56.169 256.229 56.2943 256.18 56.4196C256.162 56.4718 256.142 56.524 256.121 56.5762C256.117 56.5908 256.111 56.6048 256.103 56.618C256.079 56.6841 256.051 56.7468 256.02 56.8129C256.007 56.8498 255.992 56.8858 255.975 56.9209C255.915 57.0531 255.853 57.1784 255.787 57.3003C255.786 57.3003 255.785 57.3006 255.784 57.3013C255.784 57.302 255.783 57.3028 255.783 57.3038C255.521 57.8179 255.152 58.27 254.701 58.63H263.444C262.903 57.6971 262.346 56.0889 262.308 53.405Z" fill="#1F85B7"/>
<path d="M255.782 57.3053L260.401 53.771L256.773 53.7334C256.668 54.9754 256.332 56.1868 255.782 57.3053Z" fill="#C98481"/>
<path d="M265.545 48.2116C265.16 50.4356 263.947 52.5413 261.986 53.2591C259.848 54.1078 257.536 54.4203 255.25 54.1694C249.164 53.6702 250.368 39.8276 253.257 37.1382C256.146 34.4487 264.627 36.152 265.658 40.6495C266.193 42.9744 265.911 46.0934 265.545 48.2116Z" fill="#1F85B7"/>
<path d="M256.839 46.4976C257.117 46.4976 257.343 46.2717 257.343 45.9932C257.343 45.7146 257.117 45.4888 256.839 45.4888C256.56 45.4888 256.335 45.7146 256.335 45.9932C256.335 46.2717 256.56 46.4976 256.839 46.4976Z" fill="#0F1011"/>
<path d="M252.861 46.1709C253.14 46.1709 253.365 45.9451 253.365 45.6665C253.365 45.3879 253.14 45.1621 252.861 45.1621C252.583 45.1621 252.357 45.3879 252.357 45.6665C252.357 45.9451 252.583 46.1709 252.861 46.1709Z" fill="#0F1011"/>
<path d="M251.987 44.5916H251.991L253.326 44.5752C253.389 44.5748 253.449 44.5494 253.494 44.5047C253.538 44.4599 253.562 44.3994 253.562 44.3366C253.561 44.2737 253.536 44.2136 253.491 44.1694C253.447 44.1252 253.386 44.1007 253.323 44.1011H253.32L251.985 44.1178C251.923 44.1205 251.866 44.1468 251.823 44.1912C251.781 44.2356 251.758 44.2947 251.758 44.356C251.758 44.4173 251.783 44.4761 251.825 44.52C251.868 44.564 251.926 44.5896 251.987 44.5916Z" fill="#0F1011"/>
<path d="M257.928 45.0791C257.986 45.079 258.042 45.0576 258.085 45.019C258.128 44.9804 258.156 44.9273 258.162 44.8697C258.169 44.8122 258.155 44.7541 258.122 44.7065C258.088 44.659 258.039 44.6252 257.983 44.6116L256.666 44.2945C256.605 44.2789 256.54 44.2882 256.486 44.3203C256.432 44.3524 256.393 44.4046 256.377 44.4656C256.362 44.5265 256.371 44.5911 256.403 44.6452C256.435 44.6993 256.487 44.7384 256.548 44.754H256.555L257.872 45.0711C257.89 45.076 257.909 45.0787 257.928 45.0791Z" fill="#0F1011"/>
<path d="M262.064 52.9922C262.18 53.3619 262.261 53.5231 262.594 53.3254C263.901 52.5484 266.307 51.8216 267.309 45.4882C268.208 39.8142 263.593 37.8112 260.802 36.9757C258.397 36.2559 258.969 36.4755 256.335 38.0642C254.064 39.4333 251.449 40.9479 251.449 40.9479C252.453 40.9942 252.655 41.8572 255.022 41.8572C256.853 41.8572 258.043 41.0391 259.757 41.1112C261.325 41.177 261.648 42.1336 261.592 42.7473C261.255 46.4653 261.656 51.6848 262.064 52.9922Z" fill="#0F1011"/>
<path d="M259.462 47.2268C259.424 47.7874 259.608 48.3404 259.975 48.7662C260.342 49.1919 260.861 49.4563 261.421 49.502C261.981 49.5477 262.536 49.3712 262.967 49.0106C263.397 48.65 263.669 48.1343 263.723 47.5749C263.75 47.3002 263.723 47.0227 263.643 46.7584C263.563 46.4941 263.432 46.2481 263.257 46.0346C263.082 45.821 262.867 45.644 262.623 45.5137C262.38 45.3833 262.113 45.3022 261.839 45.275C261.815 45.2726 261.791 45.2705 261.767 45.2691C260.243 45.2207 259.558 46.0499 259.462 47.2268Z" fill="#1F85B7"/>
<g opacity="0.15">
<path d="M254.601 48.7904C254.642 48.7904 254.683 48.7755 254.714 48.7483C254.746 48.7211 254.767 48.6834 254.773 48.6422C254.779 48.601 254.77 48.5589 254.748 48.5236C254.726 48.4883 254.692 48.4622 254.652 48.4499L253.626 48.1349L254.344 46.5371C254.363 46.4952 254.365 46.4474 254.349 46.404C254.333 46.3606 254.301 46.3253 254.259 46.3058C254.217 46.2863 254.169 46.2843 254.126 46.3001C254.083 46.3159 254.047 46.3483 254.028 46.3902V46.3944L253.23 48.1725C253.221 48.1934 253.216 48.2159 253.215 48.2387C253.214 48.2616 253.218 48.2844 253.226 48.3057C253.234 48.3271 253.247 48.3466 253.262 48.3633C253.278 48.3799 253.297 48.3932 253.318 48.4026C253.325 48.4054 253.331 48.4078 253.338 48.4099L254.551 48.7827C254.567 48.7877 254.584 48.7903 254.601 48.7904Z" fill="black"/>
</g>
<path d="M260.401 44.2827L261.592 44.683C261.592 44.683 261.437 48.9104 260.997 51.0606C260.556 53.2108 260.213 56.0134 258.846 56.3215C257.03 56.7301 254.434 56.7475 252.861 56.185C251.086 55.5508 251.129 48.9699 251.129 48.9699C251.129 48.9699 256.836 49.5885 258.417 48.8307C259.998 48.0728 260.401 44.2827 260.401 44.2827Z" fill="#0F1011"/>
<path d="M256.606 49.9648C256.606 49.9648 254.744 50.1611 253.439 49.7051C253.439 49.7051 253.45 50.9314 254.922 51.0522C256.395 51.173 256.606 49.9648 256.606 49.9648Z" fill="#F8FCFF"/>
<path d="M261.767 45.2707C261.767 45.2707 265.307 44.8641 267.289 45.6665C267.289 45.6665 269.166 36.1706 260.095 35.2931C251.025 34.4155 251.637 41.9738 251.637 41.9738L258.786 41.5464L261.767 45.2707Z" fill="#262626"/>
<path d="M261.767 45.2705C261.767 45.2705 258.68 42.8986 256.106 42.8986H250.882C250.882 42.8986 246.653 40.135 246.669 39.4524C246.7 38.0307 254.204 38.1585 255.784 38.7715C257.363 39.3845 261.767 45.2705 261.767 45.2705Z" fill="#262626"/>
<path opacity="0.21" d="M261.767 45.2705C261.767 45.2705 258.68 42.8986 256.106 42.8986H250.882C250.882 42.8986 246.653 40.135 246.669 39.4524C246.7 38.0307 254.204 38.1585 255.784 38.7715C257.363 39.3845 261.767 45.2705 261.767 45.2705Z" fill="black"/>
<path d="M197.802 84.8594C197.9 84.9369 198.009 84.9989 198.126 85.0431C198.75 85.1719 200.323 84.7953 200.575 84.3588C200.986 83.6483 200.731 81.0814 200.369 80.1499C200.029 79.2796 198.336 79.6441 198.113 79.6852C198.107 79.6879 198.099 79.6897 198.092 79.6907C197.63 79.8174 197.327 80.0155 197.314 80.3194C197.314 80.3194 197.081 84.2495 197.802 84.8594Z" fill="#1F85B7"/>
<path d="M36.9097 183.991C34.0754 183.177 31.942 180.64 31.0943 177.815C30.2467 174.989 30.5452 171.923 31.3727 169.092C32.0481 166.782 33.0722 164.549 33.3245 162.155C34.1649 154.183 26.4346 146.038 30.073 138.896C31.2492 136.587 33.5253 134.781 33.9314 132.221C34.2682 130.104 33.2243 128.047 32.7069 125.967C31.9939 123.104 32.3554 119.856 34.2118 117.564C36.0683 115.272 39.5766 114.27 42.1345 115.738C45.4803 117.658 45.7705 122.398 44.9107 126.16C44.0508 129.921 42.4571 133.791 43.5076 137.503C44.5091 141.042 47.7679 143.707 48.3521 147.338C48.8393 150.356 47.3649 153.3 46.7167 156.288C45.6992 160.984 46.7347 165.852 46.7789 170.657C46.8231 175.462 45.4692 180.851 36.9097 183.991Z" fill="#E0A097"/>
<path d="M32.536 184.447C30.8493 183.911 29.3357 182.935 28.1506 181.62C26.9654 180.305 26.1515 178.699 25.7923 176.965C25.2376 174.106 25.9189 170.894 24.3544 168.437C22.2346 165.108 20.0611 164.732 17.4221 161.797C13.3647 157.286 13.222 155.288 13.49 146.933C13.6031 143.4 8.72654 139.414 10.4438 136.018C11.9571 133.027 16.5567 133.012 19.1651 135.117C21.7735 137.221 22.9194 140.595 24.0559 143.75C25.1923 146.904 26.6253 150.24 29.5065 151.951C31.2342 152.978 33.4964 153.452 34.4506 155.223C35.2161 156.645 34.8312 158.38 34.5229 159.966C33.7483 163.951 33.9425 168.813 37.2862 171.115C38.7947 172.154 40.7701 172.511 42.0103 173.859C43.2366 175.192 43.4342 177.166 43.3514 178.976C43.1883 182.455 42.2301 185.85 40.5505 188.9" fill="#DEE8F5"/>
<path d="M36.568 187.223C33.5577 183.782 33.1321 178.331 35.5717 174.464C37.6189 171.22 41.4337 168.985 42.2347 165.233C42.9481 161.891 40.9695 158.438 41.5618 155.073C42.2059 151.413 45.5854 149.012 48.27 146.444C48.9685 145.819 49.5693 145.093 50.0523 144.29C51.233 142.165 50.9038 139.556 51.305 137.158C52.0727 132.565 55.8559 128.49 60.4491 127.731C64.4776 127.065 67.3634 129.38 67.3634 133.644C67.3634 138.694 63.5809 140.859 61.6514 143.147C58.88 146.458 57.4092 150.665 57.514 154.982C57.65 159.804 59.7024 164.938 57.5098 169.234C55.9007 172.387 52.4641 174.068 49.7635 176.355C47.723 178.104 46.0619 180.253 44.8825 182.668C43.7031 185.083 43.0303 187.715 42.9056 190.4" fill="white"/>
<path d="M49.5606 179.304H25.2682V203.605H49.5606V179.304Z" fill="#1F85B7"/>
<g opacity="0.42">
<path d="M49.5606 184.042H25.2682V188.785H49.5606V184.042Z" fill="white"/>
</g>
<path d="M196.826 51.0101C210.907 51.0101 222.322 39.5911 222.322 25.505C222.322 11.419 210.907 0 196.826 0C182.745 0 171.33 11.419 171.33 25.505C171.33 39.5911 182.745 51.0101 196.826 51.0101Z" fill="#262626"/>
<path d="M212.199 40.884C220.69 32.3904 220.69 18.6194 212.199 10.1258C203.709 1.6321 189.943 1.63209 181.452 10.1258C172.962 18.6194 172.962 32.3904 181.452 40.884C189.943 49.3777 203.709 49.3777 212.199 40.884Z" fill="#F3F5FD"/>
<path d="M207.718 22.0153L197.55 27.7311C197.325 27.8568 197.071 27.9216 196.813 27.9191C196.556 27.9166 196.303 27.8468 196.081 27.7168C195.858 27.5867 195.674 27.4007 195.545 27.1774C195.416 26.954 195.348 26.7009 195.347 26.4431V10.8691C195.347 10.4767 195.503 10.1004 195.78 9.82296C196.058 9.54552 196.434 9.38965 196.826 9.38965C197.218 9.38965 197.595 9.54552 197.872 9.82296C198.149 10.1004 198.305 10.4767 198.305 10.8691V23.9145L206.267 19.4345C206.436 19.3392 206.622 19.2781 206.815 19.2549C207.008 19.2316 207.204 19.2466 207.391 19.299C207.578 19.3514 207.753 19.4401 207.906 19.5601C208.059 19.6801 208.186 19.829 208.282 19.9984C208.377 20.1678 208.438 20.3542 208.461 20.5472C208.484 20.7401 208.469 20.9358 208.417 21.1229C208.365 21.3101 208.276 21.4851 208.156 21.638C208.036 21.7908 207.887 21.9186 207.718 22.0139V22.0153Z" fill="#DEE8F5"/>
<path d="M207.718 22.0153L197.55 27.7311C197.325 27.8568 197.071 27.9216 196.813 27.9191C196.556 27.9166 196.303 27.8468 196.081 27.7168C195.858 27.5867 195.674 27.4007 195.545 27.1774C195.416 26.954 195.348 26.7009 195.347 26.4431V10.8691C195.347 10.4767 195.503 10.1004 195.78 9.82296C196.058 9.54552 196.434 9.38965 196.826 9.38965C197.218 9.38965 197.595 9.54552 197.872 9.82296C198.149 10.1004 198.305 10.4767 198.305 10.8691V23.9145L206.267 19.4345C206.436 19.3392 206.622 19.2781 206.815 19.2549C207.008 19.2316 207.204 19.2466 207.391 19.299C207.578 19.3514 207.753 19.4401 207.906 19.5601C208.059 19.6801 208.186 19.829 208.282 19.9984C208.377 20.1678 208.438 20.3542 208.461 20.5472C208.484 20.7401 208.469 20.9358 208.417 21.1229C208.365 21.3101 208.276 21.4851 208.156 21.638C208.036 21.7908 207.887 21.9186 207.718 22.0139V22.0153Z" fill="#262626"/>
<path d="M218.567 54.2919C225.036 54.2919 230.28 49.0461 230.28 42.5751C230.28 36.1042 225.036 30.8584 218.567 30.8584C212.099 30.8584 206.855 36.1042 206.855 42.5751C206.855 49.0461 212.099 54.2919 218.567 54.2919Z" fill="#1F85B7"/>
<path d="M216.308 48.8564C216.045 48.8565 215.791 48.7559 215.6 48.5752L210.595 43.8507C210.396 43.6629 210.28 43.4037 210.272 43.1301C210.264 42.8566 210.365 42.591 210.553 42.392C210.74 42.193 210.999 42.0767 211.273 42.0687C211.546 42.0608 211.812 42.1619 212.011 42.3497L216.251 46.3529L225.068 36.6328C225.252 36.4302 225.509 36.3089 225.782 36.2956C226.055 36.2824 226.323 36.3783 226.525 36.5622C226.728 36.7461 226.849 37.003 226.862 37.2763C226.875 37.5496 226.78 37.817 226.596 38.0197L217.072 48.5188C216.98 48.6203 216.868 48.7025 216.744 48.7605C216.62 48.8185 216.485 48.8511 216.348 48.8564H216.308Z" fill="white"/>
</g>
<defs>
<clipPath id="clip0_2404_1439">
<rect width="319" height="204" fill="white" transform="translate(0.166718)"/>
</clipPath>
</defs>
</svg>
