<svg width="44" height="45" viewBox="0 0 44 45" fill="none" xmlns="http://www.w3.org/2000/svg">
<g clip-path="url(#clip0_2445_436)">
<path d="M10.084 31.6394C13.1216 31.6394 15.584 29.177 15.584 26.1394C15.584 23.1018 13.1216 20.6394 10.084 20.6394C7.04642 20.6394 4.58398 23.1018 4.58398 26.1394C4.58398 29.177 7.04642 31.6394 10.084 31.6394Z" fill="#53BED1"/>
<path d="M15.125 35.3074H5.04109C3.70394 35.3087 2.42199 35.8408 1.4768 36.7866C0.531605 37.7324 0.000454737 39.0147 0 40.3519L0 43.1019C0 43.4666 0.144866 43.8163 0.402728 44.0742C0.660591 44.332 1.01033 44.4769 1.375 44.4769H18.7911C19.1558 44.4769 19.5055 44.332 19.7634 44.0742C20.0212 43.8163 20.1661 43.4666 20.1661 43.1019V40.3519C20.1656 39.0147 19.6345 37.7324 18.6893 36.7866C17.7441 35.8408 16.4622 35.3087 15.125 35.3074Z" fill="#53BED1"/>
<path d="M33.916 31.6394C36.9536 31.6394 39.416 29.177 39.416 26.1394C39.416 23.1018 36.9536 20.6394 33.916 20.6394C30.8784 20.6394 28.416 23.1018 28.416 26.1394C28.416 29.177 30.8784 31.6394 33.916 31.6394Z" fill="#53BED1"/>
<path d="M38.959 35.3074H28.8751C27.5379 35.3087 26.256 35.8408 25.3108 36.7866C24.3656 37.7324 23.8344 39.0147 23.834 40.3519V43.1019C23.834 43.4666 23.9789 43.8163 24.2367 44.0742C24.4946 44.332 24.8443 44.4769 25.209 44.4769H42.6251C42.9898 44.4769 43.3395 44.332 43.5974 44.0742C43.8552 43.8163 44.0001 43.4666 44.0001 43.1019V40.3519C43.9996 39.0147 43.4685 37.7324 42.5233 36.7866C41.5781 35.8408 40.2961 35.3087 38.959 35.3074Z" fill="#53BED1"/>
<path d="M25.7401 19.1219V20.4419C25.7373 20.984 25.5195 21.5029 25.1343 21.8845C24.7492 22.2661 24.2283 22.4792 23.6862 22.4769H20.3123C19.3223 22.4769 18.2498 21.743 18.2498 20.1119V19.1219H25.7401ZM30.2501 8.67189C30.2531 9.88834 29.9828 11.0899 29.4592 12.1879C28.9356 13.286 28.1721 14.2524 27.2251 15.0158C26.4964 15.5825 25.9902 16.3874 25.7951 17.2897H18.2188C18.0699 16.4174 17.5903 15.6362 16.8799 15.1086C15.8778 14.3305 15.0725 13.3278 14.5288 12.1814C13.9852 11.035 13.7185 9.77697 13.7501 8.50861C13.8412 4.1447 17.4901 0.53361 21.8712 0.476891C22.9711 0.452272 24.0647 0.650991 25.0856 1.06103C26.1066 1.47108 27.0338 2.08392 27.8112 2.86252C28.5876 3.617 29.2037 4.52038 29.6228 5.51859C30.0419 6.5168 30.2552 7.5893 30.2501 8.67189Z" fill="#1F85B7"/>
</g>
<defs>
<clipPath id="clip0_2445_436">
<rect width="44" height="44" fill="white" transform="translate(0 0.475098)"/>
</clipPath>
</defs>
</svg>
