<svg width="44" height="45" viewBox="0 0 44 45" fill="none" xmlns="http://www.w3.org/2000/svg">
<g clip-path="url(#clip0_2445_445)">
<path d="M21.1786 25.9985C21.0654 25.766 20.8889 25.57 20.6694 25.4332C20.4499 25.2964 20.1963 25.2243 19.9376 25.2251H3.32764C2.96296 25.2251 2.61323 25.37 2.35536 25.6278C2.0975 25.8857 1.95264 26.2354 1.95264 26.6001C1.95264 36.4554 10.0204 44.4751 19.9411 44.4751C22.6448 44.4801 25.3149 43.8756 27.7528 42.7065C27.9165 42.6285 28.0632 42.519 28.1844 42.3841C28.3056 42.2492 28.3989 42.0917 28.4589 41.9206C28.519 41.7495 28.5446 41.5682 28.5343 41.3872C28.5241 41.2061 28.4781 41.0289 28.399 40.8657L21.1786 25.9985Z" fill="#53BED1"/>
<path d="M26.125 3.74072C25.7603 3.74072 25.4106 3.88559 25.1527 4.14345C24.8949 4.40131 24.75 4.75105 24.75 5.11572V21.5109C24.7495 21.7187 24.7965 21.9239 24.8875 22.1107L32.0598 36.8834C32.2183 37.2105 32.4998 37.4615 32.8428 37.5816C33.1858 37.7018 33.5624 37.6812 33.8903 37.5245C40.1277 34.5201 44 28.3824 44 21.5074C44 11.7088 35.9803 3.74072 26.125 3.74072Z" fill="#1F85B7"/>
<path d="M19.25 18.3501V1.8501C19.25 1.48542 19.1051 1.13569 18.8473 0.877826C18.5894 0.619963 18.2397 0.475098 17.875 0.475098C13.1361 0.48101 8.59293 2.36616 5.242 5.71709C1.89106 9.06803 0.00591258 13.6112 0 18.3501C0 18.7148 0.144866 19.0645 0.402728 19.3224C0.660591 19.5802 1.01033 19.7251 1.375 19.7251H17.875C18.2397 19.7251 18.5894 19.5802 18.8473 19.3224C19.1051 19.0645 19.25 18.7148 19.25 18.3501Z" fill="#53BED1"/>
</g>
<defs>
<clipPath id="clip0_2445_445">
<rect width="44" height="44" fill="white" transform="translate(0 0.475098)"/>
</clipPath>
</defs>
</svg>
