<svg width="44" height="45" viewBox="0 0 44 45" fill="none" xmlns="http://www.w3.org/2000/svg">
<g clip-path="url(#clip0_2445_457)">
<path d="M29.5624 4.0105L9.58881 14.225L1.6499 10.3269L21.2626 0.646903C21.4844 0.53836 21.728 0.481934 21.975 0.481934C22.2219 0.481934 22.4656 0.53836 22.6874 0.646903L29.5624 4.0105ZM42.3276 10.3269L22.0102 20.3919L14.4013 16.645L13.3047 16.0864L33.2921 5.86503L34.3921 6.4219L42.3276 10.3269Z" fill="#1F85B7"/>
<path d="M20.3827 23.2933L20.3603 44.4751L0.898906 34.3191C0.628191 34.1744 0.40168 33.9592 0.243414 33.6963C0.0851493 33.4333 0.0010353 33.1324 0 32.8255L0 13.2283L8.25 17.2914V24.4328C8.25 24.8704 8.42384 25.2901 8.73327 25.5995C9.04271 25.909 9.46239 26.0828 9.9 26.0828C10.3376 26.0828 10.7573 25.909 11.0667 25.5995C11.3762 25.2901 11.55 24.8704 11.55 24.4328V18.9431L12.65 19.4794L20.3827 23.2933ZM43.9777 13.2506L23.6827 23.2726L23.6603 44.4528L44 33.8326L43.9777 13.2506Z" fill="#53BED1"/>
</g>
<defs>
<clipPath id="clip0_2445_457">
<rect width="44" height="44" fill="white" transform="translate(0 0.475098)"/>
</clipPath>
</defs>
</svg>
