<svg width="45" height="44" viewBox="0 0 45 44" fill="none" xmlns="http://www.w3.org/2000/svg">
<g clip-path="url(#clip0_2424_264)">
<path d="M31.4652 13.6442L29.4499 15.6595C29.7846 16.2951 30.0667 16.9571 30.2935 17.6387C31.1405 17.4907 31.9988 17.4171 32.8586 17.4188H33.0974C32.717 16.0959 32.1685 14.8274 31.4652 13.6442ZM0.77002 21.9992C0.77346 24.3621 1.28404 26.6967 2.26726 28.8454C3.25048 30.994 4.68344 32.9066 6.4693 34.4538C8.25517 36.0011 10.3523 37.147 12.6191 37.8141C14.8859 38.4813 17.2695 38.6541 19.6088 38.3209C19.1983 37.4721 18.8732 36.5847 18.638 35.6717C18.1818 35.7237 17.7228 35.7483 17.2636 35.7455C13.618 35.7455 10.1218 34.2973 7.54405 31.7196C4.96627 29.1418 3.51809 25.6456 3.51809 22C3.51809 18.3545 4.96627 14.8583 7.54405 12.2805C10.1218 9.70273 13.618 8.25455 17.2636 8.25455C19.4794 8.25295 21.6619 8.79385 23.6205 9.83003L25.6358 7.81472C23.1057 6.30089 20.2119 5.50278 17.2636 5.50562C12.8912 5.51199 8.69966 7.25174 5.6079 10.3435C2.51613 13.4353 0.776382 17.6268 0.77002 21.9992Z" fill="#53BED1"/>
<path d="M7.18359 21.9992C7.18814 24.6714 8.25153 27.2328 10.1409 29.1225C12.0302 31.0121 14.5914 32.0759 17.2636 32.0809C17.5759 32.0806 17.888 32.0622 18.1982 32.026C18.194 31.0825 18.2838 30.1409 18.4662 29.2152C18.0697 29.2896 17.667 29.3264 17.2636 29.3251C15.3192 29.3251 13.4546 28.5528 12.0797 27.1779C10.7049 25.8031 9.93252 23.9384 9.93252 21.9941C9.93252 20.0498 10.7049 18.1851 12.0797 16.8103C13.4546 15.4354 15.3192 14.6631 17.2636 14.6631C17.7259 14.6547 18.1875 14.7032 18.638 14.8074L20.8561 12.5893C19.7124 12.1367 18.4936 11.9035 17.2636 11.9021C14.5892 11.9085 12.0264 12.9749 10.1369 14.8676C8.24743 16.7603 7.18541 19.3248 7.18359 21.9992Z" fill="#53BED1"/>
<path d="M17.2635 18.3362C16.5387 18.3362 15.8301 18.5512 15.2274 18.9539C14.6247 19.3567 14.155 19.9291 13.8777 20.5988C13.6004 21.2686 13.5279 22.0055 13.6694 22.7164C13.811 23.4273 14.1602 24.0803 14.6728 24.5928C15.1855 25.1052 15.8387 25.4541 16.5497 25.5953C17.2606 25.7365 17.9975 25.6637 18.6671 25.3861C19.3367 25.1084 19.909 24.6384 20.3114 24.0356C20.7139 23.4327 20.9285 22.724 20.9282 21.9991C20.925 21.0283 20.5379 20.0982 19.8512 19.4119C19.1646 18.7256 18.2343 18.3389 17.2635 18.3362ZM17.2635 22.9166C17.0824 22.9166 16.9054 22.8629 16.7548 22.7622C16.6042 22.6616 16.4868 22.5186 16.4175 22.3513C16.3482 22.184 16.3301 21.9998 16.3654 21.8222C16.4007 21.6446 16.4879 21.4814 16.616 21.3533C16.7441 21.2253 16.9073 21.138 17.0849 21.1027C17.2625 21.0674 17.4466 21.0855 17.614 21.1548C17.7813 21.2241 17.9243 21.3415 18.0249 21.4921C18.1256 21.6427 18.1793 21.8197 18.1793 22.0008C18.1804 22.1214 18.1575 22.241 18.1119 22.3526C18.0663 22.4643 17.9989 22.5657 17.9136 22.6509C17.8284 22.7362 17.727 22.8036 17.6153 22.8492C17.5037 22.8948 17.3841 22.9177 17.2635 22.9166Z" fill="#53BED1"/>
<path d="M17.2807 23.3737C17.0089 23.3739 16.7431 23.2935 16.517 23.1427C16.2909 22.9919 16.1146 22.7774 16.0103 22.5264C15.906 22.2754 15.8785 21.9992 15.9313 21.7325C15.984 21.4659 16.1146 21.2209 16.3065 21.0285L28.218 9.1136C28.4778 8.86672 28.8239 8.73112 29.1823 8.73571C29.5407 8.7403 29.8831 8.88471 30.1366 9.13817C30.39 9.39162 30.5344 9.73406 30.539 10.0925C30.5436 10.4509 30.408 10.7969 30.1611 11.0567L18.2497 22.9682C17.9931 23.2263 17.6446 23.3721 17.2807 23.3737Z" fill="#1F85B7"/>
<path d="M34.2331 11.0034H29.651C29.2864 11.0034 28.9368 10.8586 28.6791 10.6008C28.4213 10.343 28.2765 9.99345 28.2765 9.62892V5.04852C28.2768 4.68382 28.4206 4.3339 28.6768 4.07437L32.3415 0.409705C32.5337 0.217264 32.7787 0.0861851 33.0455 0.0330616C33.3122 -0.020062 33.5887 0.00715878 33.84 0.111278C34.0913 0.215397 34.3061 0.391732 34.4571 0.61796C34.6081 0.844188 34.6886 1.11014 34.6884 1.38214V4.59151H37.8977C38.1697 4.59129 38.4357 4.67179 38.6619 4.8228C38.8881 4.97382 39.0645 5.18856 39.1686 5.43984C39.2727 5.69112 39.2999 5.96765 39.2468 6.23441C39.1937 6.50117 39.0626 6.74618 38.8702 6.9384L35.2055 10.6031C34.9472 10.8601 34.5975 11.0041 34.2331 11.0034ZM32.8586 20.1676C30.5023 20.1673 28.1989 20.8657 26.2395 22.1745C24.2802 23.4833 22.753 25.3438 21.8511 27.5206C20.9491 29.6974 20.713 32.0928 21.1724 34.4039C21.6319 36.7149 22.7664 38.8378 24.4324 40.504C26.0984 42.1703 28.2211 43.3051 30.5321 43.7649C32.8431 44.2247 35.2385 43.9889 37.4155 43.0873C39.5924 42.1856 41.4531 40.6587 42.7622 38.6995C44.0713 36.7404 44.7701 34.437 44.7701 32.0808C44.7673 28.9223 43.5115 25.894 41.2784 23.6605C39.0452 21.427 36.017 20.1708 32.8586 20.1676ZM37.9905 29.8078L32.0391 36.2213C31.7976 36.4828 31.464 36.6404 31.1086 36.6609C30.7532 36.6814 30.4037 36.5633 30.1337 36.3313L26.9261 33.5824C26.7878 33.4653 26.674 33.3221 26.5912 33.1609C26.5085 32.9997 26.4584 32.8237 26.444 32.6431C26.4295 32.4624 26.4508 32.2807 26.5068 32.1084C26.5628 31.9361 26.6524 31.7765 26.7703 31.6389C26.8882 31.5013 27.0321 31.3884 27.1938 31.3066C27.3555 31.2249 27.5318 31.1759 27.7125 31.1625C27.8932 31.1491 28.0747 31.1716 28.2467 31.2286C28.4187 31.2857 28.5777 31.3762 28.7146 31.4949L30.9206 33.3848L35.9786 27.9402C36.2265 27.6727 36.5705 27.5147 36.9349 27.5008C37.2993 27.487 37.6543 27.6184 37.9218 27.8663C38.1893 28.1142 38.3473 28.4582 38.3612 28.8226C38.375 29.187 38.2435 29.542 37.9957 29.8095L37.9905 29.8078Z" fill="#1F85B7"/>
</g>
<defs>
<clipPath id="clip0_2424_264">
<rect width="44" height="44" fill="white" transform="translate(0.77002)"/>
</clipPath>
</defs>
</svg>
