<svg width="45" height="44" viewBox="0 0 45 44" fill="none" xmlns="http://www.w3.org/2000/svg">
<g clip-path="url(#clip0_2424_273)">
<path d="M6.13991 19.25C5.76703 19.2511 5.40268 19.1384 5.09546 18.9271C4.78824 18.7157 4.55275 18.4158 4.42036 18.0672C4.28798 17.7186 4.26501 17.3379 4.35451 16.9759C4.44402 16.614 4.64174 16.2879 4.92132 16.0411L13.1713 8.70721C13.3654 8.53434 13.5941 8.40489 13.8422 8.32753C14.0903 8.25017 14.352 8.22668 14.6099 8.25862L28.8755 9.9894L36.9537 2.33065C37.3072 1.99515 37.7795 1.81382 38.2667 1.82656C38.7539 1.83929 39.2161 2.04504 39.5516 2.39854C39.8871 2.75205 40.0684 3.22435 40.0556 3.71155C40.0429 4.19875 39.8372 4.66093 39.4837 4.99643L30.7748 13.2464C30.5788 13.4312 30.3448 13.5708 30.0891 13.6554C29.8335 13.74 29.5624 13.7676 29.2949 13.7363L14.9898 12.0021L7.3585 18.7911C7.02338 19.0907 6.58942 19.256 6.13991 19.2552V19.25Z" fill="#53BED1"/>
<path d="M39.5988 10.0838C39.4179 10.0842 39.2387 10.0489 39.0715 9.97985C38.9042 9.91083 38.7523 9.80949 38.6243 9.68164L32.2099 3.26383C32.0175 3.07163 31.8864 2.82669 31.8332 2.55998C31.78 2.29328 31.8071 2.01679 31.911 1.76547C32.015 1.51416 32.1911 1.29932 32.4172 1.14812C32.6432 0.996914 32.909 0.916142 33.181 0.916016H39.5971C39.9618 0.916016 40.3115 1.06088 40.5694 1.31874C40.8272 1.57661 40.9721 1.92634 40.9721 2.29102V8.70711C40.9719 8.97925 40.891 9.24522 40.7395 9.47132C40.588 9.69743 40.3729 9.87351 40.1213 9.97727C39.9562 10.0481 39.7784 10.0843 39.5988 10.0838Z" fill="#53BED1"/>
<path d="M13.4738 32.5411V37.5822H2.47375V32.5411C2.47375 31.9335 2.71514 31.3507 3.1448 30.921C3.57446 30.4914 4.15721 30.25 4.76485 30.25H11.1809C11.7887 30.25 12.3717 30.4913 12.8016 30.9209C13.2315 31.3506 13.4733 31.9333 13.4738 32.5411ZM28.1398 21.5411V37.5822H17.1398V21.5411C17.1398 20.9335 17.3812 20.3507 17.8109 19.921C18.2406 19.4914 18.8233 19.25 19.4309 19.25H25.847C26.1481 19.2498 26.4462 19.3089 26.7243 19.4239C27.0025 19.5389 27.2553 19.7077 27.4682 19.9204C27.6811 20.1332 27.85 20.3859 27.9653 20.6639C28.0805 20.942 28.1398 21.2401 28.1398 21.5411ZM42.8059 25.2089V37.5839H31.8059V25.2089C31.8055 24.9078 31.8644 24.6096 31.9794 24.3313C32.0943 24.0531 32.2631 23.8002 32.4759 23.5872C32.6887 23.3743 32.9414 23.2054 33.2196 23.0902C33.4978 22.975 33.796 22.9159 34.097 22.9161H40.5148C40.816 22.9156 41.1143 22.9746 41.3925 23.0897C41.6708 23.2048 41.9237 23.3737 42.1365 23.5867C42.3494 23.7998 42.5181 24.0527 42.633 24.3311C42.7478 24.6095 42.8066 24.9078 42.8059 25.2089Z" fill="#1F85B7"/>
<path d="M43.2649 43.084H2.01489C1.65022 43.084 1.30048 42.9391 1.04262 42.6813C0.784758 42.4234 0.639893 42.0737 0.639893 41.709C0.639893 41.3443 0.784758 40.9946 1.04262 40.7367C1.30048 40.4789 1.65022 40.334 2.01489 40.334H43.2649C43.6296 40.334 43.9793 40.4789 44.2372 40.7367C44.495 40.9946 44.6399 41.3443 44.6399 41.709C44.6399 42.0737 44.495 42.4234 44.2372 42.6813C43.9793 42.9391 43.6296 43.084 43.2649 43.084Z" fill="#53BED1"/>
</g>
<defs>
<clipPath id="clip0_2424_273">
<rect width="44" height="44" fill="white" transform="translate(0.639893)"/>
</clipPath>
</defs>
</svg>
