<svg width="45" height="44" viewBox="0 0 45 44" fill="none" xmlns="http://www.w3.org/2000/svg">
<g clip-path="url(#clip0_2424_281)">
<path d="M12.914 14.8689L12.309 11.2596L12.5513 11.0189L11.8019 10.2489C11.2668 9.70768 10.8911 9.02957 10.7159 8.28892C10.5406 7.54828 10.5727 6.77368 10.8085 6.05004C10.8274 5.99504 10.8429 5.95894 10.8635 5.90394L10.6229 5.86785L9.07598 2.62285C8.96515 2.38616 8.78914 2.18595 8.5686 2.0457C8.34806 1.90545 8.09211 1.83096 7.83075 1.83096C7.56939 1.83096 7.31344 1.90545 7.0929 2.0457C6.87236 2.18595 6.69635 2.38616 6.58552 2.62285L5.05927 5.88848L1.67505 6.41613C1.42645 6.45791 1.19413 6.56722 1.00346 6.73212C0.812798 6.89702 0.671134 7.11116 0.593954 7.35113C0.514376 7.59123 0.503094 7.84872 0.561366 8.09486C0.619639 8.341 0.745172 8.5661 0.923954 8.74504L3.41786 11.2939L2.83005 14.9033C2.80001 15.0997 2.81249 15.3002 2.86664 15.4912C2.92079 15.6823 3.01535 15.8596 3.14393 16.011C3.2725 16.1624 3.43209 16.2844 3.6119 16.3687C3.7917 16.4531 3.98753 16.4979 4.18614 16.5C4.42609 16.5013 4.6625 16.4422 4.87364 16.3282L7.87973 14.6421L10.9047 16.2921C11.1323 16.4156 11.3895 16.4741 11.6482 16.4611C11.9068 16.448 12.1568 16.364 12.3708 16.2182C12.5812 16.067 12.7446 15.8596 12.8422 15.6196C12.9398 15.3797 12.9676 15.1171 12.9225 14.8621L12.914 14.8689ZM44.4461 7.29613C44.3672 7.05562 44.2222 6.84217 44.0277 6.68017C43.8331 6.51818 43.597 6.41417 43.3461 6.38004L39.955 5.86441L38.4082 2.61941C38.2975 2.38224 38.1215 2.18157 37.9008 2.04097C37.6801 1.90037 37.4238 1.82568 37.1621 1.82568C36.9004 1.82568 36.6441 1.90037 36.4234 2.04097C36.2026 2.18157 36.0266 2.38224 35.916 2.61941L34.3932 5.88504L34.1921 5.92113C34.1921 5.94004 34.211 5.95723 34.211 5.97613C34.4575 6.69112 34.5006 7.46051 34.3355 8.19855C34.1704 8.9366 33.8036 9.6143 33.276 10.1561L32.4561 11L32.75 11.2939L32.164 14.9033C32.1339 15.0997 32.1464 15.3002 32.2005 15.4912C32.2547 15.6823 32.3493 15.8596 32.4778 16.011C32.6064 16.1624 32.766 16.2844 32.9458 16.3687C33.1256 16.4531 33.3214 16.4979 33.52 16.5C33.76 16.5013 33.9964 16.4422 34.2075 16.3282L37.2136 14.6421L40.2386 16.2921C40.4662 16.4156 40.7234 16.4741 40.9821 16.4611C41.2407 16.448 41.4907 16.364 41.7047 16.2182C41.9139 16.066 42.0762 15.8583 42.1734 15.6187C42.2706 15.379 42.2988 15.1169 42.2547 14.8621L41.6497 11.2527L44.1436 8.68832C44.3173 8.50551 44.438 8.2789 44.4928 8.03276C44.5476 7.78662 44.5345 7.53021 44.4547 7.29098L44.4461 7.29613Z" fill="#1F85B7"/>
<path d="M17.7385 18.3339C17.5396 18.3341 17.3431 18.2912 17.1625 18.2081C16.9818 18.125 16.8213 18.0037 16.6921 17.8525C16.5628 17.7014 16.4679 17.524 16.4139 17.3327C16.3598 17.1413 16.3479 16.9405 16.379 16.7441L17.1713 11.7941L13.7544 8.31359C13.5773 8.1334 13.4533 7.90789 13.396 7.66183C13.3386 7.41577 13.3502 7.15867 13.4294 6.91875C13.5086 6.67883 13.6524 6.46537 13.845 6.30181C14.0375 6.13825 14.2714 6.0309 14.521 5.99156L19.1771 5.26625L21.2585 0.7975C21.368 0.560943 21.5424 0.360375 21.7615 0.219176C21.9806 0.0779769 22.2354 0.00196465 22.496 0C22.7564 6.91051e-05 23.0115 0.074089 23.2314 0.213446C23.4514 0.352804 23.6273 0.551768 23.7387 0.787188L25.851 5.23875L30.5123 5.93484C30.7623 5.9717 30.9974 6.07677 31.1916 6.23851C31.3859 6.40025 31.5318 6.6124 31.6133 6.85165C31.6948 7.0909 31.7088 7.348 31.6537 7.59469C31.5987 7.84138 31.4767 8.06812 31.3012 8.25L27.9015 11.7528L28.7265 16.6977C28.7693 16.9524 28.7396 17.2141 28.6406 17.4527C28.5416 17.6913 28.3775 17.8972 28.1669 18.0468C27.9563 18.1964 27.7078 18.2837 27.4499 18.2986C27.192 18.3135 26.9351 18.2554 26.7087 18.1311L22.551 15.8538L18.4054 18.1603C18.2014 18.2737 17.9718 18.3328 17.7385 18.3322V18.3339Z" fill="#53BED1"/>
<path d="M7.85396 31.1662C9.87869 31.1662 11.5201 29.5248 11.5201 27.5001C11.5201 25.4754 9.87869 23.834 7.85396 23.834C5.82923 23.834 4.18787 25.4754 4.18787 27.5001C4.18787 29.5248 5.82923 31.1662 7.85396 31.1662Z" fill="#1F85B7"/>
<path d="M12.7489 33.7339C11.7978 34.4504 11.0261 35.3781 10.4949 36.4438C9.96365 37.5096 9.68736 38.6842 9.68783 39.875V40.3339H1.89502C1.53118 40.3312 1.18301 40.1855 0.925731 39.9282C0.668451 39.6709 0.522719 39.3227 0.520021 38.9589V38.0428C0.519569 37.3806 0.64964 36.7248 0.902797 36.1129C1.15595 35.501 1.52723 34.9449 1.99541 34.4766C2.46359 34.0083 3.01948 33.6368 3.63131 33.3834C4.24313 33.1301 4.8989 32.9998 5.56111 33H10.145C11.0639 33.0011 11.9647 33.255 12.7489 33.7339Z" fill="#1F85B7"/>
<path d="M37.1861 31.1662C39.2108 31.1662 40.8522 29.5248 40.8522 27.5001C40.8522 25.4754 39.2108 23.834 37.1861 23.834C35.1614 23.834 33.52 25.4754 33.52 27.5001C33.52 29.5248 35.1614 31.1662 37.1861 31.1662Z" fill="#1F85B7"/>
<path d="M44.52 38.0411V38.9572C44.5169 39.3209 44.371 39.6688 44.1138 39.926C43.8567 40.1832 43.5087 40.329 43.145 40.3322H35.3539V39.875C35.3547 38.6841 35.0785 37.5094 34.5473 36.4436C34.016 35.3778 33.2442 34.4502 32.2928 33.7339C33.0763 33.2548 33.9767 33.0008 34.895 33H39.4789C40.141 32.9998 40.7966 33.13 41.4084 33.3833C42.0201 33.6365 42.5759 34.0078 43.044 34.476C43.5122 34.9442 43.8835 35.5 44.1368 36.1117C44.39 36.7234 44.5203 37.379 44.52 38.0411Z" fill="#1F85B7"/>
<path d="M22.52 32.084C25.5576 32.084 28.02 29.6216 28.02 26.584C28.02 23.5464 25.5576 21.084 22.52 21.084C19.4825 21.084 17.02 23.5464 17.02 26.584C17.02 29.6216 19.4825 32.084 22.52 32.084Z" fill="#53BED1"/>
<path d="M27.5612 34.834H17.4773C16.1405 34.8349 14.8589 35.3663 13.9137 36.3115C12.9685 37.2567 12.4371 38.5384 12.4362 39.8751V42.6251C12.4362 42.9898 12.581 43.3395 12.8389 43.5974C13.0967 43.8552 13.4465 44.0001 13.8112 44.0001H31.2273C31.5919 44.0001 31.9417 43.8552 32.1995 43.5974C32.4574 43.3395 32.6023 42.9898 32.6023 42.6251V39.8751C32.6013 38.5384 32.0699 37.2567 31.1247 36.3115C30.1796 35.3663 28.8979 34.8349 27.5612 34.834Z" fill="#53BED1"/>
</g>
<defs>
<clipPath id="clip0_2424_281">
<rect width="44" height="44" fill="white" transform="translate(0.52002)"/>
</clipPath>
</defs>
</svg>
