<svg width="44" height="45" viewBox="0 0 44 45" fill="none" xmlns="http://www.w3.org/2000/svg">
<g clip-path="url(#clip0_2424_885)">
<path d="M10.0839 32.1443C13.1215 32.1443 15.5839 29.6819 15.5839 26.6443C15.5839 23.6067 13.1215 21.1443 10.0839 21.1443C7.04636 21.1443 4.58392 23.6067 4.58392 26.6443C4.58392 29.6819 7.04636 32.1443 10.0839 32.1443Z" fill="#1F85B7"/>
<path d="M15.125 35.8123H5.04109C3.70394 35.8136 2.42199 36.3456 1.4768 37.2915C0.531605 38.2373 0.000454737 39.5196 0 40.8568L0 43.6068C0 43.9715 0.144866 44.3212 0.402728 44.5791C0.660591 44.8369 1.01033 44.9818 1.375 44.9818H18.7911C19.1558 44.9818 19.5055 44.8369 19.7634 44.5791C20.0212 44.3212 20.1661 43.9715 20.1661 43.6068V40.8568C20.1656 39.5196 19.6345 38.2373 18.6893 37.2915C17.7441 36.3456 16.4622 35.8136 15.125 35.8123Z" fill="#1F85B7"/>
<path d="M33.9161 32.1443C36.9536 32.1443 39.4161 29.6819 39.4161 26.6443C39.4161 23.6067 36.9536 21.1443 33.9161 21.1443C30.8785 21.1443 28.4161 23.6067 28.4161 26.6443C28.4161 29.6819 30.8785 32.1443 33.9161 32.1443Z" fill="#1F85B7"/>
<path d="M38.9589 35.8123H28.875C27.5379 35.8136 26.2559 36.3456 25.3107 37.2915C24.3655 38.2373 23.8344 39.5196 23.8339 40.8568V43.6068C23.8339 43.9715 23.9788 44.3212 24.2367 44.5791C24.4945 44.8369 24.8443 44.9818 25.2089 44.9818H42.625C42.9897 44.9818 43.3394 44.8369 43.5973 44.5791C43.8552 44.3212 44 43.9715 44 43.6068V40.8568C43.9996 39.5196 43.4684 38.2373 42.5232 37.2915C41.578 36.3456 40.2961 35.8136 38.9589 35.8123Z" fill="#1F85B7"/>
<path d="M25.74 19.6268V20.9468C25.7373 21.4889 25.5194 22.0078 25.1343 22.3894C24.7491 22.771 24.2283 22.9841 23.6861 22.9818H20.3122C19.3222 22.9818 18.2497 22.2479 18.2497 20.6168V19.6268H25.74ZM30.25 9.17677C30.253 10.3932 29.9827 11.5948 29.4592 12.6928C28.9356 13.7908 28.1721 14.7572 27.225 15.5207C26.4963 16.0874 25.9901 16.8923 25.795 17.7946H18.2188C18.0698 16.9223 17.5903 16.1411 16.8799 15.6135C15.8777 14.8353 15.0724 13.8327 14.5288 12.6863C13.9851 11.5399 13.7184 10.2819 13.75 9.01349C13.8411 4.64959 17.49 1.03849 21.8711 0.981774C22.9711 0.957154 24.0646 1.15587 25.0856 1.56592C26.1065 1.97596 27.0337 2.58881 27.8111 3.3674C28.5875 4.12188 29.2037 5.02527 29.6228 6.02347C30.0418 7.02168 30.2552 8.09418 30.25 9.17677Z" fill="#53BED1"/>
</g>
<defs>
<clipPath id="clip0_2424_885">
<rect width="44" height="44" fill="white" transform="translate(0 0.97998)"/>
</clipPath>
</defs>
</svg>
