<svg width="44" height="44" viewBox="0 0 44 44" fill="none" xmlns="http://www.w3.org/2000/svg">
<path d="M21.1785 25.5234C21.0653 25.2909 20.8888 25.0949 20.6693 24.9581C20.4498 24.8213 20.1962 24.7492 19.9375 24.75H3.32751C2.96284 24.75 2.61311 24.8949 2.35524 25.1527C2.09738 25.4106 1.95251 25.7603 1.95251 26.125C1.95251 35.9803 10.0203 44 19.941 44C22.6447 44.005 25.3147 43.4005 27.7527 42.2314C27.9164 42.1534 28.0631 42.0439 28.1842 41.909C28.3054 41.7741 28.3987 41.6166 28.4588 41.4455C28.5189 41.2744 28.5445 41.0931 28.5342 40.9121C28.524 40.731 28.478 40.5538 28.3989 40.3906L21.1785 25.5234Z" fill="#1F85B7"/>
<path d="M26.125 3.26562C25.7603 3.26563 25.4106 3.41049 25.1527 3.66835C24.8949 3.92622 24.75 4.27595 24.75 4.64062V21.0358C24.7495 21.2436 24.7965 21.4488 24.8875 21.6356L32.0598 36.4083C32.2183 36.7354 32.4998 36.9864 32.8428 37.1065C33.1858 37.2267 33.5624 37.2061 33.8903 37.0494C40.1277 34.045 44 27.9073 44 21.0323C44 11.2338 35.9803 3.26562 26.125 3.26562Z" fill="#53BED1"/>
<path d="M19.25 17.875V1.375C19.25 1.01033 19.1051 0.660591 18.8473 0.402728C18.5894 0.144866 18.2397 0 17.875 0C13.1361 0.00591258 8.59293 1.89106 5.242 5.242C1.89106 8.59293 0.00591258 13.1361 0 17.875C0 18.2397 0.144866 18.5894 0.402728 18.8473C0.660591 19.1051 1.01033 19.25 1.375 19.25H17.875C18.2397 19.25 18.5894 19.1051 18.8473 18.8473C19.1051 18.5894 19.25 18.2397 19.25 17.875Z" fill="#1F85B7"/>
</svg>
