<svg width="44" height="44" viewBox="0 0 44 44" fill="none" xmlns="http://www.w3.org/2000/svg">
<g clip-path="url(#clip0_2424_900)">
<path d="M29.5625 3.5354L9.58893 13.7499L1.65002 9.85181L21.2627 0.171806C21.4845 0.0632619 21.7282 0.00683594 21.9751 0.00683594C22.222 0.00683594 22.4657 0.0632619 22.6875 0.171806L29.5625 3.5354ZM42.3277 9.85181L22.0103 19.9168L14.4014 16.1699L13.3049 15.6113L33.2922 5.38993L34.3922 5.94681L42.3277 9.85181Z" fill="#53BED1"/>
<path d="M20.3827 22.8182L20.3603 44L0.898906 33.844C0.628191 33.6993 0.40168 33.4841 0.243414 33.2212C0.0851493 32.9582 0.0010353 32.6573 0 32.3504L0 12.7532L8.25 16.8163V23.9577C8.25 24.3953 8.42384 24.815 8.73327 25.1244C9.04271 25.4339 9.46239 25.6077 9.9 25.6077C10.3376 25.6077 10.7573 25.4339 11.0667 25.1244C11.3762 24.815 11.55 24.3953 11.55 23.9577V18.468L12.65 19.0043L20.3827 22.8182ZM43.9777 12.7755L23.6827 22.7975L23.6603 43.9777L44 33.3575L43.9777 12.7755Z" fill="#1F85B7"/>
</g>
<defs>
<clipPath id="clip0_2424_900">
<rect width="44" height="44" fill="white"/>
</clipPath>
</defs>
</svg>
