<svg width="44" height="45" viewBox="0 0 44 45" fill="none" xmlns="http://www.w3.org/2000/svg">
<g clip-path="url(#clip0_2424_830)">
<path d="M26.125 0.979981H5.0411C4.37903 0.979755 3.7234 1.10999 3.11168 1.36325C2.49997 1.61651 1.94415 1.98783 1.476 2.45598C1.00785 2.92413 0.63653 3.47995 0.383272 4.09166C0.130013 4.70338 -0.000224674 5.359 1.17272e-06 6.02107V34.4372C-0.000450581 35.0994 0.12962 35.7552 0.382778 36.3671C0.635935 36.979 1.00722 37.535 1.47539 38.0034C1.94357 38.4717 2.49946 38.8432 3.11129 39.0965C3.72312 39.3499 4.37888 39.4802 5.0411 39.48H18.5711L18.975 37.225C19.1559 36.2062 19.642 35.2663 20.3689 34.53L31.1678 23.75V6.02107C31.1678 5.35892 31.0374 4.70326 30.7839 4.09153C30.5305 3.47981 30.159 2.92401 29.6907 2.45588C29.2224 1.98774 28.6665 1.61646 28.0547 1.36322C27.4429 1.10998 26.7872 0.979755 26.125 0.979981ZM7.33391 8.31389H14.6678C14.9133 8.30637 15.1577 8.34822 15.3867 8.43696C15.6156 8.5257 15.8244 8.65951 16.0007 8.83047C16.177 9.00143 16.3171 9.20604 16.4128 9.43218C16.5085 9.65832 16.5579 9.90138 16.5579 10.1469C16.5579 10.3925 16.5085 10.6355 16.4128 10.8617C16.3171 11.0878 16.177 11.2924 16.0007 11.4634C15.8244 11.6344 15.6156 11.7682 15.3867 11.8569C15.1577 11.9456 14.9133 11.9875 14.6678 11.98H7.33219C6.85575 11.9654 6.40371 11.7659 6.07186 11.4237C5.74001 11.0815 5.55442 10.6236 5.55442 10.1469C5.55442 9.67027 5.74001 9.21234 6.07186 8.87017C6.40371 8.528 6.85575 8.32848 7.33219 8.31389H7.33391ZM16.5 26.6461H7.33391C7.08847 26.6536 6.84401 26.6117 6.61505 26.523C6.38609 26.4343 6.17728 26.3004 6.00101 26.1295C5.82473 25.9585 5.68459 25.7539 5.58888 25.5278C5.49318 25.3016 5.44387 25.0586 5.44387 24.813C5.44387 24.5675 5.49318 24.3244 5.58888 24.0983C5.68459 23.8721 5.82473 23.6675 6.00101 23.4966C6.17728 23.3256 6.38609 23.1918 6.61505 23.1031C6.84401 23.0143 7.08847 22.9725 7.33391 22.98H16.5C16.7454 22.9725 16.9899 23.0143 17.2189 23.1031C17.4478 23.1918 17.6566 23.3256 17.8329 23.4966C18.0092 23.6675 18.1493 23.8721 18.245 24.0983C18.3407 24.3244 18.39 24.5675 18.39 24.813C18.39 25.0586 18.3407 25.3016 18.245 25.5278C18.1493 25.7539 18.0092 25.9585 17.8329 26.1295C17.6566 26.3004 17.4478 26.4343 17.2189 26.523C16.9899 26.6117 16.7454 26.6536 16.5 26.6461ZM23.8339 19.3139H7.33391C6.84753 19.3139 6.38106 19.1207 6.03714 18.7767C5.69322 18.4328 5.5 17.9664 5.5 17.48C5.5 16.9936 5.69322 16.5271 6.03714 16.1832C6.38106 15.8393 6.84753 15.6461 7.33391 15.6461H23.8339C24.3203 15.6461 24.7867 15.8393 25.1307 16.1832C25.4746 16.5271 25.6678 16.9936 25.6678 17.48C25.6678 17.9664 25.4746 18.4328 25.1307 18.7767C24.7867 19.1207 24.3203 19.3139 23.8339 19.3139Z" fill="#1F85B7"/>
<path d="M22.9678 44.98C22.767 44.9802 22.5686 44.9365 22.3865 44.8519C22.2044 44.7672 22.0431 44.6437 21.9138 44.4901C21.7846 44.3364 21.6905 44.1563 21.6383 43.9624C21.5861 43.7686 21.577 43.5656 21.6117 43.3678L22.5862 37.8575C22.6351 37.5795 22.7683 37.3233 22.9678 37.1236L36.5803 23.5111C38.2526 21.8353 39.894 22.2873 40.7929 23.1862L43.0617 25.455C43.6624 26.0572 43.9998 26.8731 43.9998 27.7237C43.9998 28.5744 43.6624 29.3903 43.0617 29.9925L29.4492 43.605C29.2507 43.8061 28.9939 43.9396 28.7153 43.9866L23.2153 44.9611C23.1333 44.9729 23.0506 44.9793 22.9678 44.98Z" fill="#53BED1"/>
</g>
<defs>
<clipPath id="clip0_2424_830">
<rect width="44" height="44" fill="white" transform="translate(0 0.97998)"/>
</clipPath>
</defs>
</svg>
