<svg width="45" height="45" viewBox="0 0 45 45" fill="none" xmlns="http://www.w3.org/2000/svg">
<g clip-path="url(#clip0_2424_842)">
<path d="M22.7516 10.1478C25.2833 10.1478 27.3355 8.09551 27.3355 5.56389C27.3355 3.03227 25.2833 0.97998 22.7516 0.97998C20.22 0.97998 18.1677 3.03227 18.1677 5.56389C18.1677 8.09551 20.22 10.1478 22.7516 10.1478Z" fill="#1F85B7"/>
<path d="M35.5856 35.8138C38.1172 35.8138 40.1695 33.7615 40.1695 31.2299C40.1695 28.6983 38.1172 26.646 35.5856 26.646C33.054 26.646 31.0017 28.6983 31.0017 31.2299C31.0017 33.7615 33.054 35.8138 35.5856 35.8138Z" fill="#1F85B7"/>
<path d="M9.91789 35.8138C12.4495 35.8138 14.5018 33.7615 14.5018 31.2299C14.5018 28.6983 12.4495 26.646 9.91789 26.646C7.38627 26.646 5.33398 28.6983 5.33398 31.2299C5.33398 33.7615 7.38627 35.8138 9.91789 35.8138Z" fill="#1F85B7"/>
<path d="M30.5428 19.3139H14.9589C14.5942 19.3139 14.2445 19.169 13.9866 18.9112C13.7288 18.6533 13.5839 18.3036 13.5839 17.9389V17.0228C13.5844 15.6855 14.1158 14.4031 15.0614 13.4575C16.007 12.5119 17.2894 11.9804 18.6267 11.98H26.8767C28.2131 11.9809 29.4945 12.5121 30.4397 13.4569C31.3848 14.4017 31.9164 15.683 31.9178 17.0194V17.9354C31.9183 18.1163 31.883 18.2955 31.8141 18.4627C31.7452 18.6299 31.644 18.7819 31.5163 18.9099C31.3886 19.038 31.2368 19.1396 31.0698 19.2089C30.9027 19.2782 30.7237 19.3139 30.5428 19.3139ZM43.3767 44.98H27.7928C27.4281 44.98 27.0784 44.8351 26.8205 44.5773C26.5627 44.3194 26.4178 43.9697 26.4178 43.605V42.6889C26.4192 41.3523 26.9507 40.0709 27.8958 39.1258C28.8409 38.1807 30.1223 37.6492 31.4589 37.6478H39.7089C41.0458 37.6487 42.3276 38.1801 43.2731 39.1252C44.2186 40.0703 44.7503 41.352 44.7517 42.6889V43.605C44.7517 43.9697 44.6068 44.3194 44.349 44.5773C44.0911 44.8351 43.7414 44.98 43.3767 44.98ZM17.7106 44.98H2.12671C1.76204 44.98 1.4123 44.8351 1.15444 44.5773C0.896575 44.3194 0.751709 43.9697 0.751709 43.605V42.6889C0.753074 41.3523 1.28463 40.0709 2.22972 39.1258C3.17481 38.1807 4.45624 37.6492 5.7928 37.6478H14.0428C15.3792 37.6496 16.6604 38.1813 17.6054 39.1263C18.5504 40.0713 19.0821 41.3525 19.0839 42.6889V43.605C19.0839 43.9697 18.939 44.3194 18.6812 44.5773C18.4233 44.8351 18.0736 44.98 17.7089 44.98H17.7106Z" fill="#1F85B7"/>
<path d="M5.79272 24.3772C5.42805 24.3772 5.07832 24.2324 4.82045 23.9745C4.56259 23.7166 4.41772 23.3669 4.41772 23.0022C4.42573 19.5088 5.42762 16.0899 7.30637 13.1447C9.18511 10.1995 11.8631 7.84974 15.0276 6.36987C15.192 6.28843 15.3711 6.24073 15.5543 6.22959C15.7375 6.21845 15.9211 6.24409 16.0942 6.305C16.2673 6.36592 16.4265 6.46087 16.5623 6.58427C16.6982 6.70767 16.8079 6.85702 16.8851 7.0235C16.9624 7.18999 17.0055 7.37025 17.0119 7.55366C17.0184 7.73707 16.9881 7.91992 16.9228 8.09142C16.8574 8.26293 16.7584 8.41963 16.6316 8.55227C16.5048 8.68492 16.3527 8.79084 16.1843 8.86378C13.4936 10.1209 11.2165 12.1181 9.61913 14.6219C8.02181 17.1256 7.17033 20.0324 7.16429 23.0022C7.16429 23.3663 7.01989 23.7155 6.76278 23.9733C6.50566 24.231 6.1568 24.3763 5.79272 24.3772ZM39.7105 24.3772C39.3459 24.3772 38.9961 24.2324 38.7383 23.9745C38.4804 23.7166 38.3355 23.3669 38.3355 23.0022C38.3295 20.0324 37.478 17.1256 35.8807 14.6219C34.2834 12.1181 32.0062 10.1209 29.3155 8.86378C29.1497 8.78902 29.0004 8.68212 28.8762 8.54925C28.7521 8.41639 28.6555 8.26021 28.592 8.08976C28.5286 7.9193 28.4997 7.73796 28.5068 7.55624C28.514 7.37451 28.5571 7.19601 28.6337 7.03107C28.7103 6.86612 28.8189 6.71802 28.9532 6.59533C29.0874 6.47264 29.2447 6.3778 29.4158 6.31631C29.587 6.25481 29.7686 6.22788 29.9503 6.23708C30.1319 6.24627 30.3099 6.29141 30.474 6.36987C33.6385 7.84957 36.3167 10.1993 38.1954 13.1445C40.0742 16.0897 41.076 19.5088 41.0838 23.0022C41.0838 23.3669 40.939 23.7166 40.6811 23.9745C40.4232 24.2324 40.0735 24.3772 39.7088 24.3772H39.7105ZM22.7516 41.3361C22.1115 41.3369 21.4718 41.3036 20.8352 41.2364C20.4841 41.1851 20.1664 41 19.9486 40.7198C19.7308 40.4396 19.6298 40.0861 19.6666 39.7331C19.7035 39.3802 19.8754 39.0552 20.1463 38.826C20.4173 38.5969 20.7664 38.4813 21.1205 38.5036C22.2407 38.6179 23.3698 38.6145 24.4893 38.4933C24.8479 38.4605 25.2051 38.5697 25.4841 38.7975C25.7631 39.0252 25.9416 39.3534 25.9812 39.7113C26.0209 40.0693 25.9184 40.4285 25.696 40.7118C25.4736 40.995 25.1489 41.1797 24.7918 41.2261C24.1142 41.2993 23.4332 41.336 22.7516 41.3361Z" fill="#53BED1"/>
</g>
<defs>
<clipPath id="clip0_2424_842">
<rect width="44" height="44" fill="white" transform="translate(0.75 0.97998)"/>
</clipPath>
</defs>
</svg>
