<svg width="45" height="45" viewBox="0 0 45 45" fill="none" xmlns="http://www.w3.org/2000/svg">
<g clip-path="url(#clip0_2424_857)">
<path d="M22.5 7.31529C22.1353 7.31529 21.7856 7.17043 21.5277 6.91256C21.2699 6.6547 21.125 6.30497 21.125 5.94029V2.35498C21.125 1.99031 21.2699 1.64057 21.5277 1.38271C21.7856 1.12485 22.1353 0.97998 22.5 0.97998C22.8647 0.97998 23.2144 1.12485 23.4723 1.38271C23.7301 1.64057 23.875 1.99031 23.875 2.35498V5.94029C23.875 6.30497 23.7301 6.6547 23.4723 6.91256C23.2144 7.17043 22.8647 7.31529 22.5 7.31529ZM34.5484 12.3065C34.2769 12.3064 34.0115 12.2259 33.7856 12.0751C33.5598 11.9243 33.3836 11.7101 33.2794 11.4593C33.1752 11.2086 33.1475 10.9326 33.1999 10.6661C33.2523 10.3997 33.3825 10.1548 33.5739 9.96217L36.1125 7.42357C36.2389 7.29052 36.3907 7.18412 36.5589 7.11064C36.727 7.03716 36.9082 6.9981 37.0917 6.99575C37.2753 6.9934 37.4574 7.02781 37.6274 7.09696C37.7974 7.16611 37.9518 7.26859 38.0816 7.39836C38.2114 7.52814 38.3139 7.68258 38.383 7.85259C38.4522 8.02259 38.4866 8.20472 38.4842 8.38824C38.4819 8.57175 38.4428 8.75294 38.3693 8.92112C38.2959 9.0893 38.1895 9.24107 38.0564 9.36748L35.5178 11.9061C35.2603 12.1624 34.9118 12.3064 34.5484 12.3065ZM43.125 24.355H39.5397C39.175 24.355 38.8253 24.2101 38.5674 23.9523C38.3096 23.6944 38.1647 23.3447 38.1647 22.98C38.1647 22.6153 38.3096 22.2656 38.5674 22.0077C38.8253 21.7498 39.175 21.605 39.5397 21.605H43.125C43.4897 21.605 43.8394 21.7498 44.0973 22.0077C44.3551 22.2656 44.5 22.6153 44.5 22.98C44.5 23.3447 44.3551 23.6944 44.0973 23.9523C43.8394 24.2101 43.4897 24.355 43.125 24.355ZM37.0836 38.9386C36.7184 38.9382 36.3682 38.7936 36.1091 38.5364L33.5722 35.9978C33.3252 35.7378 33.1896 35.3917 33.1941 35.0331C33.1987 34.6746 33.3432 34.332 33.5968 34.0785C33.8503 33.8249 34.1929 33.6804 34.5514 33.6758C34.91 33.6713 35.2561 33.8069 35.5161 34.0539L38.0547 36.5925C38.3124 36.8503 38.4571 37.1999 38.4571 37.5644C38.4571 37.929 38.3124 38.2785 38.0547 38.5364C37.9276 38.6644 37.7762 38.7659 37.6095 38.835C37.4428 38.904 37.264 38.9392 37.0836 38.9386ZM7.91641 38.9386C7.64465 38.9384 7.37903 38.8578 7.15308 38.7068C6.92713 38.5558 6.75099 38.3413 6.6469 38.0902C6.54282 37.8392 6.51544 37.563 6.56825 37.2964C6.62106 37.0298 6.75167 36.7849 6.94359 36.5925L9.48219 34.0539C9.74215 33.8069 10.0883 33.6713 10.4469 33.6758C10.8054 33.6804 11.148 33.8249 11.4015 34.0785C11.6551 34.332 11.7995 34.6746 11.8041 35.0331C11.8087 35.3917 11.6731 35.7378 11.4261 35.9978L8.8875 38.5364C8.76031 38.6644 8.60898 38.7658 8.44228 38.8349C8.27558 38.9039 8.09684 38.9392 7.91641 38.9386ZM5.46031 24.355H1.875C1.51033 24.355 1.16059 24.2101 0.902728 23.9523C0.644866 23.6944 0.5 23.3447 0.5 22.98C0.5 22.6153 0.644866 22.2656 0.902728 22.0077C1.16059 21.7498 1.51033 21.605 1.875 21.605H5.46031C5.82499 21.605 6.17472 21.7498 6.43258 22.0077C6.69045 22.2656 6.83531 22.6153 6.83531 22.98C6.83531 23.3447 6.69045 23.6944 6.43258 23.9523C6.17472 24.2101 5.82499 24.355 5.46031 24.355ZM10.4516 12.3065C10.087 12.3073 9.73711 12.1632 9.47875 11.9061L6.94016 9.36748C6.8071 9.24107 6.7007 9.0893 6.62722 8.92112C6.55374 8.75294 6.51468 8.57175 6.51233 8.38824C6.50998 8.20472 6.54439 8.02259 6.61354 7.85259C6.68269 7.68258 6.78517 7.52814 6.91495 7.39836C7.04472 7.26859 7.19916 7.16611 7.36917 7.09696C7.53918 7.02781 7.7213 6.9934 7.90482 6.99575C8.08834 6.9981 8.26952 7.03716 8.4377 7.11064C8.60588 7.18412 8.75765 7.29052 8.88406 7.42357L11.4227 9.96217C11.6139 10.1545 11.744 10.3992 11.7965 10.6653C11.849 10.9314 11.8216 11.2071 11.7178 11.4577C11.614 11.7084 11.4384 11.9227 11.2131 12.0737C10.9878 12.2247 10.7228 12.3057 10.4516 12.3065Z" fill="#53BED1"/>
<path d="M28.0001 39.4799V41.771C27.996 42.6208 27.6566 43.4346 27.0557 44.0355C26.4548 44.6364 25.641 44.9758 24.7912 44.9799H20.2073C18.6604 44.9799 17.0001 43.806 17.0001 41.2399V39.4799H28.0001ZM30.5782 13.0111C29.081 11.7989 27.331 10.938 25.457 10.4918C23.5831 10.0456 21.6329 10.0255 19.7501 10.433C14.8912 11.4488 10.9501 15.4174 9.94116 20.266C9.42705 22.663 9.60959 25.1571 10.4672 27.4538C11.3248 29.7504 12.8217 31.7537 14.7812 33.227C15.8985 34.0859 16.646 35.3387 16.8712 36.7299V36.7505C16.9124 36.7354 16.9562 36.7284 17.0001 36.7299H28.0001C28.0316 36.727 28.0633 36.7336 28.0912 36.7488V36.7299C28.3473 35.336 29.1723 34.0538 30.4373 33.0638C31.949 31.8712 33.1732 30.3539 34.0193 28.6242C34.8654 26.8946 35.3118 24.9968 35.3253 23.0713C35.3388 21.1458 34.9192 19.2419 34.0975 17.5006C33.2758 15.7592 32.073 14.2248 30.5782 13.0111ZM29.3751 23.9011C29.0112 23.8984 28.6631 23.7527 28.4058 23.4954C28.1485 23.2381 28.0028 22.8899 28.0001 22.5261C28.001 21.8636 27.8712 21.2074 27.6183 20.5951C27.3653 19.9828 26.9941 19.4264 26.5259 18.9577C26.0577 18.489 25.5016 18.1172 24.8896 17.8636C24.2775 17.61 23.6215 17.4796 22.959 17.4799C22.5943 17.4799 22.2446 17.335 21.9867 17.0771C21.7288 16.8193 21.584 16.4695 21.584 16.1049C21.584 15.7402 21.7288 15.3905 21.9867 15.1326C22.2446 14.8747 22.5943 14.7299 22.959 14.7299C25.0239 14.7344 27.003 15.5567 28.4631 17.0168C29.9232 18.477 30.7455 20.456 30.7501 22.521C30.7474 22.8848 30.6016 23.233 30.3444 23.4902C30.0871 23.7475 29.7389 23.8933 29.3751 23.896V23.9011Z" fill="#1F85B7"/>
<path d="M16.8711 36.7299H17C16.9562 36.727 16.9122 36.7335 16.8711 36.7488V36.7299Z" fill="#53BED1"/>
<path d="M28.0911 36.7299V36.7488C28.0633 36.7336 28.0316 36.727 28 36.7299H28.0911Z" fill="#1F85B7"/>
</g>
<defs>
<clipPath id="clip0_2424_857">
<rect width="44" height="44" fill="white" transform="translate(0.5 0.97998)"/>
</clipPath>
</defs>
</svg>
