<svg width="45" height="45" viewBox="0 0 45 45" fill="none" xmlns="http://www.w3.org/2000/svg">
<g clip-path="url(#clip0_2424_871)">
<path d="M29.8124 4.51538L9.83881 14.7299L1.8999 10.8318L21.5126 1.15179C21.7344 1.04324 21.978 0.986816 22.225 0.986816C22.4719 0.986816 22.7156 1.04324 22.9374 1.15179L29.8124 4.51538ZM42.5776 10.8318L22.2602 20.8968L14.6513 17.1499L13.5547 16.5913L33.5421 6.36991L34.6421 6.92679L42.5776 10.8318Z" fill="#53BED1"/>
<path d="M20.6327 23.7982L20.6103 44.98L1.14891 34.8239C0.878191 34.6793 0.65168 34.4641 0.493414 34.2011C0.335149 33.9382 0.251035 33.6373 0.25 33.3303L0.25 13.7332L8.5 17.7963V24.9377C8.5 25.3753 8.67384 25.795 8.98327 26.1044C9.29271 26.4138 9.71239 26.5877 10.15 26.5877C10.5876 26.5877 11.0073 26.4138 11.3167 26.1044C11.6262 25.795 11.8 25.3753 11.8 24.9377V19.448L12.9 19.9842L20.6327 23.7982ZM44.2277 13.7555L23.9327 23.7775L23.9103 44.9577L44.25 34.3375L44.2277 13.7555Z" fill="#1F85B7"/>
</g>
<defs>
<clipPath id="clip0_2424_871">
<rect width="44" height="44" fill="white" transform="translate(0.25 0.97998)"/>
</clipPath>
</defs>
</svg>
